<svg width="128" height="38" viewBox="0 0 128 38" fill="none" xmlns="http://www.w3.org/2000/svg">
<path d="M127.015 32.5827C127.015 35.3451 124.522 37.5895 121.453 37.5895H6.19439C3.12593 37.5895 0.632812 35.3451 0.632812 32.5827V5.4194C0.632812 2.65703 3.12593 0.412598 6.19439 0.412598H121.453C124.522 0.412598 127.015 2.65703 127.015 5.4194V32.5827Z" fill="black"/>
<path d="M36.0057 25.0195C35.4237 26.3397 35.1327 26.9711 34.3178 28.1192C33.212 29.7838 31.6987 31.7929 29.7781 31.8503C28.0902 31.8503 27.6246 30.7596 25.3547 30.7596C23.0266 30.7596 22.561 31.8503 20.8732 31.8503C18.9525 31.8503 17.4974 30.0134 16.3916 28.3488C13.3069 23.7567 13.0159 18.3609 14.8783 15.4908C16.217 13.4244 18.3123 12.2764 20.3493 12.2764C22.3864 12.2764 23.6668 13.367 25.2965 13.367C26.9262 13.367 27.9156 12.2764 30.2437 12.2764C31.9897 12.2764 33.9104 13.2522 35.2491 14.8594C30.8839 17.2129 31.5823 23.3549 36.0057 25.0195Z" fill="white"/>
<path d="M28.4976 10.4391C29.3706 9.34843 30.0108 7.85599 29.778 6.30615C28.3812 6.42096 26.7515 7.28198 25.8203 8.43001C24.9472 9.46324 24.2488 11.0131 24.5398 12.5055C25.9949 12.4481 27.5663 11.5871 28.4976 10.4391Z" fill="white"/>
<path d="M46.3656 17.4991C46.5402 18.0731 46.6566 18.6471 46.8894 19.2785L48.0534 22.6652H44.6777L45.8417 19.2785C46.0163 18.7045 46.1909 18.1305 46.3656 17.4991ZM45.3179 15.4326L40.9528 28.1757H42.9898L44.2703 24.2724H48.519L49.8577 28.1757H51.8947L47.4714 15.4326H45.3179Z" fill="white"/>
<path d="M57.0747 20.3118C58.8207 20.3118 59.5774 21.9191 59.5774 23.4689C59.5774 25.478 58.5879 26.7408 56.9583 26.7408C55.8524 26.7408 54.9212 25.9946 54.6302 24.9613C54.572 24.7891 54.572 24.5595 54.572 24.3299V22.8375C54.572 22.7227 54.6302 22.5505 54.6302 22.3783C54.6302 22.3209 54.6302 22.2635 54.6302 22.2061C55.0376 21.058 55.9688 20.3118 57.0747 20.3118ZM57.5985 18.7046C56.2598 18.7046 55.2122 19.2212 54.5138 20.197L54.4556 18.9342H52.6513V19.1064C52.7095 19.91 52.7095 20.771 52.7095 22.0339V31.8495H54.6884V27.2574C55.2704 27.9462 56.2598 28.4054 57.3657 28.4054C58.5297 28.4054 59.5774 27.9462 60.334 27.1426C61.207 26.2242 61.6144 24.9613 61.6144 23.4115C61.6144 22.0339 61.207 20.8858 60.5086 20.0248C59.6938 19.1638 58.7043 18.7046 57.5985 18.7046Z" fill="white"/>
<path d="M67.1438 20.3118C68.8899 20.3118 69.6465 21.9191 69.6465 23.4689C69.6465 25.478 68.6571 26.7408 67.0274 26.7408C65.9216 26.7408 64.9904 25.9946 64.6994 24.9613C64.6412 24.7891 64.6412 24.5595 64.6412 24.3299V22.8375C64.6412 22.7227 64.6994 22.5505 64.6994 22.3783C64.6994 22.3209 64.6994 22.2635 64.6994 22.2061C65.1068 21.058 66.038 20.3118 67.1438 20.3118ZM67.6095 18.7046C66.2708 18.7046 65.2232 19.2212 64.5248 20.197L64.4666 18.9342H62.6623V19.1064C62.7205 19.91 62.7205 20.771 62.7205 22.0339V31.8495H64.6994V27.2574C65.2814 27.9462 66.2708 28.4054 67.3767 28.4054C68.5407 28.4054 69.5883 27.9462 70.345 27.1426C71.218 26.2242 71.6254 24.9613 71.6254 23.4115C71.6254 22.0339 71.218 20.8858 70.4614 20.0248C69.7629 19.1638 68.7735 18.7046 67.6095 18.7046Z" fill="white"/>
<path d="M80.2392 20.8289C78.4349 20.1401 77.8529 19.5661 77.8529 18.5903C77.8529 17.7292 78.5513 16.8682 80.0645 16.8682C81.345 16.8682 82.1598 17.3274 82.3344 17.4422L82.509 17.557L83.0329 15.9498L82.9165 15.8924C82.5672 15.7202 81.636 15.261 80.0645 15.261C77.5619 15.261 75.8158 16.696 75.8158 18.7625C75.8158 20.4271 76.9216 21.6325 79.2497 22.4362C80.8794 23.0676 81.5196 23.699 81.5196 24.7322C81.5196 25.9377 80.5884 26.6839 79.0169 26.6839C78.0275 26.6839 76.9798 26.3969 76.2232 25.8803L76.0486 25.7654L75.5248 27.4301L75.6412 27.4875C76.3978 27.9467 77.7365 28.3485 78.9587 28.3485C82.3344 28.3485 83.4985 26.3395 83.4985 24.6174C83.5567 22.838 82.5672 21.7473 80.2392 20.8289Z" fill="white"/>
<path d="M87.0491 16.7534L85.1284 17.3274V18.9347H83.7316V20.4845H85.1284V25.1914C85.1284 26.3394 85.3612 27.1431 85.8268 27.6597C86.2925 28.1189 86.9327 28.4059 87.6893 28.4059C88.4459 28.4059 88.9697 28.2911 89.2026 28.1763L89.319 28.1189L89.2026 26.5691L89.0279 26.6265C88.7951 26.6839 88.5041 26.7413 88.0967 26.7413C87.3401 26.7413 86.9909 26.282 86.9909 25.134V20.4845H89.319V18.9347H86.9909V16.7534H87.0491Z" fill="white"/>
<path d="M94.1496 20.2544C95.8957 20.2544 96.7105 21.9191 96.7105 23.5263C96.7105 25.478 95.6046 26.8556 94.0914 26.8556C92.6363 26.8556 91.5305 25.478 91.5305 23.5837C91.5887 21.9191 92.3453 20.2544 94.1496 20.2544ZM94.2078 18.7046C91.4723 18.7046 89.5516 20.7136 89.5516 23.5837C89.5516 26.3964 91.4141 28.348 94.0332 28.348C96.2449 28.348 98.6894 26.7982 98.6894 23.4689C98.6894 22.0913 98.2819 20.9432 97.4671 20.0822C96.6523 19.1638 95.5465 18.7046 94.2078 18.7046Z" fill="white"/>
<path d="M104.742 18.8194L104.626 18.762C104.451 18.7046 104.335 18.7046 104.16 18.7046C103.113 18.7046 102.24 19.2786 101.716 20.2544L101.658 18.9342H99.9116V19.1064C99.9698 19.8526 99.9698 20.7136 99.9698 21.8617V28.1758H101.949V23.2393C101.949 22.9523 101.949 22.7227 102.007 22.4931C102.24 21.2877 103.055 20.5414 104.044 20.5414C104.219 20.5414 104.393 20.5414 104.568 20.5988H104.801V18.8194H104.742Z" fill="white"/>
<path d="M108.991 20.1396C109.573 20.1396 110.097 20.3118 110.446 20.6562C111.028 21.2303 111.087 22.0339 111.145 22.4357H106.663C106.838 21.4025 107.536 20.1396 108.991 20.1396ZM109.108 18.7046C106.489 18.7046 104.684 20.771 104.684 23.6985C104.684 26.5112 106.489 28.348 109.282 28.348C110.737 28.348 111.785 28.0036 112.367 27.774L112.484 27.7166L112.134 26.2816L111.96 26.339C111.436 26.5686 110.737 26.7982 109.515 26.7982C108.642 26.7982 106.722 26.5112 106.605 23.9855H112.891V23.8707C112.949 23.6985 112.949 23.4115 112.949 23.0671C113.007 21.058 111.96 18.7046 109.108 18.7046Z" fill="white"/>
<path d="M44.5034 8.77445L43.8049 6.7654C43.6885 6.30619 43.5721 5.90438 43.4557 5.50257H43.3975C43.2811 5.90438 43.1647 6.30619 43.0483 6.708L42.3499 8.65965H44.5034V8.77445ZM42.2335 9.46327L41.5351 11.5871H40.6038L42.9319 4.75635H44.0377L46.3658 11.5871H45.4346L44.678 9.46327H42.2335Z" fill="white"/>
<path d="M47.2969 6.70776L48.2863 9.46303C48.4609 9.92224 48.5773 10.3241 48.6937 10.7259H48.7519C48.8683 10.3241 48.9847 9.92224 49.1593 9.46303L50.1488 6.70776H51.08L49.0429 11.5869H48.1699L46.3074 6.70776H47.2969Z" fill="white"/>
<path d="M54.2812 9.06106C53.2918 9.06106 52.1859 9.23327 52.1859 10.1517C52.1859 10.7257 52.5933 11.0127 53.0008 11.0127C53.641 11.0127 54.0484 10.6109 54.223 10.2091C54.2812 10.0943 54.2812 10.0369 54.2812 9.92208V9.06106ZM55.1542 10.3813C55.1542 10.7831 55.1542 11.2423 55.2124 11.5293H54.3976L54.3394 10.8979H54.2812C53.9902 11.2997 53.4664 11.6441 52.768 11.6441C51.7785 11.6441 51.2547 10.9553 51.2547 10.2665C51.2547 9.06106 52.3023 8.42965 54.223 8.42965V8.31484C54.223 7.91303 54.1066 7.16681 53.1172 7.16681C52.6515 7.16681 52.1859 7.28162 51.8367 7.51123L51.6039 6.93721C52.0113 6.70761 52.5933 6.5354 53.2336 6.5354C54.7468 6.5354 55.1542 7.56862 55.1542 8.54445V10.3813Z" fill="white"/>
<path d="M56.5506 6.70781H57.4237V11.5869H56.5506V6.70781ZM56.9581 5.78939C56.6088 5.78939 56.376 5.50238 56.376 5.21537C56.376 4.92836 56.6088 4.64136 56.9581 4.64136C57.3073 4.64136 57.5401 4.87096 57.5401 5.21537C57.5401 5.55978 57.3655 5.78939 56.9581 5.78939Z" fill="white"/>
<path d="M59.8101 4.4126H58.8789V11.5878H59.8101V4.4126Z" fill="white"/>
<path d="M63.8264 9.06106C62.837 9.06106 61.7312 9.23327 61.7312 10.1517C61.7312 10.7257 62.1386 11.0127 62.546 11.0127C63.1862 11.0127 63.6518 10.6109 63.7682 10.2091C63.8264 10.0943 63.8264 10.0369 63.8264 9.92208V9.06106ZM64.6995 10.3813C64.6995 10.7831 64.6995 11.2423 64.7577 11.5293H63.9428L63.8846 10.8979H63.8264C63.5354 11.2997 63.0116 11.6441 62.3132 11.6441C61.3237 11.6441 60.7999 10.9553 60.7999 10.2665C60.7999 9.06106 61.8476 8.42965 63.7682 8.42965V8.31484C63.7682 7.91303 63.6518 7.16681 62.6624 7.16681C62.1968 7.16681 61.7312 7.28162 61.3819 7.51123L61.1491 6.93721C61.5566 6.70761 62.1386 6.5354 62.7788 6.5354C64.292 6.5354 64.6995 7.56862 64.6995 8.54445V10.3813Z" fill="white"/>
<path d="M67.0274 9.63613C67.0274 9.75093 67.0274 9.86573 67.0856 9.98054C67.2602 10.612 67.7841 11.0138 68.4243 11.0138C69.3555 11.0138 69.9375 10.2675 69.9375 9.11951C69.9375 8.14369 69.4137 7.28267 68.4825 7.28267C67.8423 7.28267 67.3184 7.68448 67.1438 8.3733C67.0856 8.4881 67.0856 8.6029 67.0856 8.77511V9.63613H67.0274ZM66.0962 4.4126H66.9692V7.45487C67.2602 6.93826 67.8422 6.59385 68.6571 6.59385C69.8793 6.59385 70.7524 7.62708 70.7524 9.06211C70.7524 10.8416 69.6465 11.7026 68.5407 11.7026C67.8423 11.7026 67.2602 11.4156 66.911 10.7842L66.8528 11.5878H66.0962C66.1544 11.2434 66.1544 10.7842 66.1544 10.3249V4.4126H66.0962Z" fill="white"/>
<path d="M72.7311 4.4126H71.858V11.5878H72.7311V4.4126Z" fill="white"/>
<path d="M77.3873 8.65947C77.3873 8.08546 77.1545 7.22444 76.1651 7.22444C75.2338 7.22444 74.8846 8.02806 74.7682 8.65947H77.3873ZM74.71 9.29089C74.71 10.4963 75.5249 11.0129 76.3979 11.0129C77.0381 11.0129 77.4455 10.8981 77.7947 10.7833L77.9693 11.4147C77.6783 11.5295 77.0963 11.7017 76.3397 11.7017C74.8264 11.7017 73.8952 10.7259 73.8952 9.23349C73.8952 7.74105 74.7682 6.59302 76.2233 6.59302C77.8529 6.59302 78.2604 7.97065 78.2604 8.88908C78.2604 9.06128 78.2604 9.23349 78.2022 9.29089H74.71Z" fill="white"/>
<path d="M83.4402 11.0129C84.3133 11.0129 84.9535 10.2093 84.9535 9.11868C84.9535 8.31506 84.5461 7.22444 83.4402 7.22444C82.3926 7.22444 81.927 8.20026 81.927 9.11868C81.9852 10.2093 82.5672 11.0129 83.4402 11.0129ZM83.4402 11.7017C82.1016 11.7017 81.054 10.7259 81.054 9.17608C81.054 7.56884 82.1598 6.59302 83.4984 6.59302C84.8953 6.59302 85.8847 7.62624 85.8847 9.11868C85.8847 10.8981 84.6043 11.7017 83.4402 11.7017Z" fill="white"/>
<path d="M86.9909 8.02805C86.9909 7.51144 86.9909 7.10963 86.9327 6.70782H87.7476L87.8058 7.51144C88.0386 7.05223 88.6206 6.59302 89.4354 6.59302C90.1338 6.59302 91.1815 6.99483 91.1815 8.65947V11.5869H90.2503V8.77427C90.2503 7.97065 89.9592 7.33924 89.0862 7.33924C88.5042 7.33924 88.0386 7.74105 87.864 8.25766C87.8058 8.37246 87.8058 8.54467 87.8058 8.65947V11.5869H86.9327V8.02805H86.9909Z" fill="white"/>
<path d="M95.8372 5.5022V6.65023H97.1177V7.33904H95.8372V9.97951C95.8372 10.6109 96.0118 10.9553 96.5357 10.9553C96.7685 10.9553 96.9431 10.9553 97.0595 10.8979L97.1177 11.5868C96.9431 11.6442 96.6521 11.7016 96.3028 11.7016C95.8954 11.7016 95.5462 11.5867 95.3134 11.3571C95.0806 11.0701 94.9642 10.6683 94.9642 10.0943V7.45384H94.2076V6.76503H94.9642V5.84661L95.8372 5.5022Z" fill="white"/>
<path d="M98.0491 4.4126H98.9222V7.45487C99.0386 7.22527 99.2714 6.99566 99.5624 6.82346C99.8534 6.65125 100.144 6.59385 100.494 6.59385C101.134 6.59385 102.24 6.99566 102.24 8.66031V11.5878H101.367V8.77511C101.367 7.97149 101.076 7.34007 100.203 7.34007C99.6206 7.34007 99.155 7.74188 98.9804 8.25849C98.9222 8.3733 98.9222 8.4881 98.9222 8.66031V11.5878H98.0491V4.4126Z" fill="white"/>
<path d="M106.838 8.65947C106.838 8.08546 106.605 7.22444 105.616 7.22444C104.684 7.22444 104.277 8.02806 104.219 8.65947H106.838ZM104.219 9.29089C104.219 10.4963 105.033 11.0129 105.907 11.0129C106.547 11.0129 106.954 10.8981 107.303 10.7833L107.478 11.4147C107.187 11.5295 106.605 11.7017 105.79 11.7017C104.277 11.7017 103.346 10.7259 103.346 9.23349C103.346 7.74105 104.219 6.59302 105.674 6.59302C107.303 6.59302 107.711 7.97065 107.711 8.88908C107.711 9.06128 107.711 9.23349 107.653 9.29089H104.219Z" fill="white"/>
</svg>
