<svg width="46" height="46" viewBox="0 0 46 46" fill="none" xmlns="http://www.w3.org/2000/svg">
<g clip-path="url(#clip0_669_791)">
<path d="M36.7409 34.9285C36.7409 35.218 36.7409 35.4091 36.7409 35.606C36.7409 37.818 36.7409 40.03 36.7409 42.2477C36.7409 44.6218 35.3628 46 32.9771 46.0058C27.065 46.0116 21.1528 46.0058 15.2349 46.0058C14.2795 46.0058 13.3182 46.0289 12.3686 45.9653C10.8746 45.8668 9.6644 44.7956 9.34013 43.3421C9.25906 42.9831 9.25906 42.6067 9.25906 42.2362C9.25327 39.9894 9.24169 37.7369 9.26485 35.4902C9.26485 35.0443 9.13746 34.9227 8.69738 34.9285C7.01813 34.9517 5.33308 34.9401 3.65383 34.9343C1.41289 34.9285 0.00579053 33.533 0.00579053 31.2863C0 22.0735 0 12.8666 0 3.65962C0.00579053 1.38973 1.41868 0 3.70015 0C16.5725 0 29.4449 0 42.3114 0C44.5871 0 45.9942 1.39552 45.9942 3.6712C45.9942 12.8608 45.9942 22.0504 45.9942 31.2341C45.9942 33.5388 44.5929 34.9169 42.2767 34.9227C40.6495 34.9227 39.0166 34.9227 37.3895 34.9227C37.1984 34.9227 37.0073 34.9227 36.7409 34.9227V34.9285ZM9.22432 27.1866C8.94637 27.1866 8.73792 27.1866 8.52946 27.1866C7.57402 27.1866 6.61858 27.1866 5.66314 27.1866C5.32729 27.1866 5.06093 27.0534 5.04935 26.6712C5.03776 26.2659 5.31571 26.1269 5.67472 26.1037C5.79632 26.0979 5.92372 26.1037 6.04532 26.1037C17.36 26.1037 28.6689 26.1037 39.9836 26.1037C40.0879 26.1037 40.1979 26.1037 40.3021 26.1037C40.6553 26.1211 40.9449 26.2369 40.9507 26.648C40.9564 27.0592 40.6727 27.1866 40.3137 27.1923C39.5146 27.1923 38.7213 27.1923 37.9222 27.1923C37.54 27.1923 37.1636 27.1923 36.7757 27.1923V33.8573C36.9957 33.8573 37.1868 33.8573 37.3779 33.8573C39.005 33.8573 40.638 33.8573 42.2651 33.8573C44.0138 33.8573 44.9172 32.9597 44.9172 31.2168C44.9172 22.0446 44.9172 12.8781 44.9172 3.70594C44.9172 1.99773 44.0081 1.09441 42.2941 1.09441C38.0091 1.09441 33.7241 1.09441 29.4391 1.09441C20.8691 1.09441 12.3049 1.09441 3.73489 1.09441C3.04003 1.09441 2.40307 1.19864 1.86455 1.68505C1.25076 2.24094 1.08283 2.94159 1.08283 3.74068C1.09441 12.8955 1.08862 22.0446 1.08862 31.1994C1.08862 31.3963 1.08862 31.5874 1.10599 31.7842C1.19285 32.8671 2.10196 33.8225 3.18479 33.8457C5.16516 33.8862 7.14552 33.8457 9.13167 33.8457C9.16062 33.8457 9.18958 33.8109 9.2359 33.7762V27.2039L9.22432 27.1866ZM27.7367 42.0103C28.7732 38.6634 29.3638 38.0728 32.757 36.9899V27.2271H29.5143C29.9313 28.2752 29.6533 29.0395 28.8137 29.358C28.5937 29.4391 28.3736 29.6186 28.2462 29.8155C27.6845 30.6956 26.9376 31.292 25.9068 31.5063C25.3857 31.6105 25.0151 31.3847 24.8645 30.9214C24.5808 30.0471 24.8472 29.2538 25.5999 28.7558C25.959 28.5184 26.0748 28.1767 25.9358 27.7888C25.7968 27.395 25.4783 27.1981 25.0556 27.2676C24.6445 27.3371 24.3955 27.5977 24.3724 28.0262C24.3608 28.1999 24.4187 28.3968 24.3666 28.5531C24.1986 29.0801 24.106 29.6881 23.7875 30.1108C22.1314 32.2706 19.0798 32.0506 17.6901 29.7112C17.6206 29.5954 17.5395 29.4622 17.4237 29.4101C16.2135 28.8484 16.0282 28.4489 16.4625 27.2271H13.2314V37.0015C16.5493 37.9975 17.0473 38.4955 18.2633 42.0161H27.7367V42.0103ZM33.863 27.2155C33.863 27.4761 33.863 27.6845 33.863 27.893C33.863 30.9736 33.863 34.0541 33.863 37.1347C33.863 37.9917 33.8225 38.0322 32.9945 38.1017C30.7362 38.2986 28.9874 40.0879 28.8484 42.3462C28.8079 42.9947 28.6921 43.1163 28.0436 43.1221C24.6793 43.1221 21.315 43.1221 17.9507 43.1221C17.3021 43.1221 17.1863 42.9947 17.1458 42.352C17.0068 40.0705 15.2349 38.2696 12.9534 38.1017C12.2007 38.0438 12.1312 37.9743 12.1312 37.1926C12.1312 34.0773 12.1312 30.962 12.1312 27.8467C12.1312 27.644 12.1312 27.4413 12.1312 27.2387H10.3361C10.3361 27.4529 10.3361 27.6324 10.3361 27.8061C10.3361 32.6412 10.3361 37.4705 10.3361 42.3056C10.3361 44.0138 11.2452 44.9172 12.9592 44.9172C19.6531 44.9172 26.3411 44.9172 33.035 44.9172C34.749 44.9172 35.6581 44.0138 35.6581 42.3056C35.6581 37.4705 35.6581 32.6412 35.6581 27.8061C35.6581 27.6208 35.6581 27.4298 35.6581 27.2213H33.863V27.2155ZM19.3983 27.1055C18.8019 27.2155 18.2054 27.3371 17.6032 27.4298C17.221 27.4935 16.9605 27.6845 16.9663 28.0783C16.9721 28.4778 17.2558 28.6979 17.6322 28.6921C17.9796 28.6863 18.107 28.8426 18.2286 29.138C18.7266 30.3134 19.8499 30.9678 21.1181 30.8578C22.3978 30.7477 23.5964 29.6417 23.6485 28.5357C23.6717 28.1015 23.7238 27.673 23.7701 27.2097C23.7064 27.2039 23.608 27.1866 23.5038 27.1866C22.8012 27.1673 22.4152 27.5012 22.3457 28.1883C22.2704 28.9469 21.6624 29.5433 20.9212 29.5838C20.1511 29.6302 19.4562 29.1495 19.323 28.3968C19.2593 28.032 19.3578 27.644 19.3925 27.0997L19.3983 27.1055ZM26.5843 27.0939C26.8507 28.1825 26.6886 28.8774 26.0516 29.3233C25.8258 29.4796 25.461 29.5086 25.5305 29.9428C25.5768 30.2208 25.5363 30.5161 25.5363 30.852C26.6017 30.6435 27.2966 30.1224 27.7019 29.2538C27.8583 28.9179 27.9914 28.6805 28.4373 28.6631C28.64 28.6574 28.9353 28.362 28.9874 28.1478C29.0337 27.9741 28.8253 27.5803 28.6574 27.5282C27.9799 27.3313 27.2734 27.2271 26.5785 27.0939H26.5843ZM21.6219 27.1113C21.1702 27.2097 20.7475 27.2329 20.3827 27.395C20.0005 27.5687 19.9194 27.9625 20.0642 28.3505C20.1974 28.7153 20.4985 28.9006 20.8922 28.86C21.315 28.8195 21.5697 28.5763 21.6161 28.1536C21.645 27.8583 21.6219 27.5629 21.6219 27.1055V27.1113Z" fill="#2CB34A"/>
<path d="M17.8985 5.03198C21.8998 5.03198 25.8953 5.03198 29.8965 5.03198C30.684 5.03198 30.7767 5.12463 30.7767 5.92372C30.7767 11.2336 30.7767 16.5436 30.7767 21.8535C30.7767 22.6178 30.684 22.7105 29.9197 22.7105C21.923 22.7105 13.9204 22.7105 5.92371 22.7105C5.13041 22.7105 5.04355 22.6178 5.04355 21.8187C5.04355 16.5088 5.04355 11.1989 5.04355 5.88898C5.04355 5.13621 5.15357 5.03198 5.90055 5.03198C9.90181 5.03198 13.8973 5.03198 17.8985 5.03198ZM6.12638 21.5929H29.6649V6.13218H6.12638V21.5929Z" fill="#2CB34A"/>
<path d="M37.928 9.72241C38.7039 9.72241 39.4856 9.72241 40.2616 9.72241C40.748 9.72241 40.9738 9.93666 40.968 10.4289C40.9564 11.17 40.9622 11.9112 40.968 12.6524C40.968 13.1215 40.7364 13.3241 40.2789 13.3241C38.6692 13.3241 37.0652 13.3241 35.4554 13.3241C34.9922 13.3241 34.7779 13.1099 34.7837 12.6466C34.7895 11.8881 34.7837 11.1295 34.7837 10.3652C34.7837 9.91929 35.0096 9.72241 35.4381 9.72241C36.2661 9.72241 37.0999 9.72241 37.928 9.72241ZM39.8562 12.2355V10.8342H35.8955V12.2355H39.8562Z" fill="#2CB34A"/>
<path d="M37.8875 18.0144C37.0768 18.0144 36.2603 18.0144 35.4497 18.0144C34.9806 18.0144 34.7722 17.8001 34.7779 17.3369C34.7895 16.5957 34.7895 15.8545 34.7779 15.1133C34.7722 14.6443 34.9864 14.4185 35.4439 14.4185C37.071 14.4185 38.6923 14.4185 40.3195 14.4185C40.7422 14.4185 40.968 14.6327 40.968 15.0786C40.9622 15.8371 40.9622 16.5957 40.968 17.36C40.968 17.8349 40.7306 18.026 40.279 18.0202C39.4857 18.0086 38.6866 18.0202 37.8933 18.0202L37.8875 18.0144ZM39.8678 15.536H35.8955V16.9142H39.8678V15.536Z" fill="#2CB34A"/>
<path d="M37.8701 5.03186C38.6634 5.03186 39.4625 5.04344 40.2558 5.03186C40.748 5.02607 40.968 5.24032 40.9622 5.73252C40.9506 6.47371 40.9506 7.21489 40.9622 7.95608C40.9622 8.43091 40.7248 8.63357 40.2789 8.63357C38.6692 8.63357 37.0652 8.63357 35.4554 8.63357C35.0038 8.63357 34.7721 8.41932 34.7779 7.95029C34.7895 7.19173 34.7779 6.43317 34.7779 5.66882C34.7779 5.22295 34.998 5.02607 35.4323 5.03186C36.2429 5.03765 37.0594 5.03186 37.8701 5.03186ZM39.8678 6.13785H35.8723V7.52179H39.8678V6.13785Z" fill="#2CB34A"/>
<path d="M37.8353 22.7104C37.042 22.7104 36.2487 22.7104 35.4496 22.7104C34.9864 22.7104 34.7664 22.5077 34.7779 22.0387C34.7895 21.2801 34.7837 20.5216 34.7779 19.763C34.7779 19.3461 34.9806 19.1318 35.386 19.1318C37.0478 19.1318 38.7039 19.1318 40.3658 19.1318C40.7422 19.1318 40.9564 19.3287 40.9564 19.7225C40.9564 20.5158 40.9564 21.3091 40.9564 22.1082C40.9564 22.5309 40.7248 22.7104 40.3195 22.7104C39.4914 22.7104 38.6576 22.7104 37.8296 22.7104H37.8353ZM35.8955 20.2436V21.6044H39.8678V20.2436H35.8955Z" fill="#2CB34A"/>
<path d="M23.0116 39.9085C21.3265 39.9143 19.9658 38.5709 19.9715 36.8916C19.9715 35.2181 21.3497 33.8458 23.0116 33.8516C24.6619 33.8632 26.0053 35.2066 26.0284 36.8627C26.0516 38.5361 24.6966 39.9027 23.0116 39.9085ZM22.971 38.8314C24.0655 38.843 24.934 37.9918 24.9398 36.8974C24.9398 35.8088 24.077 34.9286 22.9942 34.9344C21.9287 34.9344 21.0717 35.7856 21.0544 36.8511C21.037 37.9513 21.8824 38.8256 22.971 38.8314Z" fill="#2CB34A"/>
</g>
<defs>
<clipPath id="clip0_669_791">
<rect width="46" height="46" fill="white"/>
</clipPath>
</defs>
</svg>
