<svg width="84" height="115" viewBox="0 0 84 115" fill="none" xmlns="http://www.w3.org/2000/svg">
<g clip-path="url(#clip0_646_561)">
<mask id="mask0_646_561" style="mask-type:luminance" maskUnits="userSpaceOnUse" x="0" y="0" width="84" height="115">
<path d="M84 0H0V115H84V0Z" fill="white"/>
</mask>
<g mask="url(#mask0_646_561)">
<path d="M84 35.84C84 30.59 80.62 27.2 75.4 27.19C67.2 27.19 58.99 27.19 50.79 27.19C45.5 27.19 42.14 30.57 42.13 35.89C42.13 52.83 42.13 69.76 42.13 86.7H3.84V15.2H59.92V21.88H63.7V2.81C63.7 0.55 63.16 0 60.95 0H2.75C0.51 0 0 0.52 0 2.78V102.91C0 105.14 0.51 105.69 2.75 105.69H42.13V106.29C42.13 106.98 42.13 107.69 42.27 108.37C43.06 112.36 46.28 114.98 50.46 114.99C58.7 115.01 66.94 114.99 75.18 114.99C80.69 114.99 84 111.67 84 106.12C84 94.48 84 82.84 84 71.2C84 59.56 84 47.63 84 35.84ZM3.87 3.84H59.92V11.17H3.87V3.84ZM3.9 101.88V90.68H42.13V101.88H3.9ZM50.85 30.46C59.09 30.46 67.33 30.46 75.56 30.46C78.75 30.46 80.76 32.42 80.77 35.63C80.79 47.71 80.77 59.78 80.77 71.86C80.77 72.08 80.74 72.29 80.72 72.65H45.4C45.38 72.24 45.35 71.85 45.35 71.47C45.35 59.65 45.35 47.83 45.35 36.01C45.35 32.36 47.23 30.47 50.85 30.47V30.46ZM80.73 95.53V101.91H74.42V95.53H80.73ZM74.45 92.14V85.82H80.71V92.14H74.45ZM55.08 85.81H61.4V92.18H55.08V85.81ZM45.42 95.54H51.69V101.94H45.42V95.54ZM51.7 105.7V111.68C47.31 112.28 44.89 109.25 45.43 105.7C45.45 105.56 45.47 105.43 45.5 105.29H51.7V105.7ZM51.72 86.72V92.16H45.44V85.83H51.72V86.73V86.72ZM54.92 82.41H45.43V76.03H54.92V82.41ZM55.06 101.89V95.55H61.47C61.47 97.55 61.48 99.52 61.45 101.49C61.45 101.66 61.17 101.97 61.02 101.97C59.04 102 57.05 101.99 55.06 101.99V101.89ZM61.48 111.68H55.11V105.22C57.08 105.22 59 105.2 60.91 105.25C61.06 105.25 61.31 105.49 61.41 105.68C61.44 105.74 61.46 105.79 61.46 105.83C61.5 107.76 61.49 109.69 61.49 111.67L61.48 111.68ZM59.94 82.45H58.34V76.03H67.84V82.45H59.95H59.94ZM71.06 85.81V92.18H64.76V85.81H71.06ZM64.69 95.54H71.06V102C69.08 102 67.16 102.01 65.25 101.98C65.06 101.98 64.72 101.66 64.72 101.49C64.68 99.52 64.7 97.56 64.7 95.54H64.69ZM71.09 111.7H64.69C64.69 109.68 64.68 107.68 64.71 105.68C64.71 105.53 65.02 105.26 65.19 105.25C67.14 105.22 69.09 105.23 71.08 105.23V111.7H71.09ZM71.23 76.06H80.74V82.42H71.23V76.06ZM74.44 111.65V105.3H80.63C81.61 109.27 78.74 112.22 74.44 111.65Z" fill="#2CB34A"/>
<path d="M59.73 36.93C61.94 37 64.15 37 66.35 36.93C67.33 36.9 67.9 36.18 67.87 35.28C67.84 34.39 67.23 33.77 66.24 33.74C65.19 33.7 64.14 33.74 63.09 33.74C62.04 33.74 60.92 33.72 59.83 33.75C58.9 33.78 58.35 34.3 58.27 35.24C58.19 36.15 58.76 36.9 59.73 36.93Z" fill="#2CB34A"/>
<path d="M28.56 98.07C30.77 98.14 32.98 98.14 35.18 98.07C36.16 98.04 36.73 97.32 36.7 96.42C36.67 95.53 36.06 94.91 35.07 94.88C34.02 94.84 32.97 94.88 31.92 94.88C30.87 94.88 29.75 94.86 28.66 94.89C27.73 94.92 27.18 95.44 27.1 96.38C27.02 97.29 27.59 98.04 28.56 98.07Z" fill="#2CB34A"/>
</g>
<path d="M52.86 54.62L53.84 55.15L53.4 55.88L52.41 55.3L52.43 56.38H51.59V55.29L50.61 55.88L50.18 55.15L51.16 54.62L50.18 54.08L50.61 53.35L51.6 53.94V52.85H52.43L52.41 53.94L53.4 53.35L53.84 54.08L52.86 54.62Z" fill="#2CB34A"/>
<path d="M59.43 53.22V54.16L57.1 59.49H55.52L57.77 54.4H55.69V55.42H54.4V53.22H59.42H59.43Z" fill="#2CB34A"/>
<path d="M64.2 56.39C64.49 56.71 64.64 57.1 64.64 57.58C64.64 57.94 64.54 58.28 64.35 58.59C64.16 58.9 63.87 59.14 63.48 59.33C63.09 59.51 62.61 59.61 62.04 59.61C61.6 59.61 61.16 59.55 60.74 59.44C60.32 59.33 59.95 59.16 59.65 58.94L60.21 57.83C60.45 58.01 60.72 58.15 61.04 58.25C61.36 58.35 61.67 58.4 62 58.4C62.36 58.4 62.65 58.33 62.86 58.19C63.07 58.05 63.17 57.85 63.17 57.6C63.17 57.09 62.78 56.83 62 56.83H61.34V55.87L62.63 54.41H59.96V53.25H64.35V54.19L62.93 55.8C63.48 55.89 63.9 56.09 64.19 56.41L64.2 56.39Z" fill="#2CB34A"/>
<path d="M69.46 56.39C69.75 56.71 69.9 57.1 69.9 57.58C69.9 57.94 69.8 58.28 69.61 58.59C69.42 58.9 69.13 59.14 68.74 59.33C68.35 59.51 67.87 59.61 67.3 59.61C66.86 59.61 66.42 59.55 66 59.44C65.58 59.33 65.21 59.16 64.91 58.94L65.47 57.83C65.71 58.01 65.98 58.15 66.3 58.25C66.62 58.35 66.93 58.4 67.26 58.4C67.62 58.4 67.91 58.33 68.12 58.19C68.33 58.05 68.43 57.85 68.43 57.6C68.43 57.09 68.04 56.83 67.26 56.83H66.6V55.87L67.89 54.41H65.22V53.25H69.61V54.19L68.19 55.8C68.74 55.89 69.16 56.09 69.45 56.41L69.46 56.39Z" fill="#2CB34A"/>
<path d="M75.02 57.08H76.18V58.06H74.9L74.72 59.49H73.71L73.89 58.06H72.57L72.39 59.49H71.39L71.57 58.06H70.4V57.08H71.69L71.88 55.63H70.71V54.65H72L72.18 53.22H73.18L73 54.65H74.32L74.5 53.22H75.5L75.32 54.65H76.48V55.63H75.2L75.02 57.08ZM74.01 57.08L74.2 55.63H72.88L72.69 57.08H74.01Z" fill="#2CB34A"/>
</g>
<defs>
<clipPath id="clip0_646_561">
<rect width="84" height="115" fill="white"/>
</clipPath>
</defs>
</svg>
