<svg width="91" height="105" viewBox="0 0 91 105" fill="none" xmlns="http://www.w3.org/2000/svg">
<g clip-path="url(#clip0_646_578)">
<path d="M63.85 22.51C78.12 23.6 89.57 35.08 90.05 49.71C90.31 57.21 87.84 63.82 82.8 69.4C77.76 74.98 71.45 78 63.81 78.7V102.21C63.81 104.46 63.26 105 61.05 105H2.76C0.52 105 0 104.46 0 102.24V2.76C0 0.51 0.51 0 2.76 0H61.06C63.27 0 63.82 0.55 63.82 2.79V22.51H63.85ZM3.85 86.14H60.04V78.7C52.82 78.06 46.6 75.24 41.63 70.01C36.63 64.72 34 58.4 33.87 51.09C33.77 45.12 35.38 39.64 38.81 34.73C43.97 27.39 51.16 23.44 60.04 22.54V15.1H3.85V86.14ZM37.59 50.61C37.59 64.05 48.49 75.02 61.93 75.02C75.37 75.02 86.34 64.02 86.34 50.65C86.34 37.28 75.37 26.28 61.93 26.28C48.49 26.28 37.56 37.18 37.56 50.62H37.59V50.61ZM60.01 101.22V90.09H3.91V101.22H60H60.01ZM60.01 3.82H3.88V11.1H60.04V3.82H60.01Z" fill="#2CB34A"/>
<path d="M61.94 68.85C54.49 68.74 48.44 62.68 48.48 55.26C48.5 52.07 49.55 49.23 51.57 46.76C51.83 46.44 51.91 46.18 51.81 45.76C50.28 39.66 54.18 33.65 60.36 32.55C65.58 31.62 70.9 35.25 72.13 40.59C72.53 42.33 72.53 44.07 72.08 45.8C71.98 46.17 72.05 46.41 72.29 46.7C78.67 54.49 74.81 66.02 65.03 68.39C64.02 68.63 62.97 68.69 61.94 68.84V68.85ZM72.8 55.29C72.79 49.32 67.91 44.45 61.95 44.45C55.99 44.45 51.11 49.34 51.11 55.3C51.11 61.28 55.97 66.13 61.96 66.12C67.95 66.12 72.81 61.26 72.8 55.28V55.29ZM69.69 44.22C70.25 41.2 68.66 37.83 65.95 36.17C63.25 34.52 59.82 34.71 57.29 36.63C54.83 38.5 53.72 41.75 54.26 44.2C59.39 41 64.52 41.01 69.69 44.22Z" fill="#2CB34A"/>
<path d="M61.96 48.52C63.99 48.6 65.53 49.52 66.38 51.41C67.22 53.27 66.89 55.02 65.62 56.61C65.42 56.86 65.3 57.22 65.26 57.54C65.19 58.08 65.27 58.65 65.2 59.19C64.96 60.94 63.51 62.15 61.8 62.07C60.1 61.99 58.77 60.64 58.67 58.88C58.67 58.76 58.66 58.64 58.67 58.53C58.74 57.63 58.56 56.88 57.97 56.1C56.82 54.58 56.77 52.83 57.67 51.13C58.56 49.44 60.03 48.6 61.97 48.52H61.96ZM61.29 57.46C61.29 57.83 61.29 58.21 61.29 58.58C61.29 59.05 61.44 59.44 61.97 59.43C62.46 59.43 62.61 59.05 62.61 58.6C62.61 57.97 62.63 57.34 62.61 56.71C62.58 56.05 62.79 55.55 63.34 55.14C64.26 54.44 64.47 53.24 63.89 52.28C63.38 51.43 62.61 51.06 61.64 51.19C60.72 51.31 60.09 51.86 59.82 52.74C59.52 53.69 59.78 54.52 60.55 55.12C61.11 55.56 61.34 56.07 61.3 56.75C61.28 56.99 61.3 57.22 61.3 57.46H61.29Z" fill="#2CB34A"/>
</g>
<defs>
<clipPath id="clip0_646_578">
<rect width="90.07" height="105" fill="white"/>
</clipPath>
</defs>
</svg>
