<svg width="77" height="105" viewBox="0 0 77 105" fill="none" xmlns="http://www.w3.org/2000/svg">
<g clip-path="url(#clip0_669_1003)">
<path d="M46.0236 51.6759C46.0236 46.2383 46.0179 40.8007 46.0236 35.3631C46.0236 33.3414 47.3056 31.796 49.2571 31.4253C49.5067 31.3768 49.7705 31.374 50.0258 31.374C55.7837 31.374 61.5416 31.374 67.2995 31.3654C67.7221 31.3654 68.0511 31.4766 68.3433 31.796C71.1088 34.8042 73.8828 37.8067 76.6625 40.8036C76.9489 41.1144 77 41.4594 77 41.85C76.9972 49.2066 76.9972 56.5632 76.9972 63.9199C76.9972 65.2458 77 66.5688 76.9972 67.8947C76.9887 70.3156 75.3407 71.9722 72.9411 71.9722C65.3197 71.9722 57.6982 71.9722 50.0768 71.9722C47.6772 71.9722 46.0264 70.3127 46.0236 67.8947C46.0207 62.4885 46.0236 57.0794 46.0236 51.6731V51.6759ZM47.8048 51.6588C47.8048 57.0366 47.8048 62.4143 47.8048 67.7921C47.8048 69.3318 48.6331 70.1701 50.1591 70.1701C57.7209 70.1701 65.2828 70.1701 72.8475 70.1701C74.399 70.1701 75.2187 69.3347 75.2187 67.7636C75.2187 59.292 75.2187 50.8234 75.2244 42.3519C75.2244 42.0411 75.1422 41.813 74.9294 41.582C72.4504 38.9074 69.9742 36.2299 67.5122 33.5382C67.2626 33.2645 67.0102 33.1675 66.6499 33.1704C61.1785 33.1818 55.7071 33.2046 50.2385 33.1618C48.6841 33.1504 47.785 34.1912 47.7935 35.6169C47.8304 40.9632 47.8077 46.3125 47.8077 51.6588H47.8048Z" fill="#2CB34A"/>
<path d="M61.482 65.1973C59.0427 65.1973 56.6034 65.1973 54.1641 65.1973C52.4254 65.1973 51.2426 64.0197 51.2426 62.2832C51.2397 58.6875 51.2397 55.0948 51.2426 51.4992C51.2426 49.7513 52.414 48.5708 54.1499 48.5708C59.0597 48.5679 63.9667 48.5679 68.8765 48.5708C70.6067 48.5708 71.7753 49.757 71.7782 51.5077C71.781 55.0862 71.781 58.6676 71.7782 62.2461C71.7782 64.0225 70.6096 65.1973 68.8453 65.1973C66.3918 65.1973 63.9355 65.1973 61.482 65.1973ZM53.0465 55.9787C53.2564 55.9787 53.4181 55.9787 53.5798 55.9787C54.9441 55.9787 56.3056 55.9787 57.6699 55.9787C58.4811 55.9787 58.7874 56.2924 58.7874 57.1164C58.7874 59.0354 58.7874 60.9544 58.7874 62.8734C58.7874 63.0331 58.7874 63.1956 58.7874 63.3638H63.7171V50.39C60.4212 50.39 57.165 50.3843 53.9116 50.3957C53.4096 50.3957 53.055 50.8063 53.0522 51.3338C53.0408 52.8564 53.0494 54.3791 53.0494 55.9787H53.0465ZM56.9636 63.3724V57.815H53.055C53.055 59.4175 53.038 60.9972 53.0664 62.5769C53.0749 63.0131 53.3982 63.341 53.8265 63.3581C54.8647 63.4009 55.9085 63.3724 56.9608 63.3724H56.9636ZM69.9714 54.2935C69.9714 53.2556 69.9856 52.2662 69.9657 51.2796C69.9544 50.7692 69.5714 50.4071 69.0552 50.39C68.5418 50.3729 68.0256 50.3843 67.5122 50.3843C66.8683 50.3843 66.2245 50.3843 65.5778 50.3843V54.2935H69.9685H69.9714ZM69.9515 56.1156C68.539 56.1156 67.1633 56.1127 65.7877 56.127C65.7054 56.127 65.5523 56.2781 65.5523 56.3608C65.5352 57.2847 65.5409 58.2085 65.5409 59.1523H69.9515V56.1127V56.1156ZM65.5579 63.3781C66.7691 63.3781 67.932 63.3895 69.0921 63.3724C69.5346 63.3667 69.8721 63.093 69.9288 62.671C69.9997 62.1263 69.9459 61.5646 69.9459 61.0228H65.5579V63.3781Z" fill="#2CB34A"/>
<path d="M24.5973 93.7997C23.2047 93.8111 22.3934 94.5268 22.4076 95.656C22.4218 96.7195 23.233 97.5094 24.4924 97.5151C26.9033 97.5293 29.3171 97.535 31.7281 97.535C34.1419 97.535 36.5528 97.5293 38.9637 97.5151C40.2231 97.5094 41.0343 96.7195 41.0485 95.656C41.0627 94.5268 40.2486 93.8111 38.8588 93.7997C36.4819 93.7797 34.105 93.794 31.7281 93.794C29.3512 93.794 26.9742 93.7797 24.5973 93.7997Z" fill="#2CB34A"/>
<path d="M59.6639 86.1266H3.79512V15.1067H59.6639V26.4753H63.4561C63.4561 18.5712 63.4561 10.6699 63.4561 2.76586C63.4561 0.530361 62.9314 0 60.7077 0C51.0469 0 41.3889 0 31.7281 0C22.0673 0 12.4093 0 2.74848 0C0.524736 0 0 0.530361 0 2.76586C0 35.9248 0 69.0837 0 102.24C0 104.467 0.530409 104.997 2.75699 104.997C12.415 104.997 22.0701 104.997 31.7281 104.997C41.386 104.997 51.0412 104.997 60.6992 104.997C62.9257 104.997 63.4561 104.467 63.4561 102.24C63.4561 93.7199 63.4561 85.1999 63.4561 76.6799H59.6639V86.1266ZM3.81497 3.81803H59.6468V11.092H3.81497V3.81803ZM59.6298 101.222H3.83199V90.0986H59.6298V101.222Z" fill="#2CB34A"/>
</g>
<defs>
<clipPath id="clip0_669_1003">
<rect width="77" height="105" fill="white"/>
</clipPath>
</defs>
</svg>
