<svg width="45" height="52" viewBox="0 0 45 52" fill="none" xmlns="http://www.w3.org/2000/svg">
<g clip-path="url(#clip0_746_480)">
<path d="M31.8728 39.0182V39.7816C31.8728 43.3805 31.8728 46.9793 31.8728 50.5782C31.8728 51.7375 31.6161 52 30.4672 52C20.7868 52 11.1023 52 1.42191 52C0.252603 52 0 51.7496 0 50.5984C0 34.1995 0 17.8046 0 1.40562C0 0.250427 0.252603 0 1.41376 0C11.0942 0 20.7786 0 30.459 0C31.612 0 31.8687 0.258506 31.8687 1.4137C31.8687 4.40267 31.8687 7.3876 31.8687 10.3766C31.8687 10.631 31.8687 10.8855 31.8687 11.1319C38.8846 11.56 44.6904 17.3805 44.9878 24.6469C45.2404 30.8712 40.3228 38.4527 31.8687 39.0141L31.8728 39.0182ZM1.90675 42.6534H29.962V38.9657C26.3522 38.6425 23.2558 37.2571 20.7664 34.664C18.2608 32.0506 16.9529 28.9203 16.8837 25.3012C16.8266 22.3405 17.6415 19.6262 19.3567 17.2027C21.9316 13.5594 25.5292 11.6126 29.9538 11.1642V7.48454H1.90675V42.6534ZM18.7619 25.0468C18.7497 31.7073 24.1969 37.1359 30.9031 37.1521C37.589 37.1682 43.0973 31.7316 43.1177 25.0993C43.1381 18.467 37.6582 13.0222 30.952 13.0061C24.2295 12.9939 18.7741 18.3862 18.7619 25.0468ZM1.92712 44.6205V50.1016H29.9538V44.6205H1.92712ZM29.962 1.89436H1.91897V5.4892H29.962V1.89436Z" fill="#2CB34A"/>
<path d="M15.9751 46.4501C17.1607 46.4501 18.3463 46.442 19.5319 46.4501C20.2205 46.4582 20.6605 46.8298 20.6116 47.3832C20.5546 47.9971 20.1594 48.292 19.5523 48.292C17.1363 48.296 14.7162 48.296 12.3002 48.292C11.6931 48.292 11.302 47.989 11.2571 47.371C11.2164 46.8136 11.6523 46.4582 12.349 46.4501C13.5591 46.442 14.7651 46.4501 15.9751 46.4501Z" fill="#2CB34A"/>
<path d="M38.4119 23.1484C38.0942 22.7566 37.6378 22.5668 37.1163 22.6031C37.0145 22.6112 36.9086 22.6112 36.8026 22.6071V21.2338C36.8026 20.7653 36.6071 20.5755 36.1304 20.5755H33.144V20.1998C33.144 19.7676 32.9362 19.5657 32.5043 19.5657C31.172 19.5657 29.8397 19.5657 28.5075 19.5657C28.0471 19.5657 27.8515 19.7636 27.8515 20.224V22.6112C27.7211 22.6112 27.603 22.6112 27.4808 22.6112C27.4441 22.5021 27.4156 22.3931 27.3871 22.28L26.3563 18.4428C26.1892 17.8288 25.7329 17.4774 25.1055 17.4734C24.5758 17.4734 24.0462 17.4734 23.5165 17.4734H23.3821C23.0113 17.4734 22.7669 17.6794 22.7628 18.0025C22.7628 18.1479 22.8117 18.2772 22.9054 18.3741C23.0154 18.4872 23.1784 18.5478 23.3739 18.5478H25.0444C25.2562 18.5478 25.2766 18.564 25.3255 18.7578L27.3504 26.2989C27.5337 26.9735 27.7171 27.652 27.9004 28.3306L28.0715 28.9567C27.493 29.2596 27.2037 29.7807 27.2485 30.4391C27.2933 31.0974 27.656 31.5741 28.2752 31.7962C28.1 32.4909 28.2589 33.0201 28.756 33.4119C29.0249 33.6219 29.3427 33.7269 29.6646 33.7269C29.9294 33.7269 30.1983 33.6542 30.4387 33.5088C30.9968 33.1695 31.1842 32.6889 31.0661 31.877H34.5373C34.3459 32.5636 34.6922 33.2947 35.3726 33.5856C36.0937 33.8925 36.9371 33.5896 37.2834 32.8949C37.6297 32.2042 37.3689 31.3923 36.6763 31.0086C36.4196 30.8672 36.1344 30.7945 35.833 30.7945H32.9239C31.555 30.7945 30.1861 30.7945 28.8171 30.7985C28.593 30.7985 28.4667 30.7339 28.3852 30.5804C28.2997 30.4229 28.3038 30.2452 28.3934 30.0998C28.4789 29.9584 28.6297 29.8776 28.7927 29.8776C30.6057 29.8938 32.4147 29.8897 34.2277 29.8897H35.9674C36.7008 29.8897 37.2467 29.4979 37.4586 28.8234C37.8904 27.4582 38.3101 26.0929 38.7257 24.7237C38.8846 24.2066 38.7623 23.5927 38.4119 23.1645V23.1484ZM28.9353 22.591V20.6441H32.0521V22.591H28.9353ZM33.1562 22.591V21.6539H35.7189V22.591H33.1562ZM29.0208 28.3508L27.766 23.6735H37.0878C37.3282 23.6735 37.5197 23.7502 37.6215 23.8876C37.7275 24.0289 37.7438 24.239 37.6704 24.4773C37.4952 25.0508 37.316 25.6284 37.1367 26.202L36.8434 27.1512C36.713 27.5753 36.5826 27.9994 36.4482 28.4235C36.3545 28.7224 36.2445 28.8032 35.9267 28.8032H29.6075C29.2286 28.8032 29.1186 28.7184 29.0208 28.3589V28.3508ZM29.6605 32.6364C29.6605 32.6364 29.6564 32.6364 29.6523 32.6364C29.5464 32.6364 29.4486 32.5919 29.3753 32.5192C29.3019 32.4425 29.2612 32.3375 29.2653 32.2244C29.2734 32.0184 29.4486 31.8487 29.6605 31.8487C29.7664 31.8487 29.8642 31.8931 29.9416 31.9699C30.0149 32.0466 30.0557 32.1476 30.0516 32.2526C30.0435 32.4667 29.8723 32.6364 29.6564 32.6364H29.6605ZM35.9511 32.6121C35.727 32.6121 35.56 32.4546 35.56 32.2446C35.56 32.1476 35.5966 32.0547 35.6659 31.9901C35.7392 31.9174 35.8452 31.877 35.9552 31.877H35.9633C36.0733 31.877 36.1752 31.9214 36.2485 31.9982C36.3178 32.0668 36.3504 32.1557 36.3504 32.2486C36.3463 32.4546 36.163 32.6283 35.947 32.6121H35.9511Z" fill="#2CB34A"/>
</g>
<defs>
<clipPath id="clip0_746_480">
<rect width="45" height="52" fill="white"/>
</clipPath>
</defs>
</svg>
