<svg width="45" height="52" viewBox="0 0 45 52" fill="none" xmlns="http://www.w3.org/2000/svg">
<path d="M31.6225 11.1497C38.6903 11.6897 44.3604 17.3757 44.5987 24.6182C44.7257 28.3348 43.5028 31.6066 41.0092 34.3702C38.5156 37.1338 35.3867 38.6268 31.6066 38.9762C31.6066 39.2621 31.6066 39.5162 31.6066 39.7544C31.6066 43.3757 31.6066 46.9969 31.6066 50.6182C31.6066 51.73 31.3366 52 30.2407 52C20.6158 52 10.9908 52 1.36591 52C0.254123 52 0 51.73 0 50.6341C0 34.2114 0 17.7886 0 1.36591C0 0.254124 0.254123 0 1.36591 0C10.9908 0 20.6158 0 30.2407 0C31.3366 0 31.6066 0.270006 31.6066 1.3818C31.6066 4.36775 31.6066 7.3537 31.6066 10.3396C31.6066 10.5938 31.6066 10.8479 31.6066 11.1497H31.6225ZM1.90593 42.661H29.7324V38.9762C26.1588 38.6585 23.0776 37.2608 20.6158 34.672C18.1381 32.0513 16.8357 28.9224 16.7721 25.3012C16.7245 22.347 17.5186 19.631 19.2181 17.201C21.7752 13.5638 25.3329 11.6103 29.7324 11.1655V7.48076H1.90593V42.661ZM18.6145 25.0629C18.6145 31.7178 24.0147 37.1497 30.6695 37.1497C37.2926 37.1497 42.7563 31.7019 42.7563 25.0788C42.7563 18.4398 37.3244 13.0079 30.6695 13.0079C24.0147 13.0079 18.5987 18.4081 18.5987 25.0629H18.6145ZM29.7166 50.1258V44.6145H1.93769V50.1258H29.7166ZM29.7166 1.89004H1.92181V5.49542H29.7324V1.89004H29.7166Z" fill="#2CB34A"/>
<path d="M29.7165 26.0001C28.7954 26.0001 27.9536 26.0001 27.1118 26.0001C26.3971 26.0001 26.0476 25.6665 26.0318 24.9677C26.0159 23.173 26.0159 21.3941 26.0318 19.5993C26.0318 18.9005 26.3812 18.5829 27.0959 18.567C27.9377 18.5511 28.7795 18.567 29.6848 18.567C29.8595 17.8364 29.4942 16.6928 30.7172 16.7405C31.7972 16.7722 31.5589 17.7728 31.6542 18.567C32.5437 18.567 33.4013 18.5511 34.259 18.567C34.9896 18.5829 35.4184 19.0911 35.2755 19.6946C35.1484 20.2347 34.7355 20.4252 34.2114 20.4252C33.3696 20.4252 32.5278 20.4252 31.6384 20.4252V24.1577C32.496 24.1577 33.3219 24.1577 34.1637 24.1577C34.9737 24.1577 35.2755 24.4595 35.2914 25.2536C35.2914 27.0007 35.2914 28.7319 35.2914 30.479C35.2914 31.2255 34.9737 31.5431 34.2114 31.559C33.3696 31.5749 32.5278 31.559 31.6542 31.559C31.4954 32.3373 31.8131 33.4332 30.5901 33.3855C29.5101 33.3379 29.796 32.369 29.6848 31.559C29.0654 31.559 28.4459 31.559 27.8265 31.559C27.5247 31.559 27.2071 31.559 26.9053 31.559C26.3494 31.5273 26.0318 31.1937 26.0159 30.6537C26.0159 30.1137 26.3494 29.7643 26.8894 29.7325C27.62 29.6849 28.3506 29.7325 29.0812 29.7166C29.2718 29.7166 29.4465 29.7007 29.6848 29.6849V26.016L29.7165 26.0001ZM29.7165 20.4729H27.9218V24.11H29.7165V20.4729ZM33.4331 29.6849V26.0318H31.6701V29.6849H33.4331Z" fill="#2CB34A"/>
<path d="M15.8668 46.457C17.0421 46.457 18.2175 46.457 19.3928 46.457C20.0122 46.457 20.3934 46.7112 20.4569 47.3306C20.5205 47.8706 20.0599 48.2994 19.4087 48.2994C17.0104 48.2994 14.6121 48.2994 12.2138 48.2994C11.5785 48.2994 11.1814 47.9024 11.1814 47.3782C11.1814 46.8223 11.5785 46.457 12.2773 46.457C13.4685 46.457 14.6756 46.457 15.8668 46.457Z" fill="#2CB34A"/>
</svg>
