<svg width="11" height="18" viewBox="0 0 11 18" fill="none" xmlns="http://www.w3.org/2000/svg">
<path d="M2.36397 17.6092V10.9068H0.183655V7.2729H2.60623V6.22312C2.60623 4.12355 2.60623 1.62022 5.02881 0.812699C5.59408 0.651194 6.07859 0.570442 6.64386 0.489689C7.20913 0.408937 7.77439 0.408937 8.33966 0.408937C8.42041 0.408937 10.0355 0.328184 10.0355 0.408937V4.12355C10.0355 4.12355 8.66267 4.12355 8.50117 4.12355C7.9359 4.12355 7.28988 4.20431 6.96687 4.76957C6.72461 5.17334 6.64386 5.73861 6.5631 6.22312C6.5631 6.30387 6.56311 7.2729 6.64386 7.2729H9.6317V10.9875H6.64386V17.5285H2.36397V17.6092Z" fill="white"/>
</svg>
