<svg width="42" height="38" viewBox="0 0 42 38" fill="none" xmlns="http://www.w3.org/2000/svg">
<g clip-path="url(#clip0_746_505)">
<path d="M36.2793 10.2138C37.3516 10.2138 38.3491 10.2138 39.3516 10.2138C41.0474 10.2138 42 11.1839 42 12.8929C42 19.9601 42 27.0272 42 34.0995C42 36.4368 40.4539 38 38.1446 38C26.7132 38 15.2868 38 3.85536 38C1.54115 38 0 36.4418 0 34.0995C0 24.0013 0 13.9032 0 3.80503C0 1.4828 1.4813 0 3.8005 0C6.49875 0 9.202 0.0100529 11.9003 0C12.9825 0 13.8853 0.371958 14.6334 1.15106C15.616 2.17143 16.6135 3.17169 17.581 4.20714C18.1047 4.76508 18.7182 5.0164 19.4813 5.0164C23.7756 5.00635 28.0748 5.06667 32.3691 4.99127C34.7481 4.95106 36.4289 6.73042 36.2843 8.9672C36.2594 9.35423 36.2843 9.7463 36.2843 10.2138H36.2793ZM6.61845 36.472C6.89776 36.472 7.06234 36.472 7.23192 36.472C17.5012 36.472 27.7706 36.472 38.0449 36.472C39.7107 36.472 40.5337 35.6376 40.5387 33.9436C40.5486 26.9619 40.5586 19.9852 40.5636 13.0034C40.5636 11.9881 40.3092 11.7267 39.3017 11.7267C29.0673 11.7267 18.8279 11.7267 8.59352 11.7267C7.57606 11.7267 7.33666 11.973 7.33666 12.9934C7.33666 19.8696 7.33666 26.7508 7.34165 33.627C7.34165 34.6021 7.26185 35.537 6.62344 36.4669L6.61845 36.472ZM34.7631 10.2138C34.7631 9.64577 34.7631 9.14815 34.7631 8.65555C34.7481 7.38386 33.9202 6.54444 32.6484 6.52937C31.6958 6.51931 30.7481 6.52937 29.7955 6.52937C26.399 6.52937 23.0025 6.51931 19.606 6.53439C18.399 6.53942 17.3965 6.14233 16.5686 5.24259C15.6459 4.2373 14.6733 3.28228 13.7357 2.28704C13.2369 1.75926 12.6534 1.51799 11.9252 1.52302C9.2419 1.5381 6.5586 1.52804 3.87531 1.52804C2.24938 1.52804 1.50623 2.27196 1.50623 3.90053C1.50623 13.8579 1.50623 23.8204 1.50623 33.7778C1.50623 34.0492 1.51122 34.3257 1.54613 34.5971C1.6808 35.6627 2.57855 36.4569 3.6409 36.4669C4.90773 36.482 5.81546 35.5169 5.81546 34.1447C5.81546 27.0775 5.81546 20.0103 5.81546 12.9431C5.81546 12.6717 5.81546 12.3902 5.87032 12.1288C6.13466 10.9124 7.08229 10.2188 8.46384 10.2188C16.9726 10.2188 25.4763 10.2188 33.985 10.2188H34.7631V10.2138Z" fill="#2CB34A"/>
</g>
<defs>
<clipPath id="clip0_746_505">
<rect width="42" height="38" fill="white"/>
</clipPath>
</defs>
</svg>
