<svg width="44" height="51" viewBox="0 0 44 51" fill="none" xmlns="http://www.w3.org/2000/svg">
<g clip-path="url(#clip0_746_500)">
<path d="M31.1645 38.2678V39.0165C31.1645 42.5462 31.1645 46.0759 31.1645 49.6056C31.1645 50.7425 30.9135 51 29.7901 51C20.3249 51 10.8556 51 1.39031 51C0.24699 51 0 50.7544 0 49.6254C0 33.5418 0 17.4622 0 1.37859C0 0.245611 0.24699 0 1.38235 0C10.8476 0 20.3169 0 29.7822 0C30.9096 0 31.1605 0.253534 31.1605 1.38652C31.1605 4.31801 31.1605 7.24553 31.1605 10.177C31.1605 10.4266 31.1605 10.6762 31.1605 10.9178C38.0205 11.3377 43.6972 17.0462 43.9881 24.1729C44.235 30.2775 39.4267 37.7132 31.1605 38.2639L31.1645 38.2678ZM1.86437 41.8331H29.2962V38.2163C25.7666 37.8994 22.739 36.5406 20.3049 33.9974C17.855 31.4343 16.5762 28.3641 16.5085 24.8147C16.4527 21.9109 17.2494 19.2488 18.9266 16.8719C21.4443 13.2987 24.9619 11.3892 29.2882 10.9495V7.34061H1.86437V41.8331ZM18.345 24.5651C18.333 31.0976 23.6592 36.4218 30.2164 36.4376C36.7536 36.4535 42.1396 31.1213 42.1595 24.6166C42.1795 18.1119 36.8214 12.7718 30.2642 12.7559C23.6911 12.7441 18.3569 18.0326 18.345 24.5651ZM1.88429 43.7624V49.1381H29.2882V43.7624H1.88429ZM29.2962 1.85793H1.87632V5.38364H29.2962V1.85793Z" fill="#2CB34A"/>
<path d="M15.6201 45.557C16.7794 45.557 17.9386 45.5491 19.0979 45.557C19.7711 45.5649 20.2014 45.9294 20.1536 46.4721C20.0978 47.0742 19.7114 47.3634 19.1178 47.3634C16.7555 47.3674 14.3891 47.3674 12.0268 47.3634C11.4332 47.3634 11.0508 47.0663 11.007 46.4602C10.9671 45.9135 11.3934 45.5649 12.0746 45.557C13.2578 45.5491 14.4369 45.557 15.6201 45.557Z" fill="#2CB34A"/>
<path d="M23.7548 24.4502C23.0856 24.371 22.8027 23.8996 22.8226 23.3688C22.8465 22.6121 22.8266 21.8555 22.8306 21.0988C22.8306 20.4729 23.2091 20.1005 23.8385 20.1005C24.5635 20.1005 25.2885 20.1005 26.0176 20.1005C26.0733 20.1005 26.1291 20.1005 26.1809 20.1005C26.1809 20.0887 26.1889 20.0768 26.1928 20.0649C26.1092 20.0094 26.0215 19.954 25.9379 19.9025C25.4081 19.5816 24.8742 19.2686 24.3444 18.9438C24.0217 18.7457 23.9779 18.3773 24.2408 18.1277C24.4201 17.9574 24.6193 17.9415 24.8623 18.0881C25.5116 18.4763 26.165 18.8685 26.8143 19.2607C26.8741 19.2964 26.9338 19.328 27.0055 19.3677C26.9816 18.4644 27.3481 17.8029 28.1847 17.4662C28.9695 17.1492 29.6587 17.3632 30.2522 17.9534C30.8697 17.3394 31.5908 17.1374 32.3955 17.4939C33.1882 17.8425 33.5229 18.5001 33.499 19.3637C33.5547 19.336 33.6025 19.3162 33.6424 19.2884C34.3116 18.8844 34.9809 18.4803 35.6541 18.0802C36.0047 17.8702 36.3991 18.0723 36.431 18.4724C36.4509 18.6942 36.3314 18.8408 36.1521 18.9517C35.5944 19.2845 35.0407 19.6212 34.4829 19.954C34.4272 19.9896 34.3674 20.0213 34.3196 20.0887C34.3754 20.0887 34.4272 20.0966 34.4829 20.0966C35.2159 20.0966 35.945 20.0966 36.678 20.0966C37.2954 20.0966 37.6739 20.4729 37.6739 21.0909C37.6739 21.8594 37.6739 22.628 37.6739 23.3965C37.6739 24.0145 37.3871 24.3472 36.7457 24.4463C36.7457 24.5136 36.7457 24.5849 36.7457 24.6562C36.7457 26.4864 36.7457 28.3166 36.7457 30.1468C36.7457 30.9708 36.3951 31.5888 35.6302 31.9255C35.3753 32.0365 35.0685 32.084 34.7857 32.084C32.7142 32.0959 30.6387 32.0919 28.5671 32.0919C27.5752 32.0919 26.5833 32.0998 25.5873 32.0919C24.691 32.084 23.962 31.4779 23.7867 30.6024C23.7548 30.44 23.7508 30.2696 23.7508 30.1033C23.7508 28.2889 23.7508 26.4785 23.7508 24.6642V24.4502H23.7548ZM28.2126 31.1729V24.4463H24.679C24.679 24.5136 24.679 24.573 24.679 24.6285C24.679 26.4627 24.679 28.3008 24.679 30.1349C24.679 30.7965 25.0495 31.1689 25.7108 31.1689C26.4837 31.1689 27.2565 31.1689 28.0254 31.1689H28.2126V31.1729ZM32.2839 31.1729C32.3596 31.1729 32.4154 31.1729 32.4751 31.1729C33.248 31.1729 34.0208 31.1729 34.7897 31.1729C35.451 31.1729 35.8215 30.8005 35.8215 30.1389C35.8215 28.3047 35.8215 26.4666 35.8215 24.6325C35.8215 24.573 35.8215 24.5097 35.8215 24.4423H32.2839V31.1689V31.1729ZM31.2601 31.161V21.0315H29.2444V31.161H31.2601ZM32.2839 23.4995C32.3397 23.5034 32.3795 23.5074 32.4194 23.5074C33.6822 23.5074 34.949 23.5074 36.2119 23.5074C36.2517 23.5074 36.2915 23.5074 36.3354 23.4995C36.5505 23.4757 36.7297 23.3252 36.7337 23.1113C36.7457 22.5131 36.7417 21.9109 36.7297 21.3127C36.7258 21.0988 36.5983 21.0077 36.3871 21.0077C35.0885 21.0077 33.7898 21.0117 32.4911 21.0156C32.4234 21.0156 32.3556 21.0156 32.2879 21.0156V23.4955L32.2839 23.4995ZM28.2166 21.0196C28.1409 21.0196 28.0732 21.0196 28.0054 21.0196C26.7466 21.0196 25.4837 21.0196 24.2249 21.0196C23.8544 21.0196 23.7588 21.1028 23.7588 21.4752C23.7588 21.9585 23.7588 22.4457 23.7588 22.929C23.7588 23.3608 23.9142 23.5114 24.3484 23.5153C25.5754 23.5153 26.7984 23.5153 28.0254 23.5153H28.2206V21.0236L28.2166 21.0196ZM28.854 18.2545C28.3401 18.2545 27.9218 18.6744 27.9297 19.1815C27.9377 19.6846 28.352 20.0966 28.854 20.0966C29.3599 20.0966 29.7861 19.6767 29.7901 19.1736C29.7901 18.6665 29.3718 18.2505 28.8579 18.2545H28.854ZM31.6346 18.2545C31.1207 18.2545 30.7024 18.6784 30.7104 19.1854C30.7183 19.6846 31.1366 20.0966 31.6386 20.1005C32.1485 20.1005 32.5708 19.6806 32.5708 19.1736C32.5708 18.6625 32.1525 18.2505 31.6346 18.2545Z" fill="#2CB34A"/>
</g>
<defs>
<clipPath id="clip0_746_500">
<rect width="44" height="51" fill="white"/>
</clipPath>
</defs>
</svg>
