<svg width="45" height="52" viewBox="0 0 45 52" fill="none" xmlns="http://www.w3.org/2000/svg">
<path d="M31.6225 11.1497C38.6903 11.6897 44.3604 17.3757 44.5987 24.6182C44.7257 28.3348 43.5028 31.6066 41.0092 34.3702C38.5156 37.1338 35.3867 38.6268 31.6066 38.9762C31.6066 39.2621 31.6066 39.5162 31.6066 39.7544C31.6066 43.3757 31.6066 46.9969 31.6066 50.6182C31.6066 51.73 31.3366 52 30.2407 52C20.6158 52 10.9908 52 1.36591 52C0.254123 52 0 51.73 0 50.6341C0 34.2114 0 17.7886 0 1.36591C0 0.254124 0.254123 0 1.36591 0C10.9908 0 20.6158 0 30.2407 0C31.3366 0 31.6066 0.270006 31.6066 1.3818C31.6066 4.36775 31.6066 7.3537 31.6066 10.3396C31.6066 10.5938 31.6066 10.8479 31.6066 11.1497H31.6225ZM1.90593 42.661H29.7324V38.9762C26.1588 38.6585 23.0776 37.2608 20.6158 34.672C18.1381 32.0513 16.8357 28.9224 16.7721 25.3012C16.7245 22.347 17.5186 19.631 19.2181 17.201C21.7752 13.5638 25.3329 11.6103 29.7324 11.1655V7.48076H1.90593V42.661ZM18.6145 25.0629C18.6145 31.7178 24.0147 37.1497 30.6695 37.1497C37.2926 37.1497 42.7563 31.7019 42.7563 25.0788C42.7563 18.4398 37.3244 13.0079 30.6695 13.0079C24.0147 13.0079 18.5987 18.4081 18.5987 25.0629H18.6145ZM29.7166 50.1258V44.6145H1.93769V50.1258H29.7166ZM29.7166 1.89004H1.92181V5.49542H29.7324V1.89004H29.7166Z" fill="#2CB34A"/>
<path d="M29.7165 26C28.7953 26 27.9536 26 27.1118 26C26.3971 26 26.0476 25.6664 26.0318 24.9676C26.0159 23.1728 26.0159 21.394 26.0318 19.5992C26.0318 18.9004 26.3812 18.5827 27.0959 18.5668C27.9377 18.551 28.7795 18.5668 29.6848 18.5668C29.8595 17.8362 29.4942 16.6927 30.7172 16.7403C31.7972 16.7721 31.5589 17.7727 31.6542 18.5668C32.5437 18.5668 33.4013 18.551 34.259 18.5668C34.9896 18.5827 35.4184 19.091 35.2755 19.6945C35.1484 20.2345 34.7355 20.4251 34.2114 20.4251C33.3696 20.4251 32.5278 20.4251 31.6383 20.4251V24.1576C32.496 24.1576 33.3219 24.1576 34.1637 24.1576C34.9737 24.1576 35.2755 24.4593 35.2914 25.2535C35.2914 27.0006 35.2914 28.7318 35.2914 30.4789C35.2914 31.2254 34.9737 31.543 34.2114 31.5589C33.3696 31.5748 32.5278 31.5589 31.6542 31.5589C31.4954 32.3372 31.8131 33.4331 30.5901 33.3854C29.5101 33.3378 29.796 32.3689 29.6848 31.5589C29.0653 31.5589 28.4459 31.5589 27.8265 31.5589C27.5247 31.5589 27.2071 31.5589 26.9053 31.5589C26.3494 31.5271 26.0318 31.1936 26.0159 30.6536C26.0159 30.1136 26.3494 29.7642 26.8894 29.7324C27.62 29.6847 28.3506 29.7324 29.0812 29.7165C29.2718 29.7165 29.4465 29.7006 29.6848 29.6847V26.0158L29.7165 26ZM29.7165 20.4728H27.9218V24.1099H29.7165V20.4728ZM33.4331 29.6847V26.0317H31.6701V29.6847H33.4331Z" fill="#2CB34A"/>
<path d="M15.8668 46.457C17.0421 46.457 18.2174 46.457 19.3928 46.457C20.0122 46.457 20.3934 46.7112 20.4569 47.3306C20.5204 47.8706 20.0598 48.2994 19.4086 48.2994C17.0104 48.2994 14.6121 48.2994 12.2138 48.2994C11.5785 48.2994 11.1814 47.9024 11.1814 47.3782C11.1814 46.8223 11.5785 46.457 12.2773 46.457C13.4685 46.457 14.6756 46.457 15.8668 46.457Z" fill="#2CB34A"/>
</svg>
