<svg width="45" height="52" viewBox="0 0 45 52" fill="none" xmlns="http://www.w3.org/2000/svg">
<path d="M31.6225 11.1497C38.6903 11.6897 44.3604 17.3757 44.5987 24.6182C44.7257 28.3348 43.5028 31.6066 41.0092 34.3702C38.5156 37.1338 35.3867 38.6268 31.6066 38.9762C31.6066 39.2621 31.6066 39.5162 31.6066 39.7544C31.6066 43.3757 31.6066 46.9969 31.6066 50.6182C31.6066 51.73 31.3366 52 30.2407 52C20.6158 52 10.9908 52 1.36591 52C0.254123 52 0 51.73 0 50.6341C0 34.2114 0 17.7886 0 1.36591C0 0.254124 0.254123 0 1.36591 0C10.9908 0 20.6158 0 30.2407 0C31.3366 0 31.6066 0.270006 31.6066 1.3818C31.6066 4.36775 31.6066 7.3537 31.6066 10.3396C31.6066 10.5938 31.6066 10.8479 31.6066 11.1497H31.6225ZM1.90593 42.661H29.7324V38.9762C26.1588 38.6585 23.0776 37.2608 20.6158 34.672C18.1381 32.0513 16.8357 28.9224 16.7721 25.3012C16.7245 22.347 17.5186 19.631 19.2181 17.201C21.7752 13.5638 25.3329 11.6103 29.7324 11.1655V7.48076H1.90593V42.661ZM18.6145 25.0629C18.6145 31.7178 24.0147 37.1497 30.6695 37.1497C37.2926 37.1497 42.7563 31.7019 42.7563 25.0788C42.7563 18.4398 37.3244 13.0079 30.6695 13.0079C24.0147 13.0079 18.5987 18.4081 18.5987 25.0629H18.6145ZM29.7166 50.1258V44.6145H1.93769V50.1258H29.7166ZM29.7166 1.89004H1.92181V5.49542H29.7324V1.89004H29.7166Z" fill="#2CB34A"/>
<g clip-path="url(#clip0_659_618)">
<path d="M40 25.5112C39.9889 30.7697 35.7474 35.0056 30.4945 35C25.2359 35 20.9833 30.7306 21 25.4777C21.0168 20.2191 25.2695 15.9888 30.5168 16C35.7753 16.0112 40.0056 20.2583 40 25.5112ZM33.3389 24.8294C33.1098 22.1415 32.1765 19.7777 30.4945 17.6765C28.8124 19.7944 27.8736 22.1583 27.6556 24.8294H33.3389ZM30.5 33.3291C32.1821 31.2112 33.1153 28.8474 33.3389 26.1818H27.6612C27.8848 28.853 28.818 31.2112 30.5 33.3291ZM32.02 17.4753C32.808 18.5818 33.4171 19.733 33.8642 20.968C34.3112 22.2141 34.5739 23.4994 34.68 24.8238H38.6198C38.5359 21.795 36.0492 18.2018 32.02 17.4697V17.4753ZM32.0089 33.5471C34.0765 33.1168 35.7195 32.1165 36.9768 30.5015C37.9603 29.233 38.5192 27.7968 38.6533 26.1762H34.68C34.4733 28.8697 33.6015 31.3062 32.0145 33.5471H32.0089ZM22.3748 24.8127H26.3312C26.5324 22.1136 27.4098 19.6883 28.9689 17.4865C25.4874 18.0565 22.5648 21.225 22.3748 24.8127ZM22.3748 26.165C22.5424 29.7694 25.5433 32.9771 28.9633 33.5024C27.3986 31.295 26.5324 28.853 26.3256 26.165H22.3748Z" fill="#2CB34A"/>
</g>
<path d="M15.8668 46.457C17.0421 46.457 18.2175 46.457 19.3928 46.457C20.0122 46.457 20.3934 46.7112 20.4569 47.3306C20.5205 47.8706 20.0599 48.2994 19.4087 48.2994C17.0104 48.2994 14.6121 48.2994 12.2138 48.2994C11.5785 48.2994 11.1814 47.9024 11.1814 47.3782C11.1814 46.8223 11.5785 46.457 12.2773 46.457C13.4685 46.457 14.6756 46.457 15.8668 46.457Z" fill="#2CB34A"/>
<defs>
<clipPath id="clip0_659_618">
<rect width="19" height="19" fill="white" transform="translate(21 16)"/>
</clipPath>
</defs>
</svg>
