<svg width="18" height="18" viewBox="0 0 18 18" fill="none" xmlns="http://www.w3.org/2000/svg">
<path d="M12.4521 0.680664H4.78057C2.19649 0.680664 0.0969238 2.78023 0.0969238 5.36431V13.0358C0.0969238 15.6199 2.19649 17.7195 4.78057 17.7195H12.4521C15.0361 17.7195 17.1357 15.6199 17.1357 13.0358V5.44506C17.2165 2.86098 15.1169 0.680664 12.4521 0.680664ZM15.6822 13.1166C15.6822 14.8931 14.2286 16.3467 12.4521 16.3467H4.78057C3.00402 16.3467 1.55047 14.8931 1.55047 13.1166V5.44506C1.55047 3.66851 3.00402 2.21496 4.78057 2.21496H12.4521C14.2286 2.21496 15.6822 3.66851 15.6822 5.44506V13.1166Z" fill="white"/>
<path d="M8.65666 4.88037C6.23408 4.88037 4.21527 6.81843 4.21527 9.32176C4.21527 11.7443 6.15333 13.7632 8.65666 13.7632C11.0792 13.7632 13.0981 11.8251 13.0981 9.32176C13.0981 6.81843 11.0792 4.88037 8.65666 4.88037ZM8.65666 12.1481C7.04161 12.1481 5.74956 10.8561 5.74956 9.24101C5.74956 7.62596 7.04161 6.33392 8.65666 6.33392C10.2717 6.33392 11.5637 7.62596 11.5637 9.24101C11.5637 10.8561 10.2717 12.1481 8.65666 12.1481Z" fill="white"/>
<path d="M13.2596 3.58887C12.9366 3.58887 12.6943 3.66962 12.452 3.91188C12.2098 4.15414 12.129 4.39639 12.129 4.7194C12.129 5.04241 12.2098 5.28467 12.452 5.52693C12.6943 5.76919 12.9366 5.84994 13.2596 5.84994C13.5826 5.84994 13.8248 5.76919 14.0671 5.52693C14.3094 5.28467 14.3901 5.04241 14.3901 4.7194C14.3901 4.39639 14.3094 4.15414 14.0671 3.91188C13.8248 3.66962 13.5018 3.58887 13.2596 3.58887Z" fill="white"/>
</svg>
