<svg width="17" height="16" viewBox="0 0 17 16" fill="none" xmlns="http://www.w3.org/2000/svg">
<path d="M16.5607 9.6132V15.5081H13.1691V10.017C13.1691 8.64417 12.6846 7.67514 11.4733 7.67514C10.5043 7.67514 9.93901 8.32116 9.69675 8.88643C9.616 9.12869 9.616 9.37095 9.616 9.69396V15.4274H6.22439C6.22439 15.4274 6.30514 6.14084 6.22439 5.17181H9.616V6.62536C10.1005 5.89859 10.908 4.92956 12.6846 4.92956C14.8649 5.01031 16.5607 6.46385 16.5607 9.6132ZM2.67127 0.32666C1.54074 0.32666 0.733215 1.05343 0.733215 2.10322C0.733215 3.07225 1.45999 3.87977 2.59053 3.87977C3.80181 3.87977 4.52858 3.07225 4.52858 2.10322C4.52858 1.05343 3.80181 0.32666 2.67127 0.32666ZM0.894718 15.4274H4.28632V5.25257H0.894718V15.4274Z" fill="white"/>
</svg>
