<svg width="30" height="51" viewBox="0 0 30 51" fill="none" xmlns="http://www.w3.org/2000/svg">
<g clip-path="url(#clip0_659_696)">
<path d="M11.6283 45.5599C10.9699 45.5654 10.5864 45.913 10.5931 46.4615C10.5998 46.9781 10.9833 47.3617 11.5787 47.3645C12.7185 47.3714 13.8596 47.3742 14.9993 47.3742C16.1404 47.3742 17.2802 47.3714 18.42 47.3645C19.0153 47.3617 19.3988 46.9781 19.4055 46.4615C19.4122 45.913 19.0274 45.5654 18.3704 45.5599C17.2467 45.5502 16.123 45.5571 14.9993 45.5571C13.8757 45.5571 12.752 45.5502 11.6283 45.5599Z" fill="#2CB34A"/>
<path d="M28.7007 0C24.1336 0 19.5678 0 15.0007 0C10.4336 0 5.86645 0 1.29933 0C0.248067 0 0 0.257604 0 1.34342C0 17.4492 0 33.555 0 49.6593C0 50.741 0.250749 50.9986 1.30336 50.9986C5.86913 50.9986 10.4336 50.9986 14.9993 50.9986C19.5651 50.9986 24.1295 50.9986 28.6953 50.9986C29.7479 50.9986 29.9987 50.741 29.9987 49.6593C29.9987 33.5536 29.9987 17.4478 29.9987 1.34342C29.9987 0.257604 29.7506 0 28.6993 0L28.7007 0ZM1.80351 1.85447H28.1978V5.38752H1.80351V1.85447ZM28.1898 49.1649H1.81156V43.7622H28.1898V49.1649ZM28.2072 41.8343H1.79413V7.33755H28.2059V41.8329L28.2072 41.8343Z" fill="#2CB34A"/>
<path d="M16.6683 16.8403C17.609 15.8686 17.609 14.2933 16.6683 13.3216C15.7275 12.3499 14.2023 12.3499 13.2615 13.3216C12.3208 14.2933 12.3208 15.8686 13.2615 16.8403C14.2023 17.812 15.7275 17.812 16.6683 16.8403Z" fill="#2CB34A"/>
<path d="M20.9887 21.3022C21.9294 20.3305 21.9294 18.7552 20.9887 17.7835C20.0479 16.8119 18.5227 16.8119 17.5819 17.7835C16.6412 18.7552 16.6412 20.3306 17.5819 21.3022C18.5227 22.2739 20.0479 22.2739 20.9887 21.3022Z" fill="#2CB34A"/>
<path d="M25.3091 25.7634C26.2498 24.7917 26.2498 23.2164 25.3091 22.2447C24.3683 21.273 22.8431 21.273 21.9023 22.2447C20.9616 23.2164 20.9616 24.7917 21.9023 25.7634C22.8431 26.7351 24.3683 26.7351 25.3091 25.7634Z" fill="#2CB34A"/>
<path d="M12.3839 21.2644C13.3247 20.2927 13.3247 18.7173 12.3839 17.7457C11.4432 16.774 9.91795 16.774 8.9772 17.7457C8.03646 18.7173 8.03646 20.2927 8.9772 21.2644C9.91795 22.236 11.4432 22.236 12.3839 21.2644Z" fill="#2CB34A"/>
<path d="M17.1732 26.2128C18.3734 24.9731 18.3734 22.9633 17.1732 21.7236C15.973 20.4839 14.027 20.4839 12.8268 21.7236C11.6266 22.9633 11.6266 24.9731 12.8268 26.2128C14.027 27.4525 15.973 27.4525 17.1732 26.2128Z" fill="#2CB34A"/>
<path d="M21.0234 30.1894C21.9641 29.2178 21.9641 27.6424 21.0234 26.6707C20.0826 25.6991 18.5574 25.6991 17.6166 26.6707C16.6759 27.6424 16.6759 29.2178 17.6166 30.1894C18.5574 31.1611 20.0826 31.1611 21.0234 30.1894Z" fill="#2CB34A"/>
<path d="M8.09731 25.6906C9.03805 24.719 9.03805 23.1436 8.09731 22.1719C7.15656 21.2003 5.63131 21.2003 4.69057 22.1719C3.74982 23.1436 3.74982 24.719 4.69057 25.6906C5.63131 26.6623 7.15656 26.6623 8.09731 25.6906Z" fill="#2CB34A"/>
<path d="M12.4177 30.1526C13.3584 29.1809 13.3584 27.6055 12.4177 26.6339C11.477 25.6622 9.9517 25.6622 9.01095 26.6339C8.07021 27.6055 8.07021 29.1809 9.01095 30.1526C9.9517 31.1242 11.477 31.1242 12.4177 30.1526Z" fill="#2CB34A"/>
<path d="M16.7381 34.6157C17.6788 33.644 17.6788 32.0687 16.7381 31.097C15.7973 30.1253 14.2721 30.1253 13.3313 31.097C12.3906 32.0687 12.3906 33.644 13.3313 34.6157C14.2721 35.5873 15.7973 35.5873 16.7381 34.6157Z" fill="#2CB34A"/>
</g>
<defs>
<clipPath id="clip0_659_696">
<rect width="30" height="51" fill="white"/>
</clipPath>
</defs>
</svg>
