<svg width="39" height="39" viewBox="0 0 39 39" fill="none" xmlns="http://www.w3.org/2000/svg">
<g clip-path="url(#clip0_669_782)">
<path d="M23.738 7.59688C23.738 5.98 23.738 4.36312 23.738 2.73812C23.7462 1.05625 24.8026 0 26.493 0C29.7437 0 32.9943 0 36.245 0C37.9272 0 39 1.0725 39 2.74625C39 6.0125 39 9.27063 39 12.5369C39 14.17 37.9354 15.2506 36.3019 15.2588C33.0268 15.2669 29.7437 15.2588 26.4686 15.2588C24.7945 15.2588 23.7462 14.1944 23.738 12.5288C23.738 10.8794 23.738 9.23812 23.738 7.58875V7.59688ZM31.3771 1.70625C29.7193 1.70625 28.0614 1.70625 26.3955 1.70625C25.7535 1.70625 25.4284 2.02312 25.4284 2.665C25.4284 5.97188 25.4284 9.27062 25.4284 12.5775C25.4284 13.2437 25.7535 13.5606 26.4117 13.5606C29.703 13.5606 32.9943 13.5606 36.2857 13.5606C36.9764 13.5606 37.2852 13.2519 37.2852 12.5531C37.2852 9.27875 37.2852 5.99625 37.2852 2.72187C37.2852 1.99062 37.0008 1.70625 36.2613 1.70625C34.6278 1.70625 32.9943 1.70625 31.3609 1.70625H31.3771Z" fill="#2CB34A"/>
<path d="M0 31.3463C0 29.7132 0 28.08 0 26.4469C0 24.8138 1.0646 23.7413 2.70619 23.7332C5.9975 23.7332 9.28881 23.7332 12.5801 23.7332C14.1973 23.7332 15.2538 24.8057 15.2619 26.4225C15.2619 29.7132 15.2619 33.0038 15.2619 36.2944C15.2619 37.9275 14.1811 38.9919 12.5395 38.9919C9.26443 38.9919 5.98125 38.9919 2.70619 38.9919C1.08085 38.9919 0 37.9032 0 36.2782C0 34.6288 0 32.9875 0 31.3382L0 31.3463ZM1.70661 31.3463C1.70661 32.9957 1.70661 34.6369 1.70661 36.2863C1.70661 36.9932 1.99917 37.2857 2.70619 37.2857C5.98125 37.2857 9.26443 37.2857 12.5395 37.2857C13.2628 37.2857 13.5716 36.985 13.5716 36.27C13.5716 33.0038 13.5716 29.7457 13.5716 26.4794C13.5716 25.7319 13.2628 25.4313 12.5232 25.4313C9.2563 25.4313 5.9975 25.4313 2.73057 25.4313C2.00729 25.4313 1.70661 25.7319 1.70661 26.455C1.70661 28.0882 1.70661 29.7213 1.70661 31.3544V31.3463Z" fill="#2CB34A"/>
<path d="M39 31.3543C39 32.9875 39 34.6206 39 36.2537C39 37.9275 37.9272 39 36.245 39C32.9943 39 29.7437 39 26.493 39C24.8026 39 23.7462 37.9437 23.738 36.2537C23.738 32.9875 23.738 29.7293 23.738 26.4631C23.738 24.7975 24.8026 23.7412 26.4686 23.7412C29.7355 23.7412 32.9943 23.7412 36.2613 23.7412C37.9435 23.7412 39 24.8137 39 26.5037C39 28.1206 39 29.7375 39 31.3625V31.3543ZM37.2934 31.3543C37.2934 29.705 37.2934 28.0637 37.2934 26.4143C37.2934 25.7481 36.9764 25.4312 36.31 25.4312C33.0187 25.4312 29.7274 25.4312 26.4361 25.4312C25.7453 25.4312 25.4284 25.7481 25.4284 26.4387C25.4284 29.7131 25.4284 32.9956 25.4284 36.27C25.4284 36.985 25.7291 37.2856 26.4605 37.2856C29.7274 37.2856 32.9862 37.2856 36.2531 37.2856C37.0089 37.2856 37.2934 37.0012 37.2934 36.2456C37.2934 34.6125 37.2934 32.9793 37.2934 31.3462V31.3543Z" fill="#2CB34A"/>
<path d="M0 7.605C0 5.97187 0 4.33875 0 2.70563C0 1.08875 1.08898 0 2.71432 0C5.98937 0 9.27256 0 12.5476 0C14.1811 0 15.2538 1.06437 15.2619 2.70563C15.2619 5.99625 15.2619 9.28687 15.2619 12.5775C15.2619 14.1944 14.1973 15.2588 12.572 15.2588C9.28068 15.2669 5.98937 15.2669 2.69806 15.2588C1.0646 15.2588 0 14.1781 0 12.545C0 10.8956 0 9.25437 0 7.605ZM1.70661 7.64563C1.70661 9.30312 1.70661 10.9606 1.70661 12.6263C1.70661 13.2437 2.03167 13.5688 2.6493 13.5688C5.96499 13.5688 9.28881 13.5688 12.6045 13.5688C13.2384 13.5688 13.5716 13.2356 13.5716 12.6019C13.5716 9.295 13.5716 5.99625 13.5716 2.68937C13.5716 2.02312 13.2546 1.71437 12.5801 1.71437C9.28881 1.71437 5.9975 1.71437 2.70619 1.71437C1.99917 1.71437 1.70661 2.00688 1.70661 2.71375C1.70661 4.36312 1.70661 6.00437 1.70661 7.65375V7.64563Z" fill="#2CB34A"/>
<path d="M18.6591 18.6632V18.1108C18.6591 12.5289 18.6591 6.947 18.6591 1.36512C18.6591 1.24325 18.6591 1.12137 18.6591 0.991375C18.6591 0.382 19.0085 -0.00800045 19.5124 0.000124553C20.0081 0.00824955 20.3332 0.390125 20.3332 0.98325C20.3332 4.37137 20.3332 7.7595 20.3332 11.1476C20.3332 13.4795 20.3332 15.8114 20.3332 18.1432V18.6632C20.5201 18.6632 20.6745 18.6632 20.8289 18.6632C23.1775 18.6632 25.518 18.6632 27.8666 18.6632C28.4761 18.6632 28.8337 19.0126 28.8012 19.557C28.7768 19.9632 28.4842 20.2801 28.086 20.3289C27.9398 20.3451 27.7854 20.337 27.6309 20.337C18.8135 20.337 9.9879 20.337 1.17043 20.337C0.390271 20.337 0.000189585 20.0607 -0.00793711 19.5082C-0.0160638 18.9476 0.390271 18.6551 1.18669 18.6551C6.82661 18.6551 12.4584 18.6551 18.0983 18.6551C18.2609 18.6551 18.4234 18.6551 18.6428 18.6551L18.6591 18.6632Z" fill="#2CB34A"/>
<path d="M18.6589 31.3544C18.6589 29.1362 18.6589 26.91 18.6589 24.6919C18.6589 24.18 18.8864 23.8631 19.3009 23.7737C19.8129 23.66 20.2761 23.9931 20.3249 24.5131C20.333 24.635 20.3249 24.7569 20.3249 24.8869C20.3249 29.2094 20.3249 33.5319 20.3249 37.8462C20.3249 37.9275 20.3249 38.0087 20.3249 38.09C20.3086 38.6344 19.9592 39.0081 19.4716 39C18.9921 39 18.6426 38.6181 18.6426 38.0656C18.6426 35.8312 18.6426 33.5969 18.6426 31.3625L18.6589 31.3544Z" fill="#2CB34A"/>
<path d="M35.5868 20.3368C34.7823 20.3368 33.9696 20.3368 33.1651 20.3368C32.5881 20.3368 32.2142 19.9875 32.2142 19.4918C32.2142 18.9962 32.5962 18.6631 33.1813 18.6631C34.7985 18.6631 36.4076 18.6631 38.0248 18.6631C38.6099 18.6631 38.9919 18.9881 39 19.4837C39.0082 19.9875 38.6181 20.3287 38.0086 20.3368C37.204 20.3368 36.3914 20.3368 35.5868 20.3368Z" fill="#2CB34A"/>
</g>
<defs>
<clipPath id="clip0_669_782">
<rect width="39" height="39" fill="white"/>
</clipPath>
</defs>
</svg>
