<svg width="45" height="53" viewBox="0 0 45 53" fill="none" xmlns="http://www.w3.org/2000/svg">
<g clip-path="url(#clip0_746_493)">
<path d="M31.8728 39.7685V40.5466C31.8728 44.2147 31.8728 47.8828 31.8728 51.5509C31.8728 52.7324 31.6161 53 30.4672 53C20.7868 53 11.1023 53 1.42191 53C0.252603 53 0 52.7448 0 51.5715C0 34.8572 0 18.147 0 1.43265C0 0.255243 0.252603 0 1.41376 0C11.0942 0 20.7786 0 30.459 0C31.612 0 31.8687 0.263477 31.8687 1.44089C31.8687 4.48734 31.8687 7.52967 31.8687 10.5761C31.8687 10.8355 31.8687 11.0948 31.8687 11.346C38.8846 11.7824 44.6904 17.7147 44.9878 25.1209C45.2404 31.4649 40.3228 39.1922 31.8687 39.7644L31.8728 39.7685ZM1.90675 43.4737H29.962V39.715C26.3522 39.3857 23.2558 37.9736 20.7664 35.3306C18.2608 32.667 16.9529 29.4765 16.8837 25.7878C16.8266 22.7702 17.6415 20.0037 19.3567 17.5336C21.9316 13.8202 25.5292 11.8359 29.9538 11.3789V7.62848H1.90675V43.4737ZM18.7619 25.5284C18.7497 32.3171 24.1969 37.8501 30.9031 37.8666C37.589 37.883 43.0973 32.3418 43.1177 25.5819C43.1381 18.8221 37.6582 13.2726 30.952 13.2562C24.2295 13.2438 18.7741 18.7398 18.7619 25.5284ZM1.92712 45.4786V51.0651H29.9538V45.4786H1.92712ZM29.962 1.93079H1.91897V5.59476H29.962V1.93079Z" fill="#2CB34A"/>
<path d="M15.9751 47.3435C17.1607 47.3435 18.3463 47.3353 19.5319 47.3435C20.2204 47.3517 20.6605 47.7305 20.6116 48.2945C20.5545 48.9202 20.1593 49.2208 19.5523 49.2208C17.1362 49.2249 14.7161 49.2249 12.3001 49.2208C11.6931 49.2208 11.3019 48.912 11.2571 48.2821C11.2164 47.714 11.6523 47.3517 12.349 47.3435C13.5591 47.3353 14.765 47.3435 15.9751 47.3435Z" fill="#2CB34A"/>
<path d="M26.8985 22.2348L25.205 19.3015C22.6388 21.5445 21.6602 25.122 22.7379 28.321L25.7018 26.6098C25.3988 25.0586 25.8428 23.4355 26.8985 22.2348Z" fill="#2CB34A"/>
<path d="M35.4979 23.5882C36.3932 25.7102 35.6989 28.2487 33.8403 29.648C31.7954 31.1881 29.0977 30.9769 27.3401 29.4473L24.3761 31.1586C27.1587 34.3144 32.0584 35.0041 35.7197 32.3322C38.8942 30.017 40.0647 25.7375 38.4971 22.1781C36.6864 18.0734 32.0944 16.2696 28.0737 17.6404L29.7673 20.5737C32.0666 20.1117 34.5108 21.2496 35.4994 23.5826L35.4979 23.5882Z" fill="#2CB34A"/>
</g>
<defs>
<clipPath id="clip0_746_493">
<rect width="45" height="53" fill="white"/>
</clipPath>
</defs>
</svg>
