<svg width="16" height="17" viewBox="0 0 16 17" fill="none" xmlns="http://www.w3.org/2000/svg">
<path d="M15.0659 1.6749C14.5006 1.10963 13.7738 0.786621 12.9663 0.786621H3.03375C2.22622 0.786621 1.49944 1.10963 0.934175 1.6749C0.368907 2.24017 0.0458984 2.96694 0.0458984 3.77447V13.707C0.0458984 14.5146 0.368907 15.2413 0.934175 15.8066C1.49944 16.3719 2.22622 16.6949 3.03375 16.6949H12.9663C13.7738 16.6949 14.5006 16.3719 15.0659 15.8066C15.6311 15.2413 15.9542 14.5146 15.9542 13.707V3.77447C15.9542 2.96694 15.6311 2.24017 15.0659 1.6749ZM9.41319 3.04769H10.14V5.87403C10.14 6.03554 10.14 6.11629 10.14 6.11629C10.14 6.19704 10.2207 6.27779 10.3015 6.27779C10.463 6.27779 10.5437 6.19704 10.7052 5.95478V3.04769H11.432V6.84306H10.7052V6.52005C10.463 6.84306 10.14 7.00457 9.89771 7.00457C9.65546 7.00457 9.49395 6.92381 9.41319 6.76231C9.33244 6.6008 9.33245 6.4393 9.33245 6.19704V3.04769H9.41319ZM6.82911 4.33973C6.82911 3.93597 6.90987 3.61296 7.07137 3.45145C7.23288 3.2092 7.55589 3.04769 7.8789 3.04769C8.20191 3.04769 8.44417 3.2092 8.68642 3.45145C8.84793 3.61296 8.92868 3.93597 8.92868 4.33973V5.71253C8.92868 6.11629 8.84793 6.4393 8.68642 6.6008C8.52492 6.84306 8.20191 7.00457 7.8789 7.00457C7.55589 7.00457 7.23288 6.84306 7.07137 6.6008C6.90987 6.4393 6.82911 6.11629 6.82911 5.71253V4.33973ZM4.9718 1.75565L5.53707 3.77447L6.10235 1.75565H6.90987L5.94083 4.82425V6.92381H5.21406V4.82425C5.13331 4.42049 4.9718 3.93597 4.72954 3.2092C4.56804 2.72468 4.48729 2.48242 4.48729 2.48242L4.24503 1.75565H4.9718ZM13.4508 14.2723C13.3701 14.5953 13.2086 14.8376 13.0471 14.9991C12.8048 15.2413 12.5625 15.3221 12.2395 15.3221C11.2705 15.4028 9.89771 15.4836 7.95964 15.4836C6.10234 15.4836 4.64879 15.4028 3.67976 15.3221C3.35675 15.3221 3.1145 15.1606 2.87224 14.9991C2.62998 14.7568 2.46847 14.5146 2.46847 14.2723C2.30697 13.707 2.22622 12.8188 2.22622 11.6075C2.22622 10.3962 2.30697 9.5079 2.46847 8.94263C2.54923 8.61962 2.71073 8.37736 2.87224 8.21586C3.1145 7.9736 3.35675 7.89284 3.67976 7.89284C4.64879 7.81209 6.02158 7.73134 7.95964 7.73134C9.89771 7.73134 11.2705 7.81209 12.2395 7.89284C12.5625 7.89284 12.8048 8.05435 13.0471 8.21586C13.2893 8.45811 13.4508 8.70037 13.5316 8.94263C13.6931 9.5079 13.6931 10.3962 13.6931 11.6075C13.6931 12.738 13.6123 13.6263 13.4508 14.2723Z" fill="white"/>
<path d="M3.19541 9.66916H4.00293V14.0298H4.7297V9.66916H5.53722V8.94238H3.11465V9.66916H3.19541Z" fill="white"/>
<path d="M6.99065 13.1415C6.82914 13.3837 6.66764 13.4645 6.58688 13.4645C6.50613 13.4645 6.42538 13.3837 6.42538 13.303C6.42538 13.303 6.42538 13.2222 6.42538 13.0607V10.2344H5.77936V13.2222C5.77936 13.4645 5.77936 13.7067 5.86012 13.7875C5.94087 13.949 6.10237 14.1105 6.26388 14.1105C6.50614 14.1105 6.74839 13.949 7.0714 13.626V14.0297H7.79817V10.2344H7.0714V13.1415H6.99065Z" fill="white"/>
<path d="M9.65539 10.1537C9.41313 10.1537 9.17088 10.3152 8.92862 10.5574V8.94238H8.20184V14.0298H8.92862V13.626C9.17088 13.8683 9.41313 14.0298 9.65539 14.0298C9.89765 14.0298 10.1399 13.8683 10.2207 13.626C10.3014 13.4645 10.3014 13.2223 10.3014 12.8993V11.365C10.3014 10.9612 10.3014 10.7189 10.2207 10.6382C10.0592 10.3152 9.89765 10.1537 9.65539 10.1537ZM9.57463 12.8993C9.57463 13.2223 9.49389 13.3838 9.25163 13.3838C9.17088 13.3838 9.00938 13.303 8.92862 13.2223V10.8804C9.00938 10.7997 9.17088 10.7189 9.25163 10.7189C9.41313 10.7189 9.57463 10.8804 9.57463 11.2035V12.8993Z" fill="white"/>
<path d="M12.1586 12.8991C12.1586 12.9798 12.1586 13.0606 12.1586 13.0606C12.1586 13.1414 12.1586 13.1414 12.1586 13.1414C12.0778 13.3029 11.9971 13.3836 11.8356 13.3836C11.5933 13.3836 11.5126 13.2221 11.5126 12.8183V12.1723H12.8854V11.3648C12.8854 10.961 12.8046 10.638 12.6431 10.4765C12.4816 10.2343 12.1586 10.0728 11.8356 10.0728C11.5126 10.0728 11.1896 10.2343 11.0281 10.4765C10.8666 10.638 10.7858 10.961 10.7858 11.3648V12.6568C10.7858 13.0606 10.8666 13.3836 11.0281 13.5451C11.1896 13.7874 11.5126 13.9489 11.8356 13.9489C12.2393 13.9489 12.4816 13.7874 12.6431 13.5451C12.7239 13.3836 12.8046 13.3029 12.8046 13.1414C12.8046 13.0606 12.8046 12.8991 12.8046 12.6568V12.5761H12.0778V12.8991H12.1586ZM11.4318 11.284C11.4318 10.961 11.5126 10.7188 11.7548 10.7188C11.9971 10.7188 12.0778 10.8803 12.0778 11.284V11.6071H11.4318V11.284Z" fill="white"/>
<path d="M7.87896 6.35789C8.12121 6.35789 8.20196 6.19639 8.20196 5.79262V4.17757C8.20196 3.85456 8.12121 3.6123 7.87896 3.6123C7.6367 3.6123 7.55594 3.77381 7.55594 4.17757V5.79262C7.55594 6.11563 7.6367 6.35789 7.87896 6.35789Z" fill="white"/>
</svg>
