<svg width="256" height="37" viewBox="0 0 256 37" fill="none" xmlns="http://www.w3.org/2000/svg">
<g clip-path="url(#clip0_669_879)">
<path d="M210.336 33.9672V32.4118C210.336 31.5428 210.509 30.8303 210.865 30.2916C211.221 29.7441 211.733 29.3878 212.409 29.214V27.3545H214.37V29.2054C215.064 29.3705 215.594 29.7267 215.941 30.2829C216.288 30.839 216.461 31.5602 216.461 32.4379V36.9738H214.5V32.377C214.5 31.7688 214.414 31.3256 214.223 31.0562C214.04 30.7782 213.754 30.6391 213.372 30.6391C213.008 30.6391 212.739 30.7782 212.557 31.0475C212.375 31.3256 212.288 31.7688 212.288 32.3857V33.9672H210.327H210.336Z" fill="white"/>
<path d="M223.593 33.0549H226.214L226.682 35.488H226.361C225.979 35.488 225.65 35.4011 225.381 35.2186C225.112 35.0361 224.929 34.7928 224.843 34.48H223.585V36.9739H221.615V34.48H220.956C220.053 34.48 219.35 34.2714 218.839 33.8543C218.327 33.4372 218.075 32.8637 218.075 32.1164C218.075 31.4995 218.249 30.9868 218.587 30.5784C218.925 30.1787 219.437 29.9006 220.123 29.7703C220.574 29.6834 220.973 29.5183 221.329 29.2837C221.684 29.049 221.962 28.7623 222.179 28.4147C222.396 28.0671 222.517 27.7109 222.561 27.3198H224.504C224.478 27.7543 224.392 28.1366 224.218 28.4582C224.053 28.7797 223.819 29.0664 223.533 29.3184C223.246 29.5704 222.838 29.8137 222.327 30.057C222.726 30.2221 223.038 30.4915 223.255 30.8652C223.472 31.2388 223.576 31.6993 223.576 32.2468V33.0462L223.593 33.0549ZM220.019 32.0991C220.019 32.4466 220.114 32.69 220.296 32.8377C220.478 32.9854 220.765 33.0549 221.147 33.0549H221.632V32.2294C221.632 31.4995 221.372 31.1432 220.843 31.1432C220.583 31.1432 220.383 31.2214 220.235 31.3778C220.088 31.5342 220.019 31.7775 220.019 32.0991Z" fill="white"/>
<path d="M230.934 37.0001C229.91 37.0001 229.12 36.7655 228.574 36.2963C228.027 35.8271 227.749 35.1406 227.749 34.2456C227.749 33.8198 227.819 33.4287 227.966 33.0638C228.114 32.7075 228.339 32.3426 228.643 31.9776C228.947 31.6126 229.476 31.1 230.231 30.4482C230.647 30.0833 230.96 29.6662 231.151 29.1883C231.35 28.7103 231.446 28.0847 231.446 27.2939H233.424C233.424 28.2498 233.259 29.0927 232.929 29.8139C232.599 30.5351 232.105 31.1608 231.428 31.7082C230.83 32.1688 230.396 32.6032 230.118 32.9943C229.84 33.3853 229.702 33.8024 229.702 34.2369C229.702 34.6105 229.814 34.906 230.031 35.1406C230.257 35.3752 230.552 35.4882 230.925 35.4882C231.367 35.4882 231.697 35.3491 231.923 35.0711C232.148 34.793 232.261 34.3933 232.261 33.8632V33.0551H234.239V33.759C234.239 35.914 233.137 36.9828 230.934 36.9828" fill="white"/>
<path d="M236.521 32.6724C236.521 32.0641 236.608 31.5341 236.782 31.0648C235.914 30.5869 235.48 29.6832 235.48 28.3624V27.3457H237.424V28.4232C237.424 29.1444 237.536 29.6137 237.753 29.8396C238.248 29.5094 238.864 29.3443 239.619 29.3443C240.608 29.3443 241.363 29.631 241.875 30.2132C242.387 30.7868 242.647 31.6209 242.647 32.7071V33.9758H240.686V32.6463C240.686 32.038 240.591 31.5949 240.408 31.3255C240.226 31.0474 239.94 30.9084 239.558 30.9084C239.176 30.9084 238.916 31.0474 238.742 31.3255C238.56 31.6036 238.474 32.0467 238.474 32.655V36.9737H236.513V32.6811L236.521 32.6724Z" fill="white"/>
<path d="M247.063 33.2115C246.881 33.2463 246.655 33.2636 246.386 33.2636C245.475 33.2636 244.79 33.029 244.313 32.5598C243.844 32.0906 243.601 31.4128 243.601 30.5351C243.601 29.9182 243.749 29.3621 244.052 28.8668C244.347 28.3714 244.781 27.9891 245.337 27.711C245.892 27.433 246.534 27.2939 247.271 27.2939H253.137C254.039 27.2939 254.742 27.5025 255.245 27.9196C255.748 28.3367 256 28.9102 256 29.6575C256 30.4569 255.774 31.0913 255.332 31.5518C254.889 32.0124 254.265 32.247 253.475 32.247H250.603V28.7712H249.467V32.247L247.523 36.8872H245.501L247.063 33.2115ZM246.482 31.7604C246.864 31.7604 247.202 31.6822 247.506 31.5171V28.7712H247.332C246.95 28.7712 246.629 28.8494 246.369 29.0145C246.109 29.1709 245.901 29.3881 245.762 29.6575C245.623 29.9269 245.554 30.2223 245.554 30.5438C245.554 30.9262 245.64 31.2216 245.805 31.4388C245.979 31.6561 246.204 31.7604 246.491 31.7604M252.564 28.7799V30.7698H253.041C253.727 30.7698 254.074 30.4222 254.074 29.7357C254.074 29.4142 253.978 29.1796 253.805 29.0232C253.623 28.8668 253.371 28.7885 253.05 28.7885H252.573L252.564 28.7799Z" fill="white"/>
<path d="M174.25 1.38142C172.333 -1.93798 161.192 0.920873 149.357 7.76822C137.522 14.6069 129.479 22.8445 131.397 26.1639C133.045 29.0141 141.505 27.2936 151.37 22.4188C151.813 22.1755 151.778 21.6541 151.205 21.8452C145.123 24.0871 140.056 24.2262 138.746 21.8452C137.002 18.691 142.529 12.2955 151.084 7.56836C159.639 2.84126 167.986 1.5639 169.73 4.7182C170.528 6.16066 169.799 8.28959 167.951 10.6184C167.951 10.6271 167.942 10.6445 167.925 10.6531C167.239 11.5047 167.743 11.7567 168.229 11.3483C172.949 7.15995 175.404 3.3887 174.25 1.39011" fill="#EF373E"/>
<path d="M156.507 23.2095C155.457 22.9227 154.589 22.5404 153.93 22.0538L155.127 19.3513C155.83 19.8032 156.576 20.1421 157.366 20.3767C158.155 20.6113 158.953 20.733 159.752 20.733C160.55 20.733 161.183 20.62 161.617 20.3941C162.051 20.1681 162.268 19.8553 162.268 19.4469C162.268 19.082 162.068 18.7778 161.678 18.5432C161.287 18.3086 160.541 18.074 159.465 17.848C158.103 17.5787 157.036 17.2398 156.281 16.8401C155.526 16.4403 154.997 15.9711 154.685 15.4324C154.381 14.8849 154.233 14.2332 154.233 13.4598C154.233 12.5822 154.485 11.7828 154.988 11.0702C155.491 10.3577 156.186 9.80154 157.097 9.40182C157.999 9.0021 159.031 8.80225 160.203 8.80225C161.244 8.80225 162.259 8.94997 163.24 9.23672C164.22 9.52348 164.984 9.91451 165.539 10.3837L164.359 13.0862C163.725 12.643 163.057 12.2954 162.355 12.0608C161.652 11.8262 160.949 11.7045 160.246 11.7045C159.543 11.7045 159.005 11.8349 158.58 12.0956C158.164 12.365 157.956 12.7212 157.956 13.1644C157.956 13.4077 158.025 13.6076 158.181 13.7727C158.329 13.9378 158.606 14.0942 159.014 14.2506C159.422 14.407 160.029 14.5721 160.845 14.7459C162.155 15.0326 163.188 15.3715 163.942 15.7712C164.689 16.171 165.227 16.6402 165.53 17.1703C165.843 17.7003 165.999 18.3433 165.999 19.0906C165.999 20.4983 165.452 21.6106 164.359 22.41C163.266 23.2182 161.721 23.6179 159.734 23.6179C158.658 23.6179 157.583 23.4789 156.533 23.1921" fill="white"/>
<path d="M174.988 20.2118C175.343 19.7599 175.517 19.1169 175.517 18.2827C175.517 17.4485 175.343 16.7707 174.988 16.3276C174.632 15.8757 174.137 15.6411 173.487 15.6411C172.836 15.6411 172.35 15.8757 171.985 16.3449C171.621 16.8142 171.439 17.4746 171.439 18.3262C171.439 19.1777 171.612 19.786 171.968 20.2292C172.324 20.6636 172.827 20.8896 173.487 20.8896C174.146 20.8896 174.64 20.6636 174.988 20.2205M179.126 13.1472V23.4617H175.517V22.0627C175.222 22.5493 174.788 22.9316 174.215 23.2097C173.651 23.4877 173.027 23.6268 172.35 23.6268C171.465 23.6268 170.684 23.4095 169.999 22.9751C169.313 22.5406 168.775 21.9236 168.385 21.1155C168.003 20.3074 167.803 19.3776 167.803 18.3262C167.803 17.2747 168.003 16.3102 168.393 15.4847C168.784 14.6592 169.322 14.0162 170.016 13.5556C170.71 13.0951 171.482 12.8691 172.35 12.8691C173.027 12.8691 173.643 13.0169 174.207 13.3036C174.771 13.5904 175.204 13.9814 175.517 14.468V13.1472H179.126Z" fill="white"/>
<path d="M181.165 13.1387V12.8607C181.165 11.4616 181.53 10.3755 182.25 9.5934C182.97 8.81134 184.028 8.41162 185.408 8.41162C186.198 8.41162 186.831 8.50721 187.317 8.69838V11.5225C186.926 11.4269 186.597 11.3834 186.345 11.3834C185.911 11.3834 185.556 11.5051 185.269 11.7571C184.983 12.0091 184.844 12.3914 184.844 12.9041V13.1474H186.848V15.8499H184.844V23.4619H181.174V15.8499C181.174 15.8499 181.226 13.1474 181.174 13.1474" fill="white"/>
<path d="M195.143 20.2118C195.499 19.7599 195.672 19.1169 195.672 18.2827C195.672 17.4485 195.499 16.7707 195.143 16.3276C194.796 15.8757 194.293 15.6411 193.642 15.6411C192.991 15.6411 192.505 15.8757 192.141 16.3449C191.777 16.8142 191.594 17.4746 191.594 18.3262C191.594 19.1777 191.768 19.786 192.124 20.2292C192.471 20.6636 192.983 20.8896 193.642 20.8896C194.301 20.8896 194.796 20.6636 195.143 20.2205M199.282 13.1472V23.4617H195.672V22.0627C195.377 22.5493 194.944 22.9316 194.371 23.2097C193.807 23.4877 193.182 23.6268 192.505 23.6268C191.629 23.6268 190.848 23.4095 190.154 22.9751C189.469 22.5406 188.931 21.9236 188.54 21.1155C188.158 20.3074 187.959 19.3776 187.959 18.3262C187.959 17.2747 188.158 16.3102 188.549 15.4847C188.939 14.6592 189.486 14.0162 190.171 13.5556C190.866 13.0951 191.638 12.8691 192.505 12.8691C193.182 12.8691 193.798 13.0169 194.362 13.3036C194.926 13.5904 195.36 13.9814 195.672 14.468V13.1472H199.282Z" fill="white"/>
<path d="M209.112 13.121V16.4752C208.531 16.2058 207.976 16.0668 207.438 16.0668C205.902 16.0668 205.13 16.8054 205.13 18.2826V23.4616H201.468V16.1102C201.468 15.0067 201.416 14.0161 201.303 13.1471H204.739L204.965 14.8763C205.208 14.242 205.598 13.7467 206.136 13.4078C206.674 13.0689 207.281 12.9038 207.95 12.9038C208.444 12.9038 208.835 12.982 209.104 13.1297" fill="white"/>
<path d="M214.032 13.1387H210.362V23.4531H214.032V13.1387Z" fill="white"/>
<path d="M217.242 22.1929C216.253 21.2457 215.767 19.951 215.767 18.3174C215.767 17.2312 216.001 16.2753 216.487 15.4585C216.973 14.633 217.641 13.99 218.509 13.5381C219.377 13.0863 220.374 12.8604 221.511 12.8604C222.266 12.8604 223.012 12.9733 223.741 13.1906C224.47 13.4165 225.051 13.7206 225.485 14.0943L224.548 16.6316C224.183 16.3362 223.758 16.1015 223.272 15.9278C222.778 15.754 222.318 15.6584 221.867 15.6584C221.112 15.6584 220.53 15.8756 220.123 16.3101C219.715 16.7446 219.515 17.3876 219.515 18.2392C219.515 19.0907 219.715 19.7598 220.123 20.203C220.53 20.6462 221.12 20.8634 221.884 20.8634C222.327 20.8634 222.795 20.7765 223.272 20.6027C223.749 20.4289 224.175 20.1856 224.539 19.8902L225.476 22.3841C225.034 22.7751 224.435 23.0792 223.706 23.2965C222.969 23.5137 222.179 23.618 221.337 23.618C219.593 23.618 218.231 23.1487 217.242 22.2016" fill="white"/>
<path d="M233.866 18.2396C233.866 17.3445 233.693 16.6841 233.363 16.2583C233.033 15.8326 232.539 15.624 231.871 15.624C231.203 15.624 230.691 15.8326 230.344 16.2583C230.005 16.6841 229.832 17.3445 229.832 18.2396C229.832 19.1346 230.005 19.8124 230.344 20.2381C230.682 20.6639 231.185 20.8812 231.871 20.8812C233.198 20.8812 233.858 20.0035 233.858 18.2396M228.869 22.9667C228.018 22.5322 227.359 21.9152 226.899 21.0984C226.439 20.2816 226.205 19.3344 226.205 18.2396C226.205 17.1447 226.43 16.1888 226.899 15.372C227.359 14.5639 228.018 13.9382 228.869 13.5038C229.719 13.0693 230.717 12.8521 231.871 12.8521C233.025 12.8521 233.996 13.0693 234.838 13.5125C235.688 13.9556 236.339 14.5726 236.799 15.3807C237.259 16.1801 237.493 17.136 237.493 18.2309C237.493 19.3257 237.267 20.2816 236.799 21.081C236.339 21.8892 235.688 22.5061 234.838 22.9493C233.996 23.3924 232.999 23.6097 231.871 23.6097C230.743 23.6097 229.719 23.3924 228.869 22.958" fill="white"/>
<path d="M255.132 13.9469C255.705 14.6769 255.991 15.7978 255.991 17.3011V23.4533H252.321V17.4054C252.321 16.7971 252.234 16.3539 252.044 16.0846C251.861 15.8152 251.549 15.6761 251.124 15.6761C250.612 15.6761 250.213 15.8673 249.926 16.241C249.64 16.6233 249.501 17.1534 249.501 17.8485V23.4533H245.831V17.4054C245.831 16.7971 245.736 16.3539 245.545 16.0846C245.354 15.8152 245.05 15.6761 244.634 15.6761C244.122 15.6761 243.723 15.8673 243.445 16.241C243.167 16.6233 243.029 17.1534 243.029 17.8485V23.4533H239.35V16.1019C239.35 14.9897 239.298 14.0078 239.185 13.1388H242.638L242.82 14.5813C243.133 14.0251 243.567 13.5994 244.131 13.2952C244.695 12.9998 245.337 12.8521 246.065 12.8521C247.54 12.8521 248.547 13.4777 249.067 14.7203C249.432 14.1555 249.918 13.6949 250.516 13.356C251.115 13.0172 251.775 12.8521 252.477 12.8521C253.666 12.8521 254.551 13.217 255.124 13.9469" fill="white"/>
<path d="M214.032 8.35059H210.362V11.6613H214.032V8.35059Z" fill="white"/>
<path d="M117.176 4.45752H116.031V31.004H117.176V4.45752Z" fill="white"/>
<path d="M36.7276 4.45791H27.5305C26.177 4.45791 25.0664 5.57017 25.0664 6.92573V28.5453C25.0664 29.9008 26.177 31.0131 27.5305 31.0131H36.7276C38.0812 31.0131 39.1917 29.9008 39.1917 28.5453V6.91704C39.1917 5.56148 38.0812 4.44922 36.7276 4.44922M38.0204 27.5199H26.2377V7.09083H38.0204V27.5286V27.5199Z" fill="white"/>
<path d="M17.8909 23.4528V16.0667C17.8909 14.8937 17.7434 14.0855 17.4571 13.6424C17.1708 13.1992 16.6675 12.9733 15.9474 12.9733C15.0537 12.9733 14.4377 13.2861 14.0906 13.903C13.7436 14.5287 13.57 15.7974 13.57 17.7177V23.4528H8.96282V16.0667C8.96282 14.8763 8.824 14.0681 8.53767 13.625C8.25135 13.1905 7.74811 12.9646 7.03664 12.9646C6.14296 12.9646 5.51825 13.2687 5.16252 13.877C4.80678 14.4852 4.62457 15.7626 4.62457 17.7004V23.4355H0V9.92325H4.68531V12.2781C5.24928 11.3223 5.90002 10.6184 6.62884 10.1666C7.36634 9.7147 8.234 9.48877 9.23179 9.48877C10.325 9.48877 11.2274 9.69732 11.9302 10.1231C12.633 10.5489 13.1362 11.1832 13.4399 12.0348C13.9692 11.1745 14.6112 10.5402 15.3661 10.1144C16.1209 9.69732 17.0146 9.48877 18.0384 9.48877C18.854 9.48877 19.5655 9.6278 20.1729 9.89718C20.7802 10.1666 21.2921 10.575 21.7086 11.1224C22.0383 11.5482 22.2726 12.0522 22.4114 12.6257C22.5502 13.1992 22.6196 14.129 22.6196 15.415V23.4528H17.8996H17.8909Z" fill="white"/>
<path d="M41.1613 29.4313V9.92335H45.5516V12.2C46.159 11.2876 46.8444 10.6098 47.5993 10.1667C48.3541 9.72349 49.2044 9.49756 50.1241 9.49756C52.0243 9.49756 53.534 10.1493 54.6619 11.444C55.7899 12.7474 56.3452 14.5027 56.3452 16.7272C56.3452 18.9518 55.7812 20.6375 54.6619 21.9757C53.5427 23.3139 52.085 23.9743 50.2803 23.9743C49.135 23.9743 48.2066 23.7658 47.4952 23.3487C46.775 22.9316 46.1329 22.2364 45.5777 21.2719C45.621 21.5412 45.6557 21.8628 45.6731 22.2538C45.6904 22.6448 45.7078 23.114 45.7078 23.6702V29.4313H41.1613ZM45.3868 16.7272C45.3868 17.7787 45.6644 18.6129 46.211 19.2211C46.7577 19.8294 47.5125 20.1335 48.4756 20.1335C49.4387 20.1335 50.2022 19.8294 50.7575 19.2211C51.3128 18.6129 51.5905 17.7787 51.5905 16.7272C51.5905 15.6758 51.3128 14.8416 50.7575 14.2333C50.2022 13.6251 49.4387 13.3209 48.4669 13.3209C47.4952 13.3209 46.749 13.6251 46.2024 14.2333C45.6557 14.8416 45.3781 15.6671 45.3781 16.7272" fill="white"/>
<path d="M72.1364 17.6396H61.8634C61.8634 18.6824 62.141 19.4905 62.6616 20.0553C63.1909 20.6202 63.9371 20.9069 64.9002 20.9069C65.6203 20.9069 66.2277 20.7679 66.7222 20.4985C67.2168 20.2291 67.5899 19.8207 67.8502 19.2907L71.4336 20.7418C71.0084 21.7759 70.2449 22.5753 69.1603 23.1401C68.0758 23.7049 66.7396 23.983 65.1605 23.983C62.8091 23.983 60.9177 23.3313 59.4947 22.0192C58.0718 20.707 57.3603 18.9865 57.3603 16.8402C57.3603 14.6939 58.0718 12.9821 59.4947 11.5917C60.9177 10.2014 62.7137 9.49756 64.8915 9.49756C67.0693 9.49756 68.9 10.2014 70.1928 11.6178C71.4856 13.0255 72.1277 14.9633 72.1277 17.4224V17.6483L72.1364 17.6396ZM67.4424 14.9459C67.3556 14.1812 67.0606 13.5643 66.5661 13.095C66.0715 12.6258 65.4641 12.3999 64.744 12.3999C63.9718 12.3999 63.3471 12.6084 62.8959 13.0342C62.436 13.46 62.1324 14.0943 61.9762 14.9459H67.4511H67.4424Z" fill="white"/>
<path d="M73.0648 22.3321L74.0539 18.6912C74.748 19.2994 75.5115 19.7687 76.3445 20.0902C77.1774 20.4117 78.019 20.5768 78.8693 20.5768C79.468 20.5768 79.9192 20.4812 80.2315 20.29C80.5439 20.0989 80.7001 19.8208 80.7001 19.4559C80.7001 18.8563 80.0667 18.4131 78.8173 18.1177C78.4095 18.0221 78.0798 17.9352 77.8282 17.8657C76.4052 17.4746 75.364 16.9533 74.7133 16.3189C74.0712 15.6759 73.7415 14.8504 73.7415 13.8337C73.7415 12.5216 74.2361 11.4702 75.2165 10.6881C76.2057 9.90607 77.5418 9.50635 79.2251 9.50635C80.0927 9.50635 80.969 9.61062 81.8714 9.81048C82.7651 10.0103 83.6848 10.3232 84.6219 10.7403L83.6327 14.0249C82.9993 13.5991 82.3573 13.2689 81.7065 13.0517C81.0558 12.8257 80.4051 12.7128 79.7543 12.7128C79.2077 12.7128 78.7999 12.7997 78.5223 12.9648C78.2446 13.1386 78.1058 13.3819 78.1058 13.7034C78.1058 14.1813 78.7305 14.5897 79.9799 14.9199C80.2663 14.9981 80.4832 15.059 80.622 15.0937C82.2705 15.5716 83.4245 16.1191 84.0666 16.7621C84.7173 17.4051 85.0383 18.2654 85.0383 19.3603C85.0383 20.7419 84.5091 21.8629 83.4505 22.7144C82.392 23.566 80.9864 23.9918 79.2337 23.9918C78.0451 23.9918 76.9432 23.8528 75.928 23.5834C74.9129 23.314 73.9584 22.8969 73.0648 22.3408" fill="white"/>
<path d="M102.07 9.92325V23.4528H97.6974V21.2544C97.0727 22.1929 96.3699 22.8793 95.589 23.3138C94.8081 23.7483 93.8884 23.9742 92.8385 23.9742C91.0338 23.9742 89.5935 23.3138 88.5176 21.993C87.4331 20.6809 86.8951 18.9082 86.8951 16.6924C86.8951 14.4766 87.4591 12.73 88.5871 11.4352C89.715 10.1318 91.2334 9.48877 93.1422 9.48877C94.1574 9.48877 95.0337 9.70601 95.7712 10.1405C96.5087 10.575 97.1421 11.2441 97.6627 12.1478V9.92325H102.062H102.07ZM97.8796 16.675C97.8796 15.6236 97.6019 14.7894 97.038 14.1724C96.474 13.5555 95.7105 13.2513 94.7387 13.2513C93.7669 13.2513 93.0034 13.5555 92.4481 14.1724C91.8928 14.7807 91.6152 15.6236 91.6152 16.6837C91.6152 17.7438 91.8928 18.5693 92.4568 19.1776C93.0207 19.7859 93.7843 20.09 94.7474 20.09C95.7105 20.09 96.4913 19.7859 97.0466 19.1776C97.6106 18.5693 97.8883 17.7351 97.8883 16.6837" fill="white"/>
<path d="M31.5043 15.9364C31.0618 15.7452 30.576 15.3195 30.064 14.52C30.064 14.52 28.0337 17.6483 25.6477 17.0487C28.0337 17.7525 30.0033 17.04 31.5043 15.9364Z" fill="#7A4942"/>
<path d="M34.8882 11.8872C34.8882 11.8872 31.5304 18.778 25.6477 17.0401C25.6477 17.0401 36.3111 20.3334 40.2155 14.4593L34.8882 11.8872Z" fill="#EF373E"/>
</g>
<defs>
<clipPath id="clip0_669_879">
<rect width="256" height="37" fill="white"/>
</clipPath>
</defs>
</svg>
