<svg width="359" height="162" viewBox="0 0 359 162" fill="none" xmlns="http://www.w3.org/2000/svg">
<rect opacity="0.44" y="0.274902" width="359" height="161.214" rx="5" fill="#D2F7D9"/>
<g clip-path="url(#clip0_3102_2051)">
<path opacity="0.21" d="M199.027 155.736C206.012 155.736 211.674 152.52 211.674 148.554C211.674 144.587 206.012 141.371 199.027 141.371C192.043 141.371 186.381 144.587 186.381 148.554C186.381 152.52 192.043 155.736 199.027 155.736Z" fill="#2E406D"/>
<path opacity="0.21" d="M199.815 131.886L156.764 156.335C154.116 157.843 150.106 158.004 147.813 156.699L142.468 153.663C140.176 152.357 140.463 150.082 143.112 148.58L186.163 124.132C188.811 122.624 192.821 122.462 195.114 123.768L200.458 126.804C202.751 128.11 202.463 130.385 199.815 131.886Z" fill="#2E406D"/>
<path d="M191.144 5.36894C191.144 5.36894 191.13 5.36894 191.123 5.3622C191.076 5.33528 191.021 5.30835 190.966 5.28816C190.959 5.28816 190.945 5.28143 190.932 5.2747C190.911 5.26796 190.898 5.26123 190.877 5.2545C190.85 5.24777 190.822 5.23431 190.795 5.22758C190.768 5.22084 190.733 5.21411 190.706 5.20738C190.685 5.20738 190.672 5.20065 190.651 5.19392C190.644 5.19392 190.631 5.19392 190.624 5.18719C190.562 5.17372 190.501 5.16699 190.432 5.16699C190.432 5.16699 190.425 5.16699 190.419 5.16699C190.405 5.16699 190.384 5.16699 190.371 5.16699C190.323 5.16699 190.268 5.16699 190.22 5.16699C190.206 5.16699 190.186 5.16699 190.165 5.16699C190.131 5.16699 190.104 5.16699 190.07 5.17372C190.042 5.17372 190.008 5.17372 189.981 5.18046C189.953 5.18046 189.926 5.19392 189.898 5.19392C189.857 5.20065 189.81 5.21411 189.768 5.22084C189.748 5.22084 189.721 5.22758 189.7 5.23431C189.679 5.23431 189.652 5.2545 189.632 5.26123C189.556 5.28143 189.481 5.30835 189.406 5.33528C189.378 5.34874 189.351 5.34874 189.324 5.3622C189.31 5.3622 189.296 5.37567 189.276 5.3824C189.146 5.43625 189.016 5.50356 188.879 5.57761L140.942 32.8198C140.839 32.8804 140.737 32.941 140.641 33.0083C140.607 33.0285 140.579 33.0554 140.545 33.0756C140.477 33.1227 140.408 33.1698 140.346 33.2237C140.312 33.2506 140.271 33.2843 140.237 33.3112C140.175 33.3583 140.114 33.4122 140.059 33.466C140.025 33.4997 139.991 33.5333 139.95 33.567C139.929 33.5872 139.902 33.6074 139.881 33.6276C139.861 33.6478 139.84 33.6747 139.813 33.6949C139.744 33.7689 139.669 33.843 139.601 33.917C139.58 33.944 139.553 33.9641 139.532 33.9911C139.512 34.0113 139.498 34.0315 139.477 34.0517C139.436 34.0988 139.395 34.1526 139.354 34.1997C139.327 34.2334 139.299 34.2603 139.272 34.294C139.252 34.3209 139.231 34.3478 139.21 34.3748C139.183 34.4152 139.149 34.4488 139.122 34.4892C139.101 34.5161 139.08 34.5431 139.06 34.57C139.026 34.6171 138.998 34.6642 138.964 34.7113C138.944 34.7383 138.923 34.7719 138.903 34.7988C138.896 34.8123 138.882 34.8258 138.875 34.8392C138.82 34.9267 138.766 35.0143 138.711 35.1018C138.711 35.1018 138.711 35.1152 138.704 35.122C138.69 35.1422 138.684 35.1556 138.677 35.1758C138.643 35.2364 138.601 35.3037 138.567 35.3643C138.554 35.3912 138.54 35.4249 138.519 35.4518C138.506 35.4855 138.485 35.5124 138.471 35.546C138.458 35.573 138.444 35.5999 138.43 35.6268C138.396 35.7009 138.362 35.7749 138.328 35.849C138.328 35.8624 138.314 35.8759 138.314 35.8826C138.314 35.8826 138.314 35.8893 138.314 35.8961C138.273 35.9903 138.232 36.0846 138.198 36.1721C138.198 36.1923 138.184 36.2057 138.177 36.2259C138.163 36.2596 138.15 36.2932 138.143 36.3269C138.129 36.374 138.109 36.4211 138.095 36.4682C138.081 36.5019 138.075 36.5423 138.061 36.576C138.047 36.6163 138.033 36.6635 138.02 36.7039C138.013 36.7308 138.006 36.7577 137.992 36.7846C137.979 36.8317 137.972 36.8789 137.958 36.926C137.944 36.9798 137.931 37.0337 137.917 37.0875C137.917 37.1077 137.91 37.1212 137.903 37.1414C137.897 37.1818 137.89 37.2154 137.883 37.2558C137.869 37.3366 137.849 37.4241 137.842 37.5049C137.842 37.5251 137.835 37.552 137.828 37.5722C137.828 37.5924 137.828 37.6126 137.828 37.6328C137.808 37.8145 137.794 38.003 137.794 38.178L138.088 140.146C138.088 140.388 138.109 140.617 138.157 140.826C138.198 141.035 138.259 141.223 138.341 141.391C138.458 141.64 138.622 141.849 138.814 142.004C138.875 142.058 138.944 142.105 139.019 142.145L147.785 147.154C147.217 146.83 146.861 146.137 146.861 145.154L146.567 43.1862C146.567 43.0045 146.581 42.8227 146.601 42.641C146.601 42.5939 146.608 42.5535 146.615 42.5064C146.629 42.4256 146.642 42.3381 146.656 42.2573C146.67 42.2034 146.676 42.1429 146.69 42.089C146.704 42.0352 146.718 41.9813 146.731 41.9275C146.752 41.8534 146.772 41.7794 146.793 41.7053C146.807 41.6649 146.82 41.6178 146.834 41.5774C146.861 41.4966 146.889 41.4091 146.916 41.3284C146.93 41.2947 146.943 41.261 146.95 41.2274C146.991 41.113 147.039 40.9985 147.087 40.8841C147.087 40.8706 147.101 40.8572 147.108 40.8437C147.156 40.7427 147.203 40.6418 147.251 40.5408C147.265 40.5071 147.286 40.4802 147.299 40.4465C147.347 40.3523 147.402 40.2581 147.457 40.1638C147.47 40.1436 147.477 40.1302 147.484 40.11C147.546 40.0023 147.614 39.8946 147.682 39.7936C147.703 39.7667 147.724 39.733 147.744 39.7061C147.792 39.632 147.847 39.558 147.901 39.4839C147.929 39.4436 147.956 39.4032 147.99 39.3695C148.038 39.3089 148.086 39.2483 148.134 39.1878C148.175 39.1406 148.216 39.0868 148.257 39.0397C148.298 38.9925 148.339 38.9522 148.38 38.905C148.449 38.831 148.517 38.7569 148.593 38.6829C148.641 38.6358 148.682 38.5954 148.729 38.5483C148.764 38.5146 148.798 38.481 148.839 38.4473C148.901 38.3934 148.955 38.3463 149.017 38.2925C149.051 38.2655 149.085 38.2319 149.126 38.205C149.195 38.1511 149.256 38.104 149.325 38.0569C149.359 38.0367 149.386 38.0098 149.421 37.9896C149.523 37.9222 149.619 37.8617 149.722 37.8011L197.652 10.5993C197.789 10.5252 197.919 10.4579 198.049 10.4041C198.09 10.3839 198.131 10.3704 198.172 10.3569C198.247 10.33 198.323 10.3031 198.398 10.2829C198.446 10.2694 198.494 10.256 198.535 10.2425C198.576 10.229 198.624 10.2223 198.665 10.2156C198.719 10.2021 198.774 10.1954 198.829 10.1887C198.863 10.1887 198.891 10.1819 198.925 10.1819C198.993 10.1819 199.062 10.1819 199.13 10.1819C199.144 10.1819 199.164 10.1819 199.178 10.1819C199.26 10.1819 199.335 10.1954 199.411 10.2089C199.431 10.2089 199.445 10.2156 199.465 10.2223C199.527 10.2358 199.582 10.2492 199.636 10.2694C199.657 10.2694 199.671 10.2829 199.691 10.2896C199.76 10.3166 199.835 10.3502 199.896 10.3839L191.144 5.36894Z" fill="#D1E4FF"/>
<path d="M146.813 134.162L138.047 129.153L137.801 42.3513L146.56 47.3663L146.813 134.162Z" fill="#00A500"/>
<path d="M201.094 103.338L146.814 134.162L146.752 113.873L146.732 105.964L146.615 64.6594L146.588 54.4343L146.561 47.3663L200.841 16.543L201.094 103.338Z" fill="#D2F7D9"/>
<path d="M197.652 10.5992C199.397 9.60968 200.821 10.404 200.828 12.3763L200.841 16.5363L146.561 47.3664L146.814 134.168L201.094 103.345L201.129 114.351C201.129 116.323 199.719 118.733 197.974 119.73L150.023 146.958C148.271 147.954 146.855 147.153 146.848 145.181L146.554 43.2131C146.554 41.234 147.957 38.8309 149.708 37.8347L197.652 10.5992Z" fill="white"/>
<path d="M180.865 126.494L173.085 130.91C171.285 131.933 169.807 130.836 169.807 128.474C169.807 126.111 171.278 123.337 173.085 122.314L180.865 117.898C182.665 116.875 184.143 117.972 184.143 120.335C184.143 122.698 182.672 125.471 180.865 126.494Z" fill="#D2F7D9"/>
<path d="M204.05 143.303L201.73 142.166L203.01 146.453L205.33 147.591L204.05 143.303Z" fill="#048C04"/>
<path d="M201.663 135.313L199.35 134.168L201.156 140.234L203.476 141.371L201.663 135.313Z" fill="#048C04"/>
<path d="M203.476 141.371L201.156 140.234L190.733 146.09L193.046 147.228L203.476 141.371Z" fill="#048C04"/>
<path d="M199.281 127.316L196.968 126.178L198.774 132.237L201.087 133.374L199.281 127.316Z" fill="#048C04"/>
<path d="M201.088 133.374L198.775 132.237L188.346 138.093L190.666 139.231L201.088 133.374Z" fill="#048C04"/>
<path d="M196.899 119.319L194.579 118.181L196.386 124.24L198.706 125.384L196.899 119.319Z" fill="#048C04"/>
<path d="M198.706 125.384L196.386 124.24L185.964 130.096L188.277 131.24L198.706 125.384Z" fill="#048C04"/>
<path d="M194.511 111.329L192.198 110.184L194.005 116.249L196.318 117.387L194.511 111.329Z" fill="#048C04"/>
<path d="M196.317 117.387L194.004 116.25L183.575 122.106L185.895 123.243L196.317 117.387Z" fill="#048C04"/>
<path d="M192.129 103.332L189.81 102.194L191.623 108.252L193.936 109.39L192.129 103.332Z" fill="#048C04"/>
<path d="M191.884 98.162L189.571 97.0244L188.455 97.6437L190.775 98.7881L191.884 98.162Z" fill="#048C04"/>
<path d="M190.775 98.7881L188.455 97.6438L189.235 100.256L191.555 101.4L190.775 98.7881Z" fill="#048C04"/>
<path d="M193.936 109.39L191.623 108.252L181.194 114.109L183.507 115.246L193.936 109.39Z" fill="#048C04"/>
<path d="M191.555 101.4L189.235 100.256L178.812 106.112L181.126 107.256L191.555 101.4Z" fill="#048C04"/>
<path d="M180.345 104.644L178.032 103.5L176.917 104.126L179.237 105.264L180.345 104.644Z" fill="#048C04"/>
<path d="M181.126 107.256L191.555 101.4L190.775 98.7881L191.884 98.1621L206.439 146.965L205.331 147.591L204.051 143.303L193.622 149.16L194.902 153.448L193.793 154.074L179.237 105.271L180.346 104.644L181.126 107.256ZM193.047 147.228L203.476 141.371L201.669 135.313L191.24 141.169L193.047 147.228ZM183.507 115.247L193.937 109.39L192.13 103.332L181.701 109.188L183.507 115.247ZM185.889 123.243L196.318 117.387L194.511 111.329L184.082 117.185L185.889 123.243ZM188.27 131.24L198.7 125.384L196.893 119.326L186.464 125.182L188.27 131.24ZM190.652 139.237L201.081 133.381L199.274 127.323L188.845 133.179L190.652 139.237Z" fill="white"/>
<path d="M179.237 105.264L176.917 104.126L191.473 152.929L193.792 154.073L179.237 105.264Z" fill="#048C04"/>
<path d="M231.93 63.9931L218.75 71.4784V63.4344L231.93 55.949V63.9931Z" fill="#63D900"/>
<path d="M220.693 65.1374L222.302 64.2219V67.9713L220.693 68.8801V65.1374Z" fill="white"/>
<path d="M223.089 64.3364L224.69 63.4209V66.6116L223.089 67.5271V64.3364Z" fill="white"/>
<path d="M228.159 60.8967L229.767 59.9812V63.7306L228.159 64.6394V60.8967Z" fill="white"/>
<path d="M225.669 63.1448L227.27 62.2361V65.1441L225.669 66.0595V63.1448Z" fill="white"/>
<path opacity="0.7" d="M199.986 24.1025V34.3478L146.615 64.6595L146.588 54.4345L199.986 24.1025Z" fill="#00A500"/>
<path d="M144.795 75.9953L122.862 88.4418V80.5189L144.795 68.0657V75.9953Z" fill="#BDD7FF"/>
<path d="M123.957 83.8576C123.957 82.1141 125.196 80.0005 126.729 79.1321C128.261 78.2637 129.5 78.9705 129.5 80.7073C129.5 82.444 128.261 84.5644 126.729 85.4327C125.196 86.3011 123.957 85.5943 123.957 83.8576Z" fill="#4267CA"/>
<path d="M126.018 82.0469C126.018 81.6027 126.339 81.0574 126.729 80.8353C127.119 80.6131 127.441 80.7949 127.441 81.2392C127.441 81.6834 127.119 82.2287 126.729 82.4508C126.339 82.673 126.018 82.4912 126.018 82.0469Z" fill="white"/>
<path d="M126.729 81.9055C126.079 82.2757 125.552 83.171 125.552 83.9047C125.552 83.9182 125.552 83.9317 125.552 83.9451C125.88 84.0394 126.277 83.9855 126.722 83.7364C127.16 83.4874 127.564 83.0835 127.892 82.619C127.892 82.6056 127.892 82.5854 127.892 82.5719C127.892 81.8382 127.365 81.5353 126.715 81.9055H126.729Z" fill="white"/>
<path d="M135.707 75.9011L131.238 78.4321V77.9273L135.707 75.3962V75.9011Z" fill="white"/>
<path d="M144.131 72.4881L131.238 79.7985V79.2936L144.131 71.9766V72.4881Z" fill="white"/>
<path d="M144.131 73.343L131.238 80.6601V80.1552L144.131 72.8381V73.343Z" fill="white"/>
<path d="M144.131 74.2046L131.238 81.5217V81.0101L144.131 73.6997V74.2046Z" fill="white"/>
<path d="M184.896 87.6675L184.513 86.9943C184.513 86.9943 184.136 86.6039 184.095 86.5568C184.095 86.5568 183.958 86.2875 183.911 86.2135C183.863 86.1394 183.582 86.2 183.507 86.4154C183.493 86.5972 183.664 86.7049 183.664 86.7049C183.664 86.7049 183.178 86.6039 183.151 86.5904C183.13 86.577 182.829 86.4625 182.795 86.4356C182.761 86.4087 182.638 86.4693 182.631 86.5433C182.631 86.5433 182.604 86.4693 182.556 86.4895C182.515 86.5029 182.398 86.5904 182.426 86.678C182.439 86.7049 182.453 86.7385 182.453 86.7385C182.453 86.7385 182.419 86.7453 182.364 86.8059C182.316 86.8597 182.337 86.927 182.343 86.9539C182.35 86.9741 182.385 87.0549 182.385 87.0549C182.385 87.0549 182.309 87.0953 182.323 87.1559C182.337 87.2232 182.624 87.3915 182.734 87.4857C182.857 87.5867 183.199 87.8492 183.322 87.8896C183.452 87.9367 183.712 88.0041 183.712 88.0041L184.116 88.3137L184.889 87.6675H184.896Z" fill="#EFB387"/>
<path d="M192.732 91.2284L192.862 92.9449L186.422 92.2179L184.123 88.3137L184.896 87.6675L187.298 90.2995L192.075 90.2591L192.732 91.2284Z" fill="#E7006A"/>
<path d="M191.391 112.762H190.467L189.817 112.601L188.708 112.796L187.818 112.52L187.873 111.941L189.604 111.679L191.363 111.658L191.391 112.762Z" fill="#001829"/>
<path d="M190.2 113.206H189.269L188.619 113.038L187.511 113.233L186.628 112.964L186.676 112.379L188.414 112.123L190.166 112.103L190.2 113.206Z" fill="#001829"/>
<path d="M192.828 99.1716L192.978 100.632L192.164 104.463L192.506 106.953L191.384 112.231L190.036 112.029L189.358 100.538L192.828 99.1716Z" fill="url(#paint0_linear_3102_2051)"/>
<path d="M186.97 99.6225L186.819 101.81L188.25 106.63L188.414 112.123L190.166 112.103L190.241 103.177L190.248 102.382L191.391 101.487L191.822 99.5686L186.97 99.6225Z" fill="url(#paint1_linear_3102_2051)"/>
<path d="M194.141 92.7429L193.053 96.7078L192.828 99.1715L190.535 100.073L189.358 100.538L186.97 99.6225L187.62 97.7242L188.01 96.5731L188.27 92.3256L189.762 91.087L192.075 90.259L193.792 90.8918L194.141 92.7429Z" fill="#E7006A"/>
<path d="M189.091 87.5667L188.982 87.9705L189.036 88.159L188.893 88.5091L189.255 90.1987L189.495 90.2862L189.721 90.3131L190.295 89.438L190.378 88.4417L189.474 87.9975L189.091 87.5667Z" fill="#EFB387"/>
<path d="M189.714 90.091L189.687 91.1882C189.687 91.1882 190.412 91.3094 190.809 91.2151C191.213 91.1209 192.034 90.6295 192.034 90.6295L191.945 89.5188L190.056 89.3303L189.714 90.091Z" fill="#EFB387"/>
<path d="M192.424 87.7416L191.993 89.8553L190.378 90.5419L189.741 89.788L189.96 89.2899L189.755 89.0341L189.748 89.0273L189.433 89.31L189.194 89.1216L189.385 88.3878L189.166 88.2128L188.872 87.7753L188.988 87.3647L190.09 86.7925H190.747L192.424 87.7416Z" fill="#915236"/>
<path d="M192.424 87.7417L191.993 89.8554L190.378 90.542L189.741 89.7881L189.96 89.2899L189.755 89.0341L189.837 88.6639L192.424 87.7417Z" fill="#713E23"/>
<path d="M189.358 100.538L186.97 99.6225L188.119 94.7759L189.105 95.0249L189.358 100.538Z" fill="url(#paint2_linear_3102_2051)"/>
<path d="M181.139 89.7476L180.756 89.0744C180.756 89.0744 180.38 88.684 180.339 88.6369C180.339 88.6369 180.202 88.3676 180.154 88.2936C180.106 88.2195 179.825 88.2801 179.75 88.4955C179.736 88.6773 179.907 88.785 179.907 88.785C179.907 88.785 179.422 88.684 179.394 88.6705C179.374 88.6571 179.073 88.5426 179.038 88.5157C179.004 88.4888 178.881 88.5494 178.874 88.6234C178.874 88.6234 178.847 88.5494 178.799 88.5696C178.758 88.583 178.641 88.6705 178.669 88.758C178.682 88.785 178.696 88.8186 178.696 88.8186C178.696 88.8186 178.662 88.8253 178.607 88.8859C178.559 88.9398 178.58 89.0071 178.587 89.034C178.593 89.0542 178.628 89.135 178.628 89.135C178.628 89.135 178.552 89.1754 178.566 89.236C178.58 89.3033 178.867 89.4716 178.977 89.5658C179.1 89.6668 179.442 89.9293 179.565 89.9697C179.695 90.0168 179.955 90.0841 179.955 90.0841L180.359 90.3938L181.132 89.7476H181.139Z" fill="#EFB387"/>
<path d="M188.968 93.3085L189.105 95.025L182.659 94.298L180.366 90.3938L181.139 89.7476L183.535 92.3796L188.756 92.2113L188.968 93.3085Z" fill="#E7006A"/>
<path d="M199.979 30.7935L122 75.0797V64.8345L199.979 20.5415V30.7935Z" fill="white"/>
<path d="M125.141 68.1733C125.141 67.3992 125.695 66.45 126.379 66.0663C127.064 65.6759 127.618 65.9923 127.618 66.7664C127.618 67.5405 127.064 68.4897 126.379 68.8734C125.695 69.2638 125.141 68.9474 125.141 68.1733Z" fill="#F6416C"/>
<path d="M129.486 65.7028C129.486 64.9287 130.041 63.9796 130.725 63.5959C131.409 63.2055 131.964 63.5218 131.964 64.296C131.964 65.0701 131.409 66.0192 130.725 66.4029C130.041 66.7933 129.486 66.477 129.486 65.7028Z" fill="#FFD822"/>
<path d="M133.832 63.2392C133.832 62.4651 134.386 61.516 135.071 61.1323C135.755 60.7418 136.309 61.0582 136.309 61.8323C136.309 62.6065 135.755 63.5556 135.071 63.9393C134.386 64.3297 133.832 64.0133 133.832 63.2392Z" fill="#1354FE"/>
<path d="M195.011 31.0829L139.067 62.8553V57.6721L195.011 25.8997V31.0829Z" fill="#F2F2F2"/>
<path d="M188.373 66.9685C188.414 66.955 188.455 66.9415 188.496 66.9281C188.523 66.9213 188.551 66.9146 188.571 66.9079C188.592 66.9079 188.619 66.8944 188.64 66.8944C188.674 66.8944 188.701 66.881 188.728 66.881C188.749 66.881 188.763 66.881 188.783 66.881C188.824 66.881 188.858 66.881 188.893 66.881C188.9 66.881 188.913 66.881 188.92 66.881C188.961 66.881 189.009 66.8877 189.05 66.8944C189.064 66.8944 189.071 66.8944 189.077 66.9012C189.112 66.9079 189.139 66.9146 189.173 66.9281C189.18 66.9281 189.194 66.9281 189.201 66.9415C189.242 66.955 189.276 66.9752 189.317 66.9954L186.963 65.6356C186.963 65.6356 186.963 65.6356 186.956 65.6356C186.929 65.6222 186.901 65.6087 186.867 65.5952C186.867 65.5952 186.853 65.5952 186.847 65.5952C186.84 65.5952 186.826 65.5885 186.819 65.5818C186.806 65.5818 186.792 65.5683 186.771 65.5683C186.758 65.5683 186.737 65.5616 186.723 65.5549C186.717 65.5549 186.703 65.5549 186.696 65.5481H186.682C186.648 65.5481 186.614 65.5414 186.58 65.5347C186.58 65.5347 186.58 65.5347 186.573 65.5347C186.566 65.5347 186.559 65.5347 186.545 65.5347C186.518 65.5347 186.491 65.5347 186.463 65.5347C186.457 65.5347 186.443 65.5347 186.436 65.5347C186.415 65.5347 186.402 65.5347 186.381 65.5347C186.368 65.5347 186.347 65.5347 186.333 65.5347C186.32 65.5347 186.306 65.5347 186.292 65.5414C186.272 65.5414 186.244 65.5481 186.224 65.5549C186.21 65.5549 186.196 65.5549 186.183 65.5616C186.169 65.5616 186.155 65.5683 186.142 65.5751C186.101 65.5885 186.06 65.602 186.019 65.6154C186.005 65.6154 185.991 65.6222 185.977 65.6289C185.971 65.6289 185.964 65.6356 185.95 65.6424C185.882 65.676 185.806 65.7097 185.731 65.7501L174.05 72.3873C173.954 72.4411 173.865 72.5017 173.776 72.569C173.762 72.5825 173.749 72.5892 173.728 72.6027C173.646 72.67 173.564 72.7373 173.482 72.8114C173.482 72.8114 173.468 72.8248 173.461 72.8316C173.447 72.845 173.434 72.8585 173.427 72.8719C173.386 72.9123 173.352 72.9527 173.311 72.9931C173.297 73.0066 173.283 73.02 173.276 73.0335C173.27 73.047 173.256 73.0537 173.249 73.0672C173.228 73.0941 173.201 73.121 173.181 73.1479C173.167 73.1681 173.153 73.1816 173.133 73.2018C173.119 73.2153 173.112 73.2287 173.098 73.2489C173.085 73.2691 173.064 73.2893 173.051 73.3095C173.037 73.323 173.03 73.3364 173.016 73.3566C172.996 73.3835 172.982 73.4105 172.962 73.4307C172.948 73.4441 172.941 73.4643 172.927 73.4778C172.927 73.4845 172.921 73.4912 172.914 73.498C172.879 73.5451 172.852 73.5922 172.825 73.6393C172.825 73.6393 172.825 73.6393 172.825 73.6461C172.825 73.6528 172.811 73.6663 172.811 73.673C172.791 73.7066 172.77 73.747 172.749 73.7807C172.743 73.7942 172.736 73.8144 172.722 73.8278C172.715 73.8413 172.702 73.8615 172.695 73.8749C172.688 73.8884 172.681 73.9086 172.674 73.9221C172.654 73.9624 172.64 74.0028 172.619 74.0432C172.619 74.05 172.613 74.0567 172.606 74.0634C172.606 74.0634 172.606 74.0634 172.606 74.0702C172.585 74.124 172.565 74.1711 172.544 74.225C172.544 74.2317 172.544 74.2452 172.537 74.2519C172.53 74.2721 172.524 74.2856 172.517 74.3057C172.51 74.3327 172.496 74.3596 172.489 74.3865C172.489 74.4067 172.476 74.4269 172.469 74.4471C172.462 74.4673 172.455 74.4942 172.448 74.5144C172.448 74.5279 172.442 74.5413 172.435 74.5615C172.428 74.5885 172.421 74.6154 172.414 74.6423C172.407 74.6692 172.4 74.7029 172.394 74.7298C172.394 74.7433 172.394 74.75 172.387 74.7635C172.387 74.7837 172.38 74.8039 172.373 74.8241C172.366 74.8712 172.359 74.9116 172.353 74.9587C172.353 74.9722 172.353 74.9856 172.353 74.9991C172.353 75.0126 172.353 75.0193 172.353 75.0327C172.339 75.1337 172.332 75.2347 172.332 75.3357L172.373 88.5428C172.373 89.0813 172.572 89.465 172.879 89.64L175.234 90.9998C174.919 90.818 174.727 90.441 174.727 89.9025L174.686 76.6954C174.686 76.5944 174.693 76.4935 174.707 76.3925C174.707 76.3656 174.707 76.3454 174.713 76.3185C174.713 76.2713 174.727 76.2309 174.734 76.1838C174.734 76.1502 174.748 76.1232 174.755 76.0896C174.755 76.0627 174.768 76.029 174.775 76.0021C174.789 75.9617 174.796 75.9213 174.809 75.8809C174.816 75.8607 174.823 75.8338 174.83 75.8136C174.844 75.7665 174.857 75.7194 174.878 75.6722C174.878 75.652 174.891 75.6386 174.898 75.6184C174.926 75.5578 174.946 75.4905 174.974 75.4299C174.974 75.4232 174.98 75.4164 174.987 75.4097C175.015 75.3559 175.042 75.302 175.069 75.2482C175.076 75.228 175.09 75.2145 175.097 75.1943C175.124 75.1405 175.151 75.0933 175.186 75.0395C175.186 75.0327 175.199 75.0193 175.199 75.0125C175.234 74.952 175.268 74.8981 175.309 74.8375C175.323 74.8241 175.329 74.8039 175.343 74.7904C175.37 74.75 175.398 74.7096 175.432 74.6692C175.446 74.6491 175.466 74.6289 175.48 74.6087C175.507 74.575 175.535 74.5413 175.562 74.5077C175.583 74.4808 175.61 74.4538 175.63 74.4269C175.651 74.4 175.672 74.3798 175.699 74.3529C175.74 74.3125 175.774 74.2721 175.815 74.2317C175.836 74.2115 175.856 74.1913 175.87 74.1779C175.952 74.1038 176.034 74.0298 176.116 73.9692C176.13 73.9557 176.144 73.949 176.164 73.9355C176.253 73.8682 176.342 73.8076 176.438 73.7538L188.119 67.1166C188.195 67.0762 188.263 67.0425 188.338 67.0089C188.359 67.0021 188.386 66.9887 188.407 66.9819L188.373 66.9685Z" fill="#C63260"/>
<path d="M188.086 67.103C189.044 66.5578 189.824 66.9953 189.831 68.0791L189.872 81.2862C189.872 82.37 189.098 83.6961 188.14 84.2413L176.459 90.8785C175.501 91.4238 174.714 90.9862 174.714 89.9025L174.673 76.6954C174.673 75.6116 175.446 74.2855 176.411 73.7402L188.092 67.103H188.086Z" fill="#FE769C"/>
<path d="M181.68 74.4471C180.003 75.3962 178.648 77.7118 178.648 79.6168C178.648 81.5218 180.01 82.2892 181.68 81.3401C183.357 80.3909 184.712 78.0753 184.712 76.1703C184.712 74.2653 183.35 73.4979 181.68 74.4471ZM181.68 80.3034C180.51 80.9699 179.559 80.4313 179.559 79.0985C179.559 77.7657 180.51 76.1501 181.68 75.4837C182.85 74.8173 183.801 75.3558 183.801 76.6886C183.801 78.0215 182.85 79.637 181.68 80.3034Z" fill="white"/>
<path d="M181.68 75.9751C180.749 76.5069 179.989 77.7926 179.989 78.8562C179.989 79.9198 180.749 80.3438 181.68 79.8188C182.61 79.287 183.37 78.0013 183.37 76.9377C183.37 75.8742 182.61 75.4501 181.68 75.9751Z" fill="white"/>
<path d="M185.369 81.4613L183.795 83.225L182.228 80.492L183.795 78.7351L185.369 81.4613Z" fill="white"/>
<path d="M166.214 60.7351C166.255 60.7216 166.297 60.7081 166.338 60.6947C166.365 60.6879 166.392 60.6812 166.413 60.6745C166.433 60.6745 166.461 60.661 166.481 60.661C166.516 60.661 166.543 60.6476 166.57 60.6476C166.591 60.6476 166.604 60.6476 166.625 60.6476C166.666 60.6476 166.7 60.6476 166.735 60.6476C166.741 60.6476 166.755 60.6476 166.762 60.6476C166.803 60.6476 166.851 60.6543 166.892 60.661C166.906 60.661 166.912 60.661 166.919 60.6678C166.953 60.6745 166.981 60.6812 167.015 60.6947C167.022 60.6947 167.036 60.6947 167.042 60.7081C167.084 60.7216 167.118 60.7418 167.159 60.762L164.805 59.4022C164.805 59.4022 164.805 59.4022 164.798 59.4022C164.77 59.3888 164.743 59.3753 164.709 59.3619C164.709 59.3619 164.695 59.3619 164.688 59.3619C164.682 59.3619 164.668 59.3551 164.661 59.3484C164.647 59.3484 164.634 59.3349 164.613 59.3349C164.599 59.3349 164.579 59.3282 164.565 59.3215C164.558 59.3215 164.545 59.3215 164.538 59.3147H164.524C164.49 59.3147 164.456 59.308 164.421 59.3013C164.421 59.3013 164.421 59.3013 164.415 59.3013C164.408 59.3013 164.401 59.3013 164.387 59.3013C164.36 59.3013 164.333 59.3013 164.305 59.3013C164.298 59.3013 164.285 59.3013 164.278 59.3013C164.257 59.3013 164.244 59.3013 164.223 59.3013C164.209 59.3013 164.189 59.3013 164.175 59.3013C164.161 59.3013 164.148 59.3013 164.134 59.308C164.114 59.308 164.086 59.3147 164.066 59.3215C164.052 59.3215 164.038 59.3215 164.025 59.3282C164.011 59.3282 163.997 59.3349 163.984 59.3417C163.942 59.3551 163.901 59.3686 163.86 59.382C163.847 59.382 163.833 59.3888 163.819 59.3955C163.812 59.3955 163.806 59.4022 163.792 59.409C163.723 59.4426 163.648 59.4763 163.573 59.5167L151.891 66.1539C151.796 66.2077 151.707 66.2683 151.618 66.3356C151.604 66.3491 151.59 66.3558 151.57 66.3693C151.488 66.4366 151.406 66.5039 151.323 66.578C151.323 66.578 151.31 66.5914 151.303 66.5982C151.289 66.6116 151.276 66.6251 151.269 66.6386C151.228 66.6789 151.193 66.7193 151.152 66.7597C151.139 66.7732 151.125 66.7866 151.118 66.8001C151.111 66.8136 151.098 66.8203 151.091 66.8338C151.07 66.8607 151.043 66.8876 151.022 66.9145C151.009 66.9347 150.995 66.9482 150.974 66.9684C150.961 66.9819 150.954 66.9953 150.94 67.0155C150.927 67.0357 150.906 67.0559 150.892 67.0761C150.879 67.0896 150.872 67.103 150.858 67.1232C150.838 67.1501 150.824 67.1771 150.803 67.1973C150.79 67.2107 150.783 67.2309 150.769 67.2444C150.769 67.2511 150.762 67.2578 150.756 67.2646C150.721 67.3117 150.694 67.3588 150.667 67.4059C150.667 67.4059 150.667 67.4059 150.667 67.4127C150.667 67.4194 150.653 67.4329 150.653 67.4396C150.632 67.4733 150.612 67.5136 150.591 67.5473C150.584 67.5608 150.578 67.581 150.564 67.5944C150.557 67.6079 150.543 67.6281 150.537 67.6415C150.53 67.655 150.523 67.6752 150.516 67.6887C150.495 67.729 150.482 67.7694 150.461 67.8098C150.461 67.8166 150.454 67.8233 150.448 67.83C150.448 67.83 150.448 67.83 150.448 67.8368C150.427 67.8906 150.406 67.9377 150.386 67.9916C150.386 67.9983 150.386 68.0118 150.379 68.0185C150.372 68.0387 150.365 68.0522 150.359 68.0724C150.352 68.0993 150.338 68.1262 150.331 68.1531C150.331 68.1733 150.318 68.1935 150.311 68.2137C150.304 68.2339 150.297 68.2608 150.29 68.281C150.29 68.2945 150.283 68.308 150.276 68.3281C150.27 68.3551 150.263 68.382 150.256 68.4089C150.249 68.4359 150.242 68.4695 150.235 68.4964C150.235 68.5099 150.235 68.5166 150.229 68.5301C150.229 68.5503 150.222 68.5705 150.215 68.5907C150.208 68.6378 150.194 68.6782 150.194 68.7253C150.194 68.7388 150.194 68.7522 150.194 68.7657C150.194 68.7792 150.194 68.7859 150.194 68.7993C150.181 68.9003 150.174 69.0013 150.174 69.1023L150.215 82.3094C150.215 82.8479 150.413 83.2316 150.721 83.4066L153.075 84.7664C152.761 84.5846 152.569 84.2076 152.569 83.6691L152.528 70.462C152.528 70.361 152.535 70.2601 152.548 70.1591C152.548 70.1322 152.548 70.112 152.555 70.0851C152.555 70.0379 152.569 69.9975 152.576 69.9504C152.576 69.9168 152.589 69.8898 152.596 69.8562C152.596 69.8293 152.61 69.7956 152.617 69.7687C152.631 69.7283 152.637 69.6879 152.651 69.6475C152.658 69.6273 152.665 69.6004 152.672 69.5802C152.685 69.5331 152.699 69.486 152.72 69.4388C152.72 69.4186 152.733 69.4052 152.74 69.385C152.767 69.3244 152.788 69.2571 152.815 69.1965C152.815 69.1898 152.822 69.183 152.829 69.1763C152.856 69.1225 152.884 69.0686 152.911 69.0148C152.918 68.9946 152.932 68.9811 152.939 68.9609C152.966 68.9071 152.993 68.8599 153.027 68.8061C153.027 68.7994 153.041 68.7859 153.041 68.7792C153.075 68.7186 153.11 68.6647 153.151 68.6041C153.164 68.5839 153.171 68.5705 153.185 68.557C153.212 68.5166 153.24 68.4762 153.274 68.4359C153.288 68.4157 153.308 68.3955 153.322 68.3753C153.349 68.3416 153.376 68.308 153.404 68.2743C153.424 68.2474 153.452 68.2204 153.472 68.1935C153.493 68.1666 153.513 68.1464 153.541 68.1195C153.582 68.0791 153.616 68.0387 153.657 67.9983C153.678 67.9781 153.698 67.9579 153.712 67.9445C153.794 67.8704 153.876 67.7964 153.958 67.7358C153.972 67.7223 153.986 67.7156 154.006 67.7021C154.095 67.6348 154.184 67.5742 154.28 67.5204L165.961 60.8832C166.036 60.8428 166.105 60.8091 166.18 60.7755C166.201 60.7687 166.228 60.7553 166.249 60.7485L166.214 60.7351Z" fill="#00A500"/>
<path d="M165.927 60.8696C166.885 60.3244 167.666 60.7619 167.672 61.8457L167.714 75.0528C167.714 76.1366 166.94 77.4627 165.982 78.0079L154.301 84.6451C153.343 85.1904 152.556 84.7528 152.556 83.6691L152.515 70.462C152.515 69.3782 153.288 68.0521 154.253 67.5068L165.934 60.8696H165.927Z" fill="#63D900"/>
<path d="M166.214 103.904C166.255 103.89 166.297 103.877 166.338 103.863C166.365 103.857 166.392 103.85 166.413 103.843C166.433 103.843 166.461 103.83 166.481 103.83C166.516 103.83 166.543 103.816 166.57 103.816C166.591 103.816 166.604 103.816 166.625 103.816C166.666 103.816 166.7 103.816 166.735 103.816C166.741 103.816 166.755 103.816 166.762 103.816C166.803 103.816 166.851 103.823 166.892 103.83C166.906 103.83 166.912 103.83 166.919 103.836C166.953 103.843 166.981 103.85 167.015 103.863C167.022 103.863 167.036 103.863 167.042 103.877C167.084 103.89 167.118 103.911 167.159 103.931L164.805 102.571C164.805 102.571 164.805 102.571 164.798 102.571C164.77 102.557 164.743 102.544 164.709 102.531C164.709 102.531 164.695 102.531 164.688 102.531C164.682 102.531 164.668 102.524 164.661 102.517C164.647 102.517 164.634 102.504 164.613 102.504C164.599 102.504 164.579 102.497 164.565 102.49C164.558 102.49 164.545 102.49 164.538 102.483H164.524C164.49 102.483 164.456 102.477 164.421 102.47C164.421 102.47 164.421 102.47 164.415 102.47C164.408 102.47 164.401 102.47 164.387 102.47C164.36 102.47 164.333 102.47 164.305 102.47C164.298 102.47 164.285 102.47 164.278 102.47C164.257 102.47 164.244 102.47 164.223 102.47C164.209 102.47 164.189 102.47 164.175 102.47C164.161 102.47 164.148 102.47 164.134 102.477C164.114 102.477 164.086 102.483 164.066 102.49C164.052 102.49 164.038 102.49 164.025 102.497C164.011 102.497 163.997 102.504 163.984 102.51C163.942 102.524 163.901 102.537 163.86 102.551C163.847 102.551 163.833 102.557 163.819 102.564C163.812 102.564 163.806 102.571 163.792 102.578C163.723 102.611 163.648 102.645 163.573 102.685L151.891 109.323C151.796 109.376 151.707 109.437 151.618 109.504C151.604 109.518 151.59 109.525 151.57 109.538C151.488 109.605 151.406 109.673 151.323 109.747C151.323 109.747 151.31 109.76 151.303 109.767C151.289 109.78 151.276 109.794 151.269 109.807C151.228 109.848 151.193 109.888 151.152 109.928C151.139 109.942 151.125 109.955 151.118 109.969C151.111 109.982 151.098 109.989 151.091 110.002C151.07 110.029 151.043 110.056 151.022 110.083C151.009 110.103 150.995 110.117 150.974 110.137C150.961 110.151 150.954 110.164 150.94 110.184C150.927 110.204 150.906 110.225 150.892 110.245C150.879 110.258 150.872 110.272 150.858 110.292C150.838 110.319 150.824 110.346 150.803 110.366C150.79 110.379 150.783 110.4 150.769 110.413C150.769 110.42 150.762 110.427 150.756 110.433C150.721 110.48 150.694 110.528 150.667 110.575C150.667 110.575 150.667 110.575 150.667 110.581C150.667 110.588 150.653 110.602 150.653 110.608C150.632 110.642 150.612 110.682 150.591 110.716C150.584 110.729 150.578 110.75 150.564 110.763C150.557 110.777 150.543 110.797 150.537 110.81C150.53 110.824 150.523 110.844 150.516 110.857C150.495 110.898 150.482 110.938 150.461 110.979C150.461 110.985 150.454 110.992 150.448 110.999C150.448 110.999 150.448 110.999 150.448 111.005C150.427 111.059 150.406 111.106 150.386 111.16C150.386 111.167 150.386 111.18 150.379 111.187C150.372 111.207 150.365 111.221 150.359 111.241C150.352 111.268 150.338 111.295 150.331 111.322C150.331 111.342 150.318 111.362 150.311 111.382C150.304 111.403 150.297 111.43 150.29 111.45C150.29 111.463 150.283 111.477 150.276 111.497C150.27 111.524 150.263 111.551 150.256 111.578C150.249 111.605 150.242 111.638 150.235 111.665C150.235 111.679 150.235 111.685 150.229 111.699C150.229 111.719 150.222 111.739 150.215 111.759C150.208 111.806 150.194 111.847 150.194 111.894C150.194 111.907 150.194 111.921 150.194 111.934C150.194 111.948 150.194 111.955 150.194 111.968C150.181 112.069 150.174 112.17 150.174 112.271L150.215 125.478C150.215 126.017 150.413 126.4 150.721 126.575L153.075 127.935C152.761 127.753 152.569 127.376 152.569 126.838L152.528 113.631C152.528 113.53 152.535 113.429 152.548 113.328C152.548 113.301 152.548 113.281 152.555 113.254C152.555 113.207 152.569 113.166 152.576 113.119C152.576 113.085 152.589 113.059 152.596 113.025C152.596 112.998 152.61 112.964 152.617 112.937C152.631 112.897 152.637 112.857 152.651 112.816C152.658 112.796 152.665 112.769 152.672 112.749C152.685 112.702 152.699 112.655 152.72 112.608C152.72 112.587 152.733 112.574 152.74 112.554C152.767 112.493 152.788 112.426 152.815 112.365C152.815 112.358 152.822 112.352 152.829 112.345C152.856 112.291 152.884 112.237 152.911 112.183C152.918 112.163 152.932 112.15 152.939 112.13C152.966 112.076 152.993 112.029 153.027 111.975C153.027 111.968 153.041 111.955 153.041 111.948C153.075 111.887 153.11 111.833 153.151 111.773C153.164 111.753 153.171 111.739 153.185 111.726C153.212 111.685 153.24 111.645 153.274 111.605C153.288 111.584 153.308 111.564 153.322 111.544C153.349 111.51 153.376 111.477 153.404 111.443C153.424 111.416 153.452 111.389 153.472 111.362C153.493 111.335 153.513 111.315 153.541 111.288C153.582 111.248 153.616 111.207 153.657 111.167C153.678 111.147 153.698 111.127 153.712 111.113C153.794 111.039 153.876 110.965 153.958 110.904C153.972 110.891 153.986 110.884 154.006 110.871C154.095 110.804 154.184 110.743 154.28 110.689L165.961 104.052C166.036 104.011 166.105 103.978 166.18 103.944C166.201 103.937 166.228 103.924 166.249 103.917L166.214 103.904Z" fill="#0CA587"/>
<path d="M165.927 104.038C166.885 103.493 167.666 103.931 167.672 105.014L167.714 118.222C167.714 119.305 166.94 120.631 165.982 121.177L154.301 127.814C153.343 128.359 152.556 127.922 152.556 126.838L152.515 113.631C152.515 112.547 153.288 111.221 154.253 110.676L165.934 104.038H165.927Z" fill="#27E0C0"/>
<path d="M210.039 35.1286C210.08 35.1152 210.121 35.1017 210.162 35.0882C210.189 35.0815 210.217 35.0748 210.237 35.068C210.258 35.068 210.285 35.0546 210.306 35.0546C210.34 35.0546 210.367 35.0411 210.394 35.0411C210.415 35.0411 210.429 35.0411 210.449 35.0411C210.49 35.0411 210.525 35.0411 210.559 35.0411C210.566 35.0411 210.579 35.0411 210.586 35.0411C210.627 35.0411 210.675 35.0478 210.716 35.0546C210.73 35.0546 210.737 35.0546 210.743 35.0613C210.778 35.068 210.805 35.0748 210.839 35.0882C210.846 35.0882 210.86 35.0882 210.867 35.1017C210.908 35.1152 210.942 35.1354 210.983 35.1556L208.629 33.7958C208.629 33.7958 208.629 33.7958 208.622 33.7958C208.595 33.7823 208.567 33.7689 208.533 33.7554C208.533 33.7554 208.519 33.7554 208.513 33.7554C208.506 33.7554 208.492 33.7487 208.485 33.7419C208.472 33.7419 208.458 33.7285 208.437 33.7285C208.424 33.7285 208.403 33.7217 208.389 33.715C208.383 33.715 208.369 33.715 208.362 33.7083H208.348C208.314 33.7083 208.28 33.7016 208.246 33.6948C208.246 33.6948 208.246 33.6948 208.239 33.6948C208.232 33.6948 208.225 33.6948 208.211 33.6948C208.184 33.6948 208.157 33.6948 208.129 33.6948C208.123 33.6948 208.109 33.6948 208.102 33.6948C208.081 33.6948 208.068 33.6948 208.047 33.6948C208.034 33.6948 208.013 33.6948 207.999 33.6948C207.986 33.6948 207.972 33.6948 207.958 33.7016C207.938 33.7016 207.91 33.7083 207.89 33.715C207.876 33.715 207.862 33.715 207.849 33.7218C207.835 33.7218 207.821 33.7285 207.808 33.7352C207.767 33.7487 207.726 33.7621 207.685 33.7756C207.671 33.7756 207.657 33.7823 207.643 33.7891C207.637 33.7891 207.63 33.7958 207.616 33.8025C207.548 33.8362 207.472 33.8698 207.397 33.9102L195.716 40.5474C195.62 40.6013 195.531 40.6619 195.442 40.7292C195.428 40.7427 195.415 40.7494 195.394 40.7628C195.312 40.8302 195.23 40.8975 195.148 40.9715C195.148 40.9715 195.134 40.985 195.127 40.9917C195.113 41.0052 195.1 41.0186 195.093 41.0321C195.052 41.0725 195.018 41.1129 194.977 41.1533C194.963 41.1667 194.949 41.1802 194.942 41.1937C194.936 41.2071 194.922 41.2139 194.915 41.2273C194.895 41.2542 194.867 41.2812 194.847 41.3081C194.833 41.3283 194.819 41.3418 194.799 41.3619C194.785 41.3754 194.778 41.3889 194.764 41.4091C194.751 41.4293 194.73 41.4495 194.717 41.4697C194.703 41.4831 194.696 41.4966 194.682 41.5168C194.662 41.5437 194.648 41.5706 194.628 41.5908C194.614 41.6043 194.607 41.6245 194.593 41.6379C194.593 41.6447 194.587 41.6514 194.58 41.6581C194.546 41.7053 194.518 41.7524 194.491 41.7995C194.491 41.7995 194.491 41.7995 194.491 41.8062C194.491 41.813 194.477 41.8264 194.477 41.8332C194.457 41.8668 194.436 41.9072 194.415 41.9409C194.409 41.9543 194.402 41.9745 194.388 41.988C194.381 42.0014 194.368 42.0216 194.361 42.0351C194.354 42.0486 194.347 42.0688 194.34 42.0822C194.32 42.1226 194.306 42.163 194.285 42.2034C194.285 42.2101 194.279 42.2168 194.272 42.2236C194.272 42.2236 194.272 42.2236 194.272 42.2303C194.251 42.2842 194.231 42.3313 194.21 42.3851C194.21 42.3919 194.21 42.4053 194.203 42.4121C194.197 42.4323 194.19 42.4457 194.183 42.4659C194.176 42.4928 194.162 42.5198 194.155 42.5467C194.155 42.5669 194.142 42.5871 194.135 42.6073C194.128 42.6275 194.121 42.6544 194.114 42.6746C194.114 42.688 194.108 42.7015 194.101 42.7217C194.094 42.7486 194.087 42.7756 194.08 42.8025C194.073 42.8294 194.066 42.8631 194.06 42.89C194.06 42.9035 194.06 42.9102 194.053 42.9236C194.053 42.9438 194.046 42.964 194.039 42.9842C194.032 43.0313 194.019 43.0717 194.019 43.1189C194.019 43.1323 194.019 43.1458 194.019 43.1592C194.019 43.1727 194.019 43.1794 194.019 43.1929C194.005 43.2939 193.998 43.3948 193.998 43.4958L194.039 56.7029C194.039 57.2414 194.238 57.6251 194.546 57.8002L196.9 59.1599C196.585 58.9782 196.393 58.6012 196.393 58.0627L196.352 44.8556C196.352 44.7546 196.359 44.6536 196.373 44.5527C196.373 44.5257 196.373 44.5055 196.38 44.4786C196.38 44.4315 196.393 44.3911 196.4 44.344C196.4 44.3103 196.414 44.2834 196.421 44.2497C196.421 44.2228 196.434 44.1892 196.441 44.1622C196.455 44.1218 196.462 44.0815 196.475 44.0411C196.482 44.0209 196.489 43.9939 196.496 43.9738C196.51 43.9266 196.523 43.8795 196.544 43.8324C196.544 43.8122 196.557 43.7987 196.564 43.7785C196.592 43.718 196.612 43.6506 196.64 43.5901C196.64 43.5833 196.646 43.5766 196.653 43.5699C196.681 43.516 196.708 43.4622 196.735 43.4083C196.742 43.3881 196.756 43.3747 196.763 43.3545C196.79 43.3006 196.817 43.2535 196.852 43.1996C196.852 43.1929 196.865 43.1794 196.865 43.1727C196.9 43.1121 196.934 43.0583 196.975 42.9977C196.989 42.9842 196.995 42.964 197.009 42.9506C197.036 42.9102 197.064 42.8698 197.098 42.8294C197.112 42.8092 197.132 42.789 197.146 42.7688C197.173 42.7352 197.201 42.7015 197.228 42.6679C197.249 42.6409 197.276 42.614 197.296 42.5871C197.317 42.5601 197.338 42.54 197.365 42.513C197.406 42.4726 197.44 42.4323 197.481 42.3919C197.502 42.3717 197.522 42.3515 197.536 42.338C197.618 42.264 197.7 42.1899 197.782 42.1293C197.796 42.1159 197.81 42.1091 197.83 42.0957C197.919 42.0284 198.008 41.9678 198.104 41.9139L209.785 35.2767C209.861 35.2363 209.929 35.2027 210.004 35.169C210.025 35.1623 210.052 35.1488 210.073 35.1421L210.039 35.1286Z" fill="#C63260"/>
<path d="M209.752 35.2632C210.71 34.7179 211.49 35.1555 211.497 36.2392L211.538 49.4464C211.538 50.5301 210.764 51.8562 209.806 52.4015L198.125 59.0387C197.167 59.5839 196.38 59.1464 196.38 58.0626L196.339 44.8555C196.339 43.7717 197.112 42.4457 198.077 41.9004L209.758 35.2632H209.752Z" fill="#FE769C"/>
<path d="M187.674 47.9318C187.715 47.9184 187.756 47.9049 187.798 47.8915C187.825 47.8847 187.852 47.878 187.873 47.8713C187.893 47.8713 187.921 47.8578 187.941 47.8578C187.975 47.8578 188.003 47.8443 188.03 47.8443C188.051 47.8443 188.064 47.8443 188.085 47.8443C188.126 47.8443 188.16 47.8443 188.194 47.8443C188.201 47.8443 188.215 47.8443 188.222 47.8443C188.263 47.8443 188.311 47.8511 188.352 47.8578C188.366 47.8578 188.372 47.8578 188.379 47.8645C188.413 47.8713 188.441 47.878 188.475 47.8915C188.482 47.8915 188.496 47.8915 188.502 47.9049C188.543 47.9184 188.578 47.9386 188.619 47.9588L186.265 46.599C186.265 46.599 186.265 46.599 186.258 46.599C186.23 46.5856 186.203 46.5721 186.169 46.5586C186.169 46.5586 186.155 46.5586 186.148 46.5586C186.141 46.5586 186.128 46.5519 186.121 46.5452C186.107 46.5452 186.094 46.5317 186.073 46.5317C186.059 46.5317 186.039 46.525 186.025 46.5182C186.018 46.5182 186.005 46.5182 185.998 46.5115H185.984C185.95 46.5115 185.916 46.5048 185.881 46.498C185.881 46.498 185.881 46.498 185.875 46.498C185.868 46.498 185.861 46.498 185.847 46.498C185.82 46.498 185.792 46.498 185.765 46.498C185.758 46.498 185.745 46.498 185.738 46.498C185.717 46.498 185.704 46.498 185.683 46.498C185.669 46.498 185.649 46.498 185.635 46.498C185.621 46.498 185.608 46.498 185.594 46.5048C185.573 46.5048 185.546 46.5115 185.526 46.5182C185.512 46.5182 185.498 46.5182 185.485 46.525C185.471 46.525 185.457 46.5317 185.443 46.5384C185.402 46.5519 185.361 46.5654 185.32 46.5788C185.307 46.5788 185.293 46.5856 185.279 46.5923C185.272 46.5923 185.266 46.599 185.252 46.6058C185.183 46.6394 185.108 46.6731 185.033 46.7135L173.351 53.3507C173.256 53.4045 173.167 53.4651 173.078 53.5324C173.064 53.5459 173.05 53.5526 173.03 53.5661C172.948 53.6334 172.866 53.7007 172.783 53.7747C172.783 53.7747 172.77 53.7882 172.763 53.7949C172.749 53.8084 172.736 53.8219 172.729 53.8353C172.688 53.8757 172.653 53.9161 172.612 53.9565C172.599 53.97 172.585 53.9834 172.578 53.9969C172.571 54.0104 172.558 54.0171 172.551 54.0305C172.53 54.0575 172.503 54.0844 172.482 54.1113C172.469 54.1315 172.455 54.145 172.434 54.1652C172.421 54.1786 172.414 54.1921 172.4 54.2123C172.387 54.2325 172.366 54.2527 172.352 54.2729C172.339 54.2863 172.332 54.2998 172.318 54.32C172.298 54.3469 172.284 54.3738 172.263 54.394C172.25 54.4075 172.243 54.4277 172.229 54.4412C172.229 54.4479 172.222 54.4546 172.215 54.4614C172.181 54.5085 172.154 54.5556 172.127 54.6027C172.127 54.6027 172.127 54.6027 172.127 54.6094C172.127 54.6162 172.113 54.6296 172.113 54.6364C172.092 54.67 172.072 54.7104 172.051 54.7441C172.044 54.7575 172.038 54.7777 172.024 54.7912C172.017 54.8047 172.003 54.8249 171.996 54.8383C171.99 54.8518 171.983 54.872 171.976 54.8854C171.955 54.9258 171.942 54.9662 171.921 55.0066C171.921 55.0133 171.914 55.0201 171.908 55.0268C171.908 55.0268 171.908 55.0268 171.908 55.0335C171.887 55.0874 171.866 55.1345 171.846 55.1884C171.846 55.1951 171.846 55.2085 171.839 55.2153C171.832 55.2355 171.825 55.2489 171.819 55.2691C171.812 55.2961 171.798 55.323 171.791 55.3499C171.791 55.3701 171.778 55.3903 171.771 55.4105C171.764 55.4307 171.757 55.4576 171.75 55.4778C171.75 55.4913 171.743 55.5047 171.736 55.5249C171.73 55.5519 171.723 55.5788 171.716 55.6057C171.709 55.6326 171.702 55.6663 171.695 55.6932C171.695 55.7067 171.695 55.7134 171.689 55.7269C171.689 55.7471 171.682 55.7673 171.675 55.7875C171.668 55.8346 171.654 55.875 171.654 55.9221C171.654 55.9355 171.654 55.949 171.654 55.9625C171.654 55.9759 171.654 55.9827 171.654 55.9961C171.641 56.0971 171.634 56.1981 171.634 56.299L171.675 69.5062C171.675 70.0447 171.873 70.4284 172.181 70.6034L174.535 71.9631C174.221 71.7814 174.029 71.4044 174.029 70.8659L173.988 57.6588C173.988 57.5578 173.995 57.4569 174.008 57.3559C174.008 57.329 174.008 57.3088 174.015 57.2818C174.015 57.2347 174.029 57.1943 174.036 57.1472C174.036 57.1136 174.049 57.0866 174.056 57.053C174.056 57.026 174.07 56.9924 174.077 56.9655C174.091 56.9251 174.097 56.8847 174.111 56.8443C174.118 56.8241 174.125 56.7972 174.132 56.777C174.145 56.7299 174.159 56.6827 174.179 56.6356C174.179 56.6154 174.193 56.602 174.2 56.5818C174.227 56.5212 174.248 56.4539 174.275 56.3933C174.275 56.3866 174.282 56.3798 174.289 56.3731C174.316 56.3192 174.344 56.2654 174.371 56.2115C174.378 56.1913 174.392 56.1779 174.398 56.1577C174.426 56.1038 174.453 56.0567 174.487 56.0029C174.487 55.9961 174.501 55.9827 174.501 55.9759C174.535 55.9153 174.57 55.8615 174.611 55.8009C174.624 55.7807 174.631 55.7673 174.645 55.7538C174.672 55.7134 174.7 55.673 174.734 55.6326C174.747 55.6124 174.768 55.5922 174.782 55.572C174.809 55.5384 174.836 55.5047 174.864 55.4711C174.884 55.4441 174.912 55.4172 174.932 55.3903C174.953 55.3634 174.973 55.3432 175.001 55.3163C175.042 55.2759 175.076 55.2355 175.117 55.1951C175.138 55.1749 175.158 55.1547 175.172 55.1412C175.254 55.0672 175.336 54.9931 175.418 54.9326C175.432 54.9191 175.445 54.9124 175.466 54.8989C175.555 54.8316 175.644 54.771 175.74 54.7172L187.421 48.0799C187.496 48.0395 187.565 48.0059 187.64 47.9722C187.661 47.9655 187.688 47.952 187.709 47.9453L187.674 47.9318Z" fill="#F7761D"/>
<path d="M187.387 48.0664C188.345 47.5212 189.126 47.9587 189.132 49.0425L189.173 62.2496C189.173 63.3333 188.4 64.6594 187.442 65.2047L175.761 71.8419C174.803 72.3872 174.016 71.9496 174.016 70.8658L173.975 57.6587C173.975 56.575 174.748 55.2489 175.713 54.7036L187.394 48.0664H187.387Z" fill="#F7B71D"/>
<path d="M166.214 82.3498C166.255 82.3364 166.297 82.3229 166.338 82.3094C166.365 82.3027 166.392 82.296 166.413 82.2892C166.433 82.2892 166.461 82.2758 166.481 82.2758C166.516 82.2758 166.543 82.2623 166.57 82.2623C166.591 82.2623 166.604 82.2623 166.625 82.2623C166.666 82.2623 166.7 82.2623 166.735 82.2623C166.741 82.2623 166.755 82.2623 166.762 82.2623C166.803 82.2623 166.851 82.269 166.892 82.2758C166.906 82.2758 166.912 82.2758 166.919 82.2825C166.953 82.2892 166.981 82.296 167.015 82.3094C167.022 82.3094 167.036 82.3094 167.042 82.3229C167.084 82.3363 167.118 82.3565 167.159 82.3767L164.805 81.017C164.805 81.017 164.805 81.017 164.798 81.017C164.77 81.0035 164.743 80.9901 164.709 80.9766C164.709 80.9766 164.695 80.9766 164.688 80.9766C164.682 80.9766 164.668 80.9699 164.661 80.9631C164.647 80.9631 164.634 80.9497 164.613 80.9497C164.599 80.9497 164.579 80.9429 164.565 80.9362C164.558 80.9362 164.545 80.9362 164.538 80.9295H164.524C164.49 80.9295 164.456 80.9227 164.421 80.916C164.421 80.916 164.421 80.916 164.415 80.916C164.408 80.916 164.401 80.916 164.387 80.916C164.36 80.916 164.333 80.916 164.305 80.916C164.298 80.916 164.285 80.916 164.278 80.916C164.257 80.916 164.244 80.916 164.223 80.916C164.209 80.916 164.189 80.916 164.175 80.916C164.161 80.916 164.148 80.916 164.134 80.9227C164.114 80.9227 164.086 80.9295 164.066 80.9362C164.052 80.9362 164.038 80.9362 164.025 80.9429C164.011 80.9429 163.997 80.9497 163.984 80.9564C163.942 80.9699 163.901 80.9833 163.86 80.9968C163.847 80.9968 163.833 81.0035 163.819 81.0103C163.812 81.0103 163.806 81.017 163.792 81.0237C163.723 81.0574 163.648 81.091 163.573 81.1314L151.891 87.7686C151.796 87.8225 151.707 87.8831 151.618 87.9504C151.604 87.9638 151.59 87.9706 151.57 87.984C151.488 88.0514 151.406 88.1187 151.323 88.1927C151.323 88.1927 151.31 88.2062 151.303 88.2129C151.289 88.2264 151.276 88.2398 151.269 88.2533C151.228 88.2937 151.193 88.3341 151.152 88.3745C151.139 88.3879 151.125 88.4014 151.118 88.4149C151.111 88.4283 151.098 88.4351 151.091 88.4485C151.07 88.4754 151.043 88.5024 151.022 88.5293C151.009 88.5495 150.995 88.5629 150.974 88.5831C150.961 88.5966 150.954 88.6101 150.94 88.6303C150.927 88.6505 150.906 88.6706 150.892 88.6908C150.879 88.7043 150.872 88.7178 150.858 88.738C150.838 88.7649 150.824 88.7918 150.803 88.812C150.79 88.8255 150.783 88.8457 150.769 88.8591C150.769 88.8659 150.762 88.8726 150.756 88.8793C150.721 88.9264 150.694 88.9736 150.667 89.0207C150.667 89.0207 150.667 89.0207 150.667 89.0274C150.667 89.0341 150.653 89.0476 150.653 89.0543C150.632 89.088 150.612 89.1284 150.591 89.162C150.584 89.1755 150.578 89.1957 150.564 89.2092C150.557 89.2226 150.543 89.2428 150.537 89.2563C150.53 89.2697 150.523 89.2899 150.516 89.3034C150.495 89.3438 150.482 89.3842 150.461 89.4246C150.461 89.4313 150.454 89.438 150.448 89.4448C150.448 89.4448 150.448 89.4448 150.448 89.4515C150.427 89.5054 150.406 89.5525 150.386 89.6063C150.386 89.6131 150.386 89.6265 150.379 89.6332C150.372 89.6534 150.365 89.6669 150.359 89.6871C150.352 89.714 150.338 89.741 150.331 89.7679C150.331 89.7881 150.318 89.8083 150.311 89.8285C150.304 89.8487 150.297 89.8756 150.29 89.8958C150.29 89.9092 150.283 89.9227 150.276 89.9429C150.27 89.9698 150.263 89.9967 150.256 90.0237C150.249 90.0506 150.242 90.0843 150.235 90.1112C150.235 90.1246 150.235 90.1314 150.229 90.1448C150.229 90.165 150.222 90.1852 150.215 90.2054C150.208 90.2525 150.194 90.2929 150.194 90.34C150.194 90.3535 150.194 90.367 150.194 90.3804C150.194 90.3939 150.194 90.4006 150.194 90.4141C150.181 90.5151 150.174 90.616 150.174 90.717L150.215 103.924C150.215 104.463 150.413 104.846 150.721 105.021L153.075 106.381C152.761 106.199 152.569 105.822 152.569 105.284L152.528 92.0768C152.528 91.9758 152.535 91.8748 152.548 91.7738C152.548 91.7469 152.548 91.7267 152.555 91.6998C152.555 91.6527 152.569 91.6123 152.576 91.5652C152.576 91.5315 152.589 91.5046 152.596 91.4709C152.596 91.444 152.61 91.4103 152.617 91.3834C152.631 91.343 152.637 91.3026 152.651 91.2623C152.658 91.2421 152.665 91.2151 152.672 91.1949C152.685 91.1478 152.699 91.1007 152.72 91.0536C152.72 91.0334 152.733 91.0199 152.74 90.9997C152.767 90.9391 152.788 90.8718 152.815 90.8112C152.815 90.8045 152.822 90.7978 152.829 90.7911C152.856 90.7372 152.884 90.6834 152.911 90.6295C152.918 90.6093 152.932 90.5958 152.939 90.5756C152.966 90.5218 152.993 90.4747 153.027 90.4208C153.027 90.4141 153.041 90.4006 153.041 90.3939C153.075 90.3333 153.11 90.2795 153.151 90.2189C153.164 90.1987 153.171 90.1852 153.185 90.1718C153.212 90.1314 153.24 90.091 153.274 90.0506C153.288 90.0304 153.308 90.0102 153.322 89.99C153.349 89.9564 153.376 89.9227 153.404 89.889C153.424 89.8621 153.452 89.8352 153.472 89.8083C153.493 89.7813 153.513 89.7611 153.541 89.7342C153.582 89.6938 153.616 89.6534 153.657 89.6131C153.678 89.5929 153.698 89.5727 153.712 89.5592C153.794 89.4852 153.876 89.4111 153.958 89.3505C153.972 89.3371 153.986 89.3303 154.006 89.3169C154.095 89.2496 154.184 89.189 154.28 89.1351L165.961 82.4979C166.036 82.4575 166.105 82.4239 166.18 82.3902C166.201 82.3835 166.228 82.37 166.249 82.3633L166.214 82.3498Z" fill="#C63260"/>
<path d="M165.927 82.4844C166.885 81.9391 167.666 82.3767 167.672 83.4604L167.714 96.6676C167.714 97.7513 166.94 99.0774 165.982 99.6227L154.301 106.26C153.343 106.805 152.556 106.368 152.556 105.284L152.515 92.0767C152.515 90.9929 153.288 89.6668 154.253 89.1216L165.934 82.4844H165.927Z" fill="#FE769C"/>
<path d="M155.196 102.248L157.502 96.156L160.561 98.4851L163.88 89.99L166.713 95.705L155.196 102.248Z" fill="white"/>
<path d="M158.399 93.5241C158.399 92.7029 158.981 91.7133 159.706 91.3027C160.425 90.8921 161.014 91.2219 161.014 92.0432C161.014 92.8644 160.432 93.8539 159.706 94.2646C158.988 94.6752 158.399 94.3453 158.399 93.5241Z" fill="white"/>
<path d="M211.25 58.0627C211.291 58.0492 211.332 58.0358 211.373 58.0223C211.4 58.0156 211.427 58.0089 211.448 58.0021C211.469 58.0021 211.496 57.9887 211.516 57.9887C211.551 57.9887 211.578 57.9752 211.605 57.9752C211.626 57.9752 211.64 57.9752 211.66 57.9752C211.701 57.9752 211.735 57.9752 211.77 57.9752C211.776 57.9752 211.79 57.9752 211.797 57.9752C211.838 57.9752 211.886 57.9819 211.927 57.9887C211.941 57.9887 211.948 57.9887 211.954 57.9954C211.989 58.0021 212.016 58.0089 212.05 58.0223C212.057 58.0223 212.071 58.0223 212.078 58.0358C212.119 58.0492 212.153 58.0694 212.194 58.0896L209.84 56.7299C209.84 56.7299 209.84 56.7299 209.833 56.7299C209.806 56.7164 209.778 56.703 209.744 56.6895C209.744 56.6895 209.73 56.6895 209.724 56.6895C209.717 56.6895 209.703 56.6828 209.696 56.676C209.682 56.676 209.669 56.6626 209.648 56.6626C209.635 56.6626 209.614 56.6558 209.6 56.6491C209.593 56.6491 209.58 56.6491 209.573 56.6424H209.559C209.525 56.6424 209.491 56.6356 209.457 56.6289C209.457 56.6289 209.457 56.6289 209.45 56.6289C209.443 56.6289 209.436 56.6289 209.422 56.6289C209.395 56.6289 209.368 56.6289 209.34 56.6289C209.333 56.6289 209.32 56.6289 209.313 56.6289C209.292 56.6289 209.279 56.6289 209.258 56.6289C209.244 56.6289 209.224 56.6289 209.21 56.6289C209.197 56.6289 209.183 56.6289 209.169 56.6356C209.149 56.6356 209.121 56.6424 209.101 56.6491C209.087 56.6491 209.073 56.6491 209.06 56.6558C209.046 56.6558 209.032 56.6626 209.019 56.6693C208.978 56.6828 208.937 56.6962 208.895 56.7097C208.882 56.7097 208.868 56.7164 208.854 56.7231C208.848 56.7231 208.841 56.7299 208.827 56.7366C208.759 56.7703 208.683 56.8039 208.608 56.8443L196.927 63.4815C196.831 63.5354 196.742 63.596 196.653 63.6633C196.639 63.6767 196.626 63.6835 196.605 63.6969C196.523 63.7642 196.441 63.8316 196.359 63.9056C196.359 63.9056 196.345 63.9191 196.338 63.9258C196.324 63.9393 196.311 63.9527 196.304 63.9662C196.263 64.0066 196.229 64.047 196.188 64.0874C196.174 64.1008 196.16 64.1143 196.153 64.1277C196.147 64.1412 196.133 64.1479 196.126 64.1614C196.105 64.1883 196.078 64.2153 196.058 64.2422C196.044 64.2624 196.03 64.2758 196.01 64.296C195.996 64.3095 195.989 64.323 195.975 64.3432C195.962 64.3633 195.941 64.3835 195.928 64.4037C195.914 64.4172 195.907 64.4307 195.893 64.4509C195.873 64.4778 195.859 64.5047 195.839 64.5249C195.825 64.5384 195.818 64.5586 195.804 64.572C195.804 64.5788 195.798 64.5855 195.791 64.5922C195.756 64.6393 195.729 64.6865 195.702 64.7336C195.702 64.7336 195.702 64.7336 195.702 64.7403C195.702 64.747 195.688 64.7605 195.688 64.7672C195.667 64.8009 195.647 64.8413 195.626 64.8749C195.62 64.8884 195.613 64.9086 195.599 64.9221C195.592 64.9355 195.579 64.9557 195.572 64.9692C195.565 64.9826 195.558 65.0028 195.551 65.0163C195.531 65.0567 195.517 65.0971 195.496 65.1375C195.496 65.1442 195.49 65.1509 195.483 65.1577C195.483 65.1577 195.483 65.1577 195.483 65.1644C195.462 65.2182 195.442 65.2654 195.421 65.3192C195.421 65.3259 195.421 65.3394 195.414 65.3461C195.407 65.3663 195.401 65.3798 195.394 65.4C195.387 65.4269 195.373 65.4538 195.366 65.4808C195.366 65.501 195.353 65.5212 195.346 65.5413C195.339 65.5615 195.332 65.5885 195.325 65.6087C195.325 65.6221 195.318 65.6356 195.312 65.6558C195.305 65.6827 195.298 65.7096 195.291 65.7366C195.284 65.7635 195.277 65.7971 195.271 65.8241C195.271 65.8375 195.271 65.8443 195.264 65.8577C195.264 65.8779 195.257 65.8981 195.25 65.9183C195.243 65.9654 195.23 66.0058 195.23 66.0529C195.23 66.0664 195.23 66.0799 195.23 66.0933C195.23 66.1068 195.23 66.1135 195.23 66.127C195.216 66.228 195.209 66.3289 195.209 66.4299L195.25 79.637C195.25 80.1755 195.448 80.5592 195.756 80.7342L198.111 82.094C197.796 81.9122 197.604 81.5353 197.604 80.9968L197.563 67.7897C197.563 67.6887 197.57 67.5877 197.584 67.4867C197.584 67.4598 197.584 67.4396 197.59 67.4127C197.59 67.3656 197.604 67.3252 197.611 67.2781C197.611 67.2444 197.625 67.2175 197.631 67.1838C197.631 67.1569 197.645 67.1232 197.652 67.0963C197.666 67.0559 197.673 67.0155 197.686 66.9752C197.693 66.955 197.7 66.928 197.707 66.9078C197.72 66.8607 197.734 66.8136 197.755 66.7665C197.755 66.7463 197.768 66.7328 197.775 66.7126C197.803 66.652 197.823 66.5847 197.85 66.5241C197.85 66.5174 197.857 66.5107 197.864 66.5039C197.892 66.4501 197.919 66.3962 197.946 66.3424C197.953 66.3222 197.967 66.3087 197.974 66.2885C198.001 66.2347 198.028 66.1876 198.063 66.1337C198.063 66.127 198.076 66.1135 198.076 66.1068C198.111 66.0462 198.145 65.9924 198.186 65.9318C198.199 65.9116 198.206 65.8981 198.22 65.8847C198.247 65.8443 198.275 65.8039 198.309 65.7635C198.323 65.7433 198.343 65.7231 198.357 65.7029C198.384 65.6692 198.412 65.6356 198.439 65.6019C198.46 65.575 198.487 65.5481 198.507 65.5212C198.528 65.4942 198.548 65.474 198.576 65.4471C198.617 65.4067 198.651 65.3663 198.692 65.3259C198.713 65.3057 198.733 65.2856 198.747 65.2721C198.829 65.198 198.911 65.124 198.993 65.0634C199.007 65.05 199.021 65.0432 199.041 65.0298C199.13 64.9624 199.219 64.9019 199.315 64.848L210.996 58.2108C211.072 58.1704 211.14 58.1368 211.215 58.1031C211.236 58.0964 211.263 58.0829 211.284 58.0762L211.25 58.0627Z" fill="#FFBD22"/>
<path d="M210.963 58.1973C211.921 57.652 212.701 58.0896 212.708 59.1733L212.749 72.3804C212.749 73.4642 211.975 74.7903 211.017 75.3356L199.336 81.9728C198.378 82.518 197.591 82.0805 197.591 80.9967L197.55 67.7896C197.55 66.7058 198.323 65.3797 199.288 64.8345L210.969 58.1973H210.963Z" fill="#FFD822"/>
<path d="M206.655 68.9291C207.489 67.5093 207.488 65.974 206.653 65.5C205.819 65.026 204.466 65.7927 203.633 67.2126C202.8 68.6324 202.801 70.1677 203.635 70.6417C204.47 71.1157 205.822 70.349 206.655 68.9291Z" fill="white"/>
<path d="M205.145 68.8666C203.202 69.9705 201.628 72.6564 201.628 74.8576C201.628 74.9047 201.642 74.9384 201.642 74.9855C202.62 75.2749 203.825 75.1066 205.145 74.3594C206.466 73.6055 207.671 72.4073 208.649 71.0072C208.649 70.9601 208.663 70.9129 208.663 70.8658C208.663 68.6579 207.089 67.7626 205.145 68.8666Z" fill="white"/>
<path d="M216.567 80.1284C216.608 80.1149 216.649 80.1015 216.69 80.088C216.718 80.0813 216.745 80.0745 216.765 80.0678C216.786 80.0678 216.813 80.0543 216.834 80.0543C216.868 80.0543 216.895 80.0409 216.923 80.0409C216.943 80.0409 216.957 80.0409 216.978 80.0409C217.019 80.0409 217.053 80.0409 217.087 80.0409C217.094 80.0409 217.108 80.0409 217.114 80.0409C217.155 80.0409 217.203 80.0476 217.244 80.0543C217.258 80.0543 217.265 80.0543 217.272 80.0611C217.306 80.0678 217.333 80.0745 217.368 80.088C217.374 80.088 217.388 80.088 217.395 80.1015C217.436 80.1149 217.47 80.1351 217.511 80.1553L215.157 78.7956C215.157 78.7956 215.157 78.7956 215.15 78.7956C215.123 78.7821 215.096 78.7686 215.061 78.7552C215.061 78.7552 215.048 78.7552 215.041 78.7552C215.034 78.7552 215.02 78.7484 215.014 78.7417C215 78.7417 214.986 78.7282 214.966 78.7282C214.952 78.7282 214.931 78.7215 214.918 78.7148C214.911 78.7148 214.897 78.7148 214.89 78.708H214.877C214.842 78.708 214.808 78.7013 214.774 78.6946C214.774 78.6946 214.774 78.6946 214.767 78.6946C214.76 78.6946 214.753 78.6946 214.74 78.6946C214.712 78.6946 214.685 78.6946 214.658 78.6946C214.651 78.6946 214.637 78.6946 214.63 78.6946C214.61 78.6946 214.596 78.6946 214.576 78.6946C214.562 78.6946 214.541 78.6946 214.528 78.6946C214.514 78.6946 214.5 78.6946 214.487 78.7013C214.466 78.7013 214.439 78.708 214.418 78.7148C214.404 78.7148 214.391 78.7148 214.377 78.7215C214.363 78.7215 214.35 78.7282 214.336 78.735C214.295 78.7484 214.254 78.7619 214.213 78.7754C214.199 78.7754 214.186 78.7821 214.172 78.7888C214.165 78.7888 214.158 78.7956 214.144 78.8023C214.076 78.8359 214.001 78.8696 213.925 78.91L202.244 85.5472C202.148 85.6011 202.059 85.6616 201.97 85.729C201.957 85.7424 201.943 85.7491 201.922 85.7626C201.84 85.8299 201.758 85.8972 201.676 85.9713C201.676 85.9713 201.662 85.9847 201.656 85.9915C201.642 86.0049 201.628 86.0184 201.621 86.0319C201.58 86.0723 201.546 86.1126 201.505 86.153C201.491 86.1665 201.478 86.18 201.471 86.1934C201.464 86.2069 201.45 86.2136 201.443 86.2271C201.423 86.254 201.395 86.2809 201.375 86.3079C201.361 86.3281 201.348 86.3415 201.327 86.3617C201.313 86.3752 201.307 86.3886 201.293 86.4088C201.279 86.429 201.259 86.4492 201.245 86.4694C201.231 86.4829 201.224 86.4963 201.211 86.5165C201.19 86.5435 201.176 86.5704 201.156 86.5906C201.142 86.604 201.135 86.6242 201.122 86.6377C201.122 86.6444 201.115 86.6512 201.108 86.6579C201.074 86.705 201.046 86.7521 201.019 86.7992C201.019 86.7992 201.019 86.7993 201.019 86.806C201.019 86.8127 201.005 86.8262 201.005 86.8329C200.985 86.8666 200.964 86.907 200.944 86.9406C200.937 86.9541 200.93 86.9743 200.916 86.9877C200.91 87.0012 200.896 87.0214 200.889 87.0349C200.882 87.0483 200.875 87.0685 200.869 87.082C200.848 87.1224 200.834 87.1627 200.814 87.2031C200.814 87.2099 200.807 87.2166 200.8 87.2233C200.8 87.2233 200.8 87.2233 200.8 87.2301C200.78 87.2839 200.759 87.331 200.739 87.3849C200.739 87.3916 200.739 87.4051 200.732 87.4118C200.725 87.432 200.718 87.4455 200.711 87.4657C200.704 87.4926 200.691 87.5195 200.684 87.5464C200.684 87.5666 200.67 87.5868 200.663 87.607C200.656 87.6272 200.65 87.6541 200.643 87.6743C200.643 87.6878 200.636 87.7013 200.629 87.7215C200.622 87.7484 200.615 87.7753 200.608 87.8022C200.602 87.8292 200.595 87.8628 200.588 87.8897C200.588 87.9032 200.588 87.9099 200.581 87.9234C200.581 87.9436 200.574 87.9638 200.567 87.984C200.561 88.0311 200.547 88.0715 200.547 88.1186C200.547 88.1321 200.547 88.1455 200.547 88.159C200.547 88.1725 200.547 88.1792 200.547 88.1927C200.533 88.2936 200.526 88.3946 200.526 88.4956L200.567 101.703C200.567 102.241 200.766 102.625 201.074 102.8L203.428 104.16C203.113 103.978 202.922 103.601 202.922 103.062L202.88 89.8553C202.88 89.7544 202.887 89.6534 202.901 89.5524C202.901 89.5255 202.901 89.5053 202.908 89.4784C202.908 89.4313 202.922 89.3909 202.928 89.3437C202.928 89.3101 202.942 89.2832 202.949 89.2495C202.949 89.2226 202.963 89.1889 202.969 89.162C202.983 89.1216 202.99 89.0812 203.004 89.0408C203.01 89.0206 203.017 88.9937 203.024 88.9735C203.038 88.9264 203.052 88.8793 203.072 88.8322C203.072 88.812 203.086 88.7985 203.093 88.7783C203.12 88.7177 203.14 88.6504 203.168 88.5898C203.168 88.5831 203.175 88.5764 203.182 88.5696C203.209 88.5158 203.236 88.4619 203.264 88.4081C203.271 88.3879 203.284 88.3744 203.291 88.3542C203.318 88.3004 203.346 88.2532 203.38 88.1994C203.38 88.1927 203.394 88.1792 203.394 88.1725C203.428 88.1119 203.462 88.058 203.503 87.9974C203.517 87.9773 203.524 87.9638 203.537 87.9503C203.565 87.9099 203.592 87.8696 203.626 87.8292C203.64 87.809 203.661 87.7888 203.674 87.7686C203.702 87.7349 203.729 87.7013 203.756 87.6676C203.777 87.6407 203.804 87.6138 203.825 87.5868C203.845 87.5599 203.866 87.5397 203.893 87.5128C203.934 87.4724 203.969 87.432 204.01 87.3916C204.03 87.3714 204.051 87.3512 204.064 87.3378C204.146 87.2637 204.229 87.1897 204.311 87.1291C204.324 87.1156 204.338 87.1089 204.359 87.0954C204.448 87.0281 204.537 86.9675 204.632 86.9137L216.314 80.2765C216.389 80.2361 216.457 80.2024 216.533 80.1688C216.553 80.162 216.581 80.1486 216.601 80.1418L216.567 80.1284Z" fill="#C63260"/>
<path d="M216.28 80.2629C217.238 79.7177 218.018 80.1552 218.025 81.239L218.066 94.4461C218.066 95.5299 217.293 96.856 216.335 97.4012L204.653 104.038C203.695 104.584 202.908 104.146 202.908 103.062L202.867 89.8553C202.867 88.7715 203.64 87.4454 204.605 86.9002L216.287 80.2629H216.28Z" fill="#FE769C"/>
<path d="M211.496 88.1792L205.789 91.4238V90.8112L211.496 87.5667V88.1792Z" fill="white"/>
<path d="M208.869 91.7738L205.789 93.5173V92.9047L208.869 91.1545V91.7738Z" fill="white"/>
<path d="M212.434 89.741L209.354 91.4912V90.8786L212.434 89.1284V89.741Z" fill="white"/>
<path d="M215.732 87.8696L212.927 89.465V88.8524L215.732 87.2571V87.8696Z" fill="white"/>
<path d="M213.536 87.0215L211.914 87.9437V87.3311L213.536 86.4089V87.0215Z" fill="white"/>
<path d="M215.732 85.7761L213.953 86.7859V86.1733L215.732 85.1636V85.7761Z" fill="white"/>
<path d="M207.411 91.5315L205.789 92.4537V91.8412L207.411 90.9189V91.5315Z" fill="white"/>
<path d="M209.607 90.2861L207.828 91.2959V90.6833L209.607 89.6736V90.2861Z" fill="white"/>
<path d="M211.496 91.3836L205.789 94.6214V94.0088L211.496 90.771V91.3836Z" fill="white"/>
<path d="M207.411 94.7356L205.789 95.6578V95.0453L207.411 94.123V94.7356Z" fill="white"/>
<path d="M209.607 93.4837L207.828 94.5001V93.8875L209.607 92.8711V93.4837Z" fill="white"/>
<path d="M215.733 86.8062L214.617 87.4389V86.8264L215.733 86.1936V86.8062Z" fill="white"/>
<path d="M213.734 87.9436L210.135 89.99V89.3774L213.734 87.3311V87.9436Z" fill="white"/>
<path d="M211.496 93.6653L205.789 96.9099V96.2973L211.496 93.0527V93.6653Z" fill="white"/>
<path d="M208.869 97.26L205.789 99.0035V98.3909L208.869 96.6475V97.26Z" fill="white"/>
<path d="M212.434 95.2271L209.354 96.9772V96.3647L212.434 94.6145V95.2271Z" fill="white"/>
<path d="M213.536 92.5076L211.914 93.4298V92.8172L213.536 91.895V92.5076Z" fill="white"/>
<path d="M215.732 91.2622L213.953 92.2719V91.6594L215.732 90.6497V91.2622Z" fill="white"/>
<path d="M207.411 97.0176L205.789 97.9398V97.3272L207.411 96.405V97.0176Z" fill="white"/>
<path d="M209.607 95.7722L207.828 96.782V96.1694L209.607 95.1597V95.7722Z" fill="white"/>
<path d="M226.565 127.955C226.565 127.955 225.32 127.269 225.101 126.952C225.019 126.797 224.964 126.232 224.964 126.232L225.108 125.949L226.1 126.515L226.415 126.427C226.415 126.427 226.011 126.205 226.127 125.949C226.244 125.693 226.435 125.801 226.538 125.895C226.64 125.996 226.962 126.225 226.962 126.225C226.962 126.225 227.092 126.468 227.154 126.562C227.215 126.656 227.167 126.912 227.167 126.912L226.558 127.962L226.565 127.955Z" fill="#EFB387"/>
<path d="M230.438 125.074C230.438 125.074 229.193 124.388 228.974 124.071C228.892 123.917 228.837 123.351 228.837 123.351L228.981 123.068L229.973 123.634L230.288 123.546C230.288 123.546 229.884 123.324 230 123.068C230.117 122.813 230.308 122.92 230.411 123.015C230.514 123.115 230.835 123.344 230.835 123.344C230.835 123.344 230.965 123.587 231.027 123.681C231.088 123.775 231.04 124.031 231.04 124.031L230.431 125.081L230.438 125.074Z" fill="#EFB387"/>
<path d="M235.181 127.558C234.941 127.854 233.963 127.888 233.963 127.888L230.438 125.067L231.027 124.044L234.202 125.66L235.639 122.806L236.933 123.055L237.658 123.499C237.658 123.499 236.057 126.394 235.174 127.545L235.181 127.558Z" fill="url(#paint3_linear_3102_2051)"/>
<path d="M234.325 118.679C234.325 118.679 234.325 118.727 234.318 118.747C234.318 118.767 234.311 118.78 234.305 118.801C234.305 118.821 234.291 118.841 234.284 118.861C234.284 118.881 234.27 118.895 234.264 118.915C234.257 118.935 234.243 118.962 234.229 118.982C234.223 118.996 234.209 119.016 234.202 119.029C234.188 119.056 234.168 119.077 234.154 119.103C234.14 119.117 234.134 119.13 234.12 119.144C234.092 119.178 234.065 119.211 234.031 119.238C234.017 119.252 234.01 119.258 233.997 119.272C233.976 119.292 233.956 119.305 233.928 119.326C233.908 119.339 233.887 119.359 233.867 119.373C233.839 119.393 233.819 119.406 233.791 119.42C233.764 119.44 233.737 119.454 233.709 119.474L223.574 125.269C223.479 125.323 223.383 125.37 223.273 125.411C223.246 125.424 223.219 125.431 223.191 125.444C223.13 125.465 223.061 125.485 222.993 125.505C222.924 125.525 222.849 125.545 222.781 125.559C222.692 125.579 222.609 125.593 222.521 125.606C222.5 125.606 222.479 125.606 222.459 125.613C222.343 125.626 222.219 125.633 222.096 125.633C222.076 125.633 222.055 125.633 222.042 125.633C221.925 125.633 221.802 125.626 221.686 125.613C221.665 125.613 221.651 125.613 221.631 125.613C221.515 125.599 221.398 125.579 221.289 125.552C221.268 125.552 221.248 125.545 221.227 125.539C221.125 125.512 221.029 125.485 220.933 125.451C220.912 125.451 220.899 125.438 220.878 125.431C220.762 125.391 220.652 125.337 220.55 125.276L210.346 119.48C209.922 119.238 209.717 118.928 209.717 118.612L209.703 121.729C209.703 122.045 209.915 122.355 210.333 122.597L220.536 128.393C220.632 128.447 220.734 128.494 220.844 128.541H220.858C220.878 128.541 220.892 128.554 220.912 128.561C220.974 128.581 221.036 128.608 221.104 128.622C221.138 128.628 221.172 128.642 221.207 128.649C221.227 128.649 221.248 128.662 221.268 128.662C221.289 128.662 221.302 128.669 221.323 128.676C221.391 128.689 221.467 128.703 221.535 128.709C221.562 128.709 221.583 128.709 221.61 128.716C221.631 128.716 221.645 128.716 221.665 128.716C221.693 128.716 221.72 128.716 221.747 128.723C221.816 128.723 221.891 128.729 221.959 128.736C221.98 128.736 222 128.736 222.021 128.736C222.042 128.736 222.062 128.736 222.076 128.736C222.11 128.736 222.137 128.736 222.172 128.736C222.254 128.736 222.329 128.729 222.411 128.723C222.418 128.723 222.432 128.723 222.438 128.723C222.459 128.723 222.479 128.723 222.5 128.716C222.562 128.709 222.623 128.703 222.685 128.689C222.712 128.689 222.733 128.676 222.76 128.669C222.835 128.655 222.904 128.635 222.972 128.615C223.006 128.602 223.047 128.602 223.089 128.588C223.116 128.581 223.143 128.568 223.177 128.554C223.205 128.548 223.232 128.534 223.26 128.521C223.362 128.48 223.465 128.433 223.561 128.379L233.696 122.584C233.696 122.584 233.716 122.57 233.723 122.57C233.743 122.557 233.757 122.543 233.778 122.536C233.805 122.523 233.832 122.503 233.853 122.489C233.873 122.476 233.894 122.456 233.915 122.442C233.935 122.422 233.962 122.409 233.983 122.388C233.983 122.388 233.99 122.382 233.997 122.375C234.004 122.368 234.01 122.361 234.017 122.355C234.051 122.321 234.079 122.294 234.106 122.261C234.106 122.254 234.12 122.247 234.127 122.24C234.127 122.234 234.134 122.227 234.14 122.22C234.161 122.193 234.175 122.173 234.188 122.146C234.188 122.133 234.202 122.126 234.209 122.112C234.209 122.112 234.209 122.099 234.216 122.099C234.229 122.079 234.236 122.059 234.25 122.032C234.25 122.018 234.264 122.005 234.27 121.991C234.27 121.991 234.27 121.985 234.27 121.978C234.277 121.958 234.284 121.937 234.291 121.917C234.291 121.904 234.298 121.89 234.305 121.877C234.305 121.877 234.305 121.87 234.305 121.863C234.305 121.843 234.305 121.816 234.311 121.796C234.311 121.783 234.311 121.769 234.311 121.756C234.311 121.756 234.311 121.742 234.311 121.735L234.325 118.619C234.325 118.619 234.325 118.659 234.325 118.679Z" fill="#00A500"/>
<path d="M233.703 117.75C234.545 118.228 234.545 119.002 233.71 119.474L223.575 125.269C222.74 125.747 221.385 125.747 220.55 125.269L210.347 119.474C209.505 118.996 209.505 118.228 210.34 117.75L220.475 111.955C221.31 111.477 222.665 111.477 223.5 111.955L233.703 117.75Z" fill="#63D900"/>
<path d="M221.288 121.964L218.38 115.792L229.247 117.447L221.288 121.964Z" fill="white"/>
<path d="M234.927 147.423H233.887L233.162 147.241L231.923 147.456L230.931 147.154L230.985 146.501L232.929 146.211L234.893 146.191L234.927 147.423Z" fill="#001829"/>
<path d="M233.593 147.921H232.553L231.828 147.732L230.589 147.954L229.597 147.645L229.651 146.992L231.595 146.702L233.559 146.682L233.593 147.921Z" fill="#001829"/>
<path d="M236.529 132.223L236.7 133.859L235.789 138.14L236.166 140.92L234.914 146.824L233.408 146.602L232.655 133.758L236.529 132.223Z" fill="url(#paint4_linear_3102_2051)"/>
<path d="M229.98 132.728L229.809 135.171L231.41 140.57L231.595 146.702L233.559 146.682L233.641 136.706L233.648 135.818L234.927 134.815L235.4 132.667L229.98 132.728Z" fill="url(#paint5_linear_3102_2051)"/>
<path d="M231.437 124.569L233.1 123.183L235.687 122.26L237.61 122.967L238 125.041L236.782 129.477L236.528 132.223L232.655 133.758L229.979 132.728L231.143 129.322L231.437 124.569Z" fill="url(#paint6_linear_3102_2051)"/>
<path d="M232.355 119.245L232.232 119.703L232.293 119.905L232.136 120.302L232.533 122.193L232.806 122.294L233.06 122.321L233.696 121.338L233.785 120.228L232.779 119.73L232.355 119.245Z" fill="#EFB387"/>
<path d="M233.053 122.072L233.019 123.297C233.019 123.297 233.826 123.439 234.278 123.331C234.729 123.223 235.653 122.678 235.653 122.678L235.551 121.433L233.436 121.224L233.06 122.072H233.053Z" fill="#EFB387"/>
<path d="M236.084 119.44L235.592 121.81L233.785 122.577L233.08 121.729L233.326 121.177L233.094 120.887L233.087 120.881L232.738 121.197L232.464 120.988L232.683 120.167L232.437 119.972L232.108 119.481L232.238 119.023L233.47 118.383H234.202L236.084 119.44Z" fill="#915236"/>
<path d="M236.084 119.44L235.592 121.81L233.785 122.577L233.08 121.729L233.326 121.177L233.094 120.887L233.183 120.47L236.084 119.44Z" fill="#713E23"/>
<path d="M231.307 130.439C231.067 130.735 230.089 130.769 230.089 130.769L226.564 127.949L227.153 126.925L230.328 128.541L231.43 124.563L233.072 124.852L233.983 126.037C233.983 126.037 232.176 129.288 231.3 130.439H231.307Z" fill="url(#paint7_linear_3102_2051)"/>
<path d="M140.484 88.9128C140.525 88.8993 140.566 88.8859 140.607 88.8724C140.634 88.8657 140.662 88.859 140.682 88.8522C140.703 88.8522 140.73 88.8388 140.751 88.8388C140.785 88.8388 140.812 88.8253 140.84 88.8253C140.86 88.8253 140.874 88.8253 140.895 88.8253C140.936 88.8253 140.97 88.8253 141.004 88.8253C141.011 88.8253 141.025 88.8253 141.031 88.8253C141.072 88.8253 141.12 88.832 141.161 88.8388C141.175 88.8388 141.182 88.8388 141.189 88.8455C141.223 88.8522 141.25 88.859 141.285 88.8724C141.291 88.8724 141.305 88.8724 141.312 88.8859C141.353 88.8993 141.387 88.9195 141.428 88.9397L139.074 87.58C139.074 87.58 139.074 87.58 139.067 87.58C139.04 87.5665 139.013 87.553 138.978 87.5396C138.978 87.5396 138.965 87.5396 138.958 87.5396C138.951 87.5396 138.937 87.5329 138.931 87.5261C138.917 87.5261 138.903 87.5127 138.883 87.5127C138.869 87.5127 138.848 87.5059 138.835 87.4992C138.828 87.4992 138.814 87.4992 138.807 87.4925H138.794C138.759 87.4925 138.725 87.4857 138.691 87.479C138.691 87.479 138.691 87.479 138.684 87.479C138.677 87.479 138.67 87.479 138.657 87.479C138.629 87.479 138.602 87.479 138.575 87.479C138.568 87.479 138.554 87.479 138.547 87.479C138.527 87.479 138.513 87.479 138.493 87.479C138.479 87.479 138.458 87.479 138.445 87.479C138.431 87.479 138.417 87.479 138.404 87.4857C138.383 87.4857 138.356 87.4925 138.335 87.4992C138.321 87.4992 138.308 87.4992 138.294 87.5059C138.28 87.5059 138.267 87.5127 138.253 87.5194C138.212 87.5329 138.171 87.5463 138.13 87.5598C138.116 87.5598 138.102 87.5665 138.089 87.5732C138.082 87.5732 138.075 87.58 138.061 87.5867C137.993 87.6204 137.918 87.654 137.842 87.6944L126.161 94.3316C126.065 94.3855 125.976 94.4461 125.887 94.5134C125.874 94.5268 125.86 94.5336 125.839 94.547C125.757 94.6143 125.675 94.6817 125.593 94.7557C125.593 94.7557 125.579 94.7692 125.572 94.7759C125.559 94.7894 125.545 94.8028 125.538 94.8163C125.497 94.8567 125.463 94.8971 125.422 94.9374C125.408 94.9509 125.395 94.9644 125.388 94.9778C125.381 94.9913 125.367 94.998 125.36 95.0115C125.34 95.0384 125.312 95.0654 125.292 95.0923C125.278 95.1125 125.265 95.1259 125.244 95.1461C125.23 95.1596 125.223 95.1731 125.21 95.1932C125.196 95.2134 125.176 95.2336 125.162 95.2538C125.148 95.2673 125.141 95.2808 125.128 95.301C125.107 95.3279 125.093 95.3548 125.073 95.375C125.059 95.3885 125.052 95.4087 125.039 95.4221C125.039 95.4288 125.032 95.4356 125.025 95.4423C124.991 95.4894 124.963 95.5366 124.936 95.5837C124.936 95.5837 124.936 95.5837 124.936 95.5904C124.936 95.5971 124.922 95.6106 124.922 95.6173C124.902 95.651 124.881 95.6914 124.861 95.725C124.854 95.7385 124.847 95.7587 124.833 95.7722C124.827 95.7856 124.813 95.8058 124.806 95.8193C124.799 95.8327 124.792 95.8529 124.786 95.8664C124.765 95.9068 124.751 95.9472 124.731 95.9876C124.731 95.9943 124.724 96.001 124.717 96.0078C124.717 96.0078 124.717 96.0078 124.717 96.0145C124.697 96.0683 124.676 96.1155 124.656 96.1693C124.656 96.176 124.656 96.1895 124.649 96.1962C124.642 96.2164 124.635 96.2299 124.628 96.2501C124.621 96.277 124.608 96.3039 124.601 96.3309C124.601 96.3511 124.587 96.3713 124.58 96.3914C124.573 96.4116 124.567 96.4386 124.56 96.4588C124.56 96.4722 124.553 96.4857 124.546 96.5059C124.539 96.5328 124.532 96.5597 124.525 96.5867C124.519 96.6136 124.512 96.6472 124.505 96.6742C124.505 96.6876 124.505 96.6944 124.498 96.7078C124.498 96.728 124.491 96.7482 124.484 96.7684C124.478 96.8155 124.464 96.8559 124.464 96.903C124.464 96.9165 124.464 96.93 124.464 96.9434C124.464 96.9569 124.464 96.9636 124.464 96.9771C124.45 97.0781 124.443 97.179 124.443 97.28L124.484 110.487C124.484 111.026 124.683 111.409 124.991 111.584L127.345 112.944C127.03 112.762 126.838 112.385 126.838 111.847L126.797 98.6397C126.797 98.5388 126.804 98.4378 126.818 98.3368C126.818 98.3099 126.818 98.2897 126.825 98.2628C126.825 98.2157 126.838 98.1753 126.845 98.1282C126.845 98.0945 126.859 98.0676 126.866 98.0339C126.866 98.007 126.88 97.9733 126.886 97.9464C126.9 97.906 126.907 97.8656 126.921 97.8252C126.927 97.8051 126.934 97.7781 126.941 97.7579C126.955 97.7108 126.969 97.6637 126.989 97.6166C126.989 97.5964 127.003 97.5829 127.01 97.5627C127.037 97.5021 127.057 97.4348 127.085 97.3742C127.085 97.3675 127.092 97.3608 127.099 97.354C127.126 97.3002 127.153 97.2463 127.181 97.1925C127.188 97.1723 127.201 97.1588 127.208 97.1386C127.235 97.0848 127.263 97.0377 127.297 96.9838C127.297 96.9771 127.311 96.9636 127.311 96.9569C127.345 96.8963 127.379 96.8425 127.42 96.7819C127.434 96.7617 127.441 96.7482 127.454 96.7347C127.482 96.6944 127.509 96.654 127.543 96.6136C127.557 96.5934 127.578 96.5732 127.591 96.553C127.619 96.5193 127.646 96.4857 127.673 96.452C127.694 96.4251 127.721 96.3982 127.742 96.3713C127.762 96.3443 127.783 96.3241 127.81 96.2972C127.851 96.2568 127.886 96.2164 127.927 96.176C127.947 96.1559 127.968 96.1357 127.981 96.1222C128.063 96.0481 128.146 95.9741 128.228 95.9135C128.241 95.9001 128.255 95.8933 128.276 95.8799C128.365 95.8125 128.454 95.752 128.549 95.6981L140.231 89.0609C140.306 89.0205 140.374 88.9869 140.45 88.9532C140.47 88.9465 140.498 88.933 140.518 88.9263L140.484 88.9128Z" fill="#FFBD22"/>
<path d="M140.197 89.0474C141.155 88.5021 141.935 88.9397 141.942 90.0234L141.983 103.231C141.983 104.314 141.21 105.64 140.252 106.186L128.57 112.823C127.612 113.368 126.825 112.931 126.825 111.847L126.784 98.6397C126.784 97.5559 127.557 96.2298 128.522 95.6846L140.204 89.0474H140.197Z" fill="#FFD822"/>
<path d="M129.24 99.939L135.05 100.632L140.785 93.3826L135.05 101.871L129.24 99.939Z" fill="white"/>
<path d="M230.788 31.009C230.829 30.9955 230.87 30.9821 230.911 30.9686C230.938 30.9619 230.966 30.9551 230.986 30.9484C231.007 30.9484 231.034 30.9349 231.055 30.9349C231.089 30.9349 231.116 30.9215 231.144 30.9215C231.164 30.9215 231.178 30.9215 231.198 30.9215C231.239 30.9215 231.274 30.9215 231.308 30.9215C231.315 30.9215 231.328 30.9215 231.335 30.9215C231.376 30.9215 231.424 30.9282 231.465 30.9349C231.479 30.9349 231.486 30.9349 231.493 30.9417C231.527 30.9484 231.554 30.9551 231.588 30.9686C231.595 30.9686 231.609 30.9686 231.616 30.9821C231.657 30.9955 231.691 31.0157 231.732 31.0359L229.378 29.6762C229.378 29.6762 229.378 29.6762 229.371 29.6762C229.344 29.6627 229.316 29.6492 229.282 29.6358C229.282 29.6358 229.268 29.6358 229.262 29.6358C229.255 29.6358 229.241 29.629 229.234 29.6223C229.221 29.6223 229.207 29.6089 229.186 29.6089C229.173 29.6089 229.152 29.6021 229.138 29.5954C229.132 29.5954 229.118 29.5954 229.111 29.5887H229.097C229.063 29.5887 229.029 29.5819 228.995 29.5752C228.995 29.5752 228.995 29.5752 228.988 29.5752C228.981 29.5752 228.974 29.5752 228.961 29.5752C228.933 29.5752 228.906 29.5752 228.878 29.5752C228.872 29.5752 228.858 29.5752 228.851 29.5752C228.83 29.5752 228.817 29.5752 228.796 29.5752C228.783 29.5752 228.762 29.5752 228.748 29.5752C228.735 29.5752 228.721 29.5752 228.707 29.5819C228.687 29.5819 228.659 29.5887 228.639 29.5954C228.625 29.5954 228.612 29.5954 228.598 29.6021C228.584 29.6021 228.57 29.6089 228.557 29.6156C228.516 29.629 228.475 29.6425 228.434 29.656C228.42 29.656 228.406 29.6627 228.393 29.6694C228.386 29.6694 228.379 29.6762 228.365 29.6829C228.297 29.7166 228.221 29.7502 228.146 29.7906L216.465 36.4278C216.369 36.4817 216.28 36.5422 216.191 36.6096C216.177 36.623 216.164 36.6298 216.143 36.6432C216.061 36.7105 215.979 36.7779 215.897 36.8519C215.897 36.8519 215.883 36.8654 215.876 36.8721C215.863 36.8856 215.849 36.899 215.842 36.9125C215.801 36.9529 215.767 36.9933 215.726 37.0336C215.712 37.0471 215.698 37.0606 215.691 37.074C215.685 37.0875 215.671 37.0942 215.664 37.1077C215.644 37.1346 215.616 37.1615 215.596 37.1885C215.582 37.2087 215.568 37.2221 215.548 37.2423C215.534 37.2558 215.527 37.2692 215.514 37.2894C215.5 37.3096 215.479 37.3298 215.466 37.35C215.452 37.3635 215.445 37.3769 215.431 37.3971C215.411 37.4241 215.397 37.451 215.377 37.4712C215.363 37.4847 215.356 37.5048 215.342 37.5183C215.342 37.525 215.336 37.5318 215.329 37.5385C215.295 37.5856 215.267 37.6327 215.24 37.6799C215.24 37.6799 215.24 37.6799 215.24 37.6866C215.24 37.6933 215.226 37.7068 215.226 37.7135C215.206 37.7472 215.185 37.7876 215.165 37.8212C215.158 37.8347 215.151 37.8549 215.137 37.8683C215.13 37.8818 215.117 37.902 215.11 37.9155C215.103 37.9289 215.096 37.9491 215.089 37.9626C215.069 38.003 215.055 38.0434 215.034 38.0838C215.034 38.0905 215.028 38.0972 215.021 38.1039C215.021 38.1039 215.021 38.1039 215.021 38.1107C215 38.1645 214.98 38.2116 214.959 38.2655C214.959 38.2722 214.959 38.2857 214.952 38.2924C214.946 38.3126 214.939 38.3261 214.932 38.3463C214.925 38.3732 214.911 38.4001 214.904 38.4271C214.904 38.4472 214.891 38.4674 214.884 38.4876C214.877 38.5078 214.87 38.5348 214.863 38.555C214.863 38.5684 214.857 38.5819 214.85 38.6021C214.843 38.629 214.836 38.6559 214.829 38.6828C214.822 38.7098 214.816 38.7434 214.809 38.7704C214.809 38.7838 214.809 38.7906 214.802 38.804C214.802 38.8242 214.795 38.8444 214.788 38.8646C214.781 38.9117 214.768 38.9521 214.768 38.9992C214.768 39.0127 214.768 39.0262 214.768 39.0396C214.768 39.0531 214.768 39.0598 214.768 39.0733C214.754 39.1742 214.747 39.2752 214.747 39.3762L214.788 52.5833C214.788 53.1218 214.987 53.5055 215.295 53.6805L217.649 55.0403C217.334 54.8585 217.142 54.4816 217.142 53.9431L217.101 40.7359C217.101 40.635 217.108 40.534 217.122 40.433C217.122 40.4061 217.122 40.3859 217.129 40.359C217.129 40.3119 217.142 40.2715 217.149 40.2244C217.149 40.1907 217.163 40.1638 217.17 40.1301C217.17 40.1032 217.183 40.0695 217.19 40.0426C217.204 40.0022 217.211 39.9618 217.224 39.9214C217.231 39.9012 217.238 39.8743 217.245 39.8541C217.259 39.807 217.272 39.7599 217.293 39.7128C217.293 39.6926 217.306 39.6791 217.313 39.6589C217.341 39.5983 217.361 39.531 217.389 39.4704C217.389 39.4637 217.395 39.457 217.402 39.4502C217.43 39.3964 217.457 39.3425 217.484 39.2887C217.491 39.2685 217.505 39.255 217.512 39.2348C217.539 39.181 217.566 39.1339 217.601 39.08C217.601 39.0733 217.614 39.0598 217.614 39.0531C217.649 38.9925 217.683 38.9386 217.724 38.8781C217.738 38.8579 217.744 38.8444 217.758 38.8309C217.785 38.7906 217.813 38.7502 217.847 38.7098C217.861 38.6896 217.881 38.6694 217.895 38.6492C217.922 38.6155 217.95 38.5819 217.977 38.5482C217.998 38.5213 218.025 38.4944 218.046 38.4674C218.066 38.4405 218.087 38.4203 218.114 38.3934C218.155 38.353 218.189 38.3126 218.23 38.2722C218.251 38.252 218.271 38.2318 218.285 38.2184C218.367 38.1443 218.449 38.0703 218.531 38.0097C218.545 37.9962 218.559 37.9895 218.579 37.976C218.668 37.9087 218.757 37.8482 218.853 37.7943L230.534 31.1571C230.61 31.1167 230.678 31.083 230.753 31.0494C230.774 31.0427 230.801 31.0292 230.822 31.0225L230.788 31.009Z" fill="#097F7F"/>
<path d="M230.501 31.1436C231.459 30.5983 232.239 31.0359 232.246 32.1196L232.287 45.3267C232.287 46.4105 231.513 47.7366 230.555 48.2818L218.874 54.9191C217.916 55.4643 217.129 55.0268 217.129 53.943L217.088 40.7359C217.088 39.6521 217.861 38.326 218.826 37.7808L230.508 31.1436H230.501Z" fill="#1EBDC1"/>
<path d="M219.941 41.133L221.734 40.1099V42.1495L219.941 43.1659V41.133Z" fill="white"/>
<path d="M225.964 38.3597L222.364 40.4061V39.7531L225.964 37.7068V38.3597Z" fill="white"/>
<path d="M230.645 36.4749L222.364 41.1802V40.8167L230.645 36.1182V36.4749Z" fill="white"/>
<path d="M230.645 37.0404L222.364 41.7456V41.3889L230.645 36.6836V37.0404Z" fill="white"/>
<path d="M219.941 44.7275L221.734 43.7043V45.744L219.941 46.7604V44.7275Z" fill="white"/>
<path d="M225.964 41.9542L222.364 44.0006V43.3476L225.964 41.3013V41.9542Z" fill="white"/>
<path d="M230.645 40.0694L222.364 44.7747V44.4112L230.645 39.7126V40.0694Z" fill="white"/>
<path d="M230.645 40.6348L222.364 45.3401V44.9766L230.645 40.2781V40.6348Z" fill="white"/>
<path d="M219.941 48.4705L221.734 47.4541V49.487L219.941 50.5034V48.4705Z" fill="white"/>
<path d="M225.964 45.6972L222.364 47.7436V47.0974L225.964 45.051V45.6972Z" fill="white"/>
<path d="M230.645 43.8123L222.364 48.5176V48.1609L230.645 43.4556V43.8123Z" fill="white"/>
<path d="M230.645 44.3778L222.364 49.083V48.7263L230.645 44.021V44.3778Z" fill="white"/>
</g>
<defs>
<linearGradient id="paint0_linear_3102_2051" x1="189.365" y1="105.701" x2="192.985" y2="105.701" gradientUnits="userSpaceOnUse">
<stop stop-color="#000F1C"/>
<stop offset="1" stop-color="#012A45"/>
</linearGradient>
<linearGradient id="paint1_linear_3102_2051" x1="186.819" y1="105.842" x2="191.822" y2="105.842" gradientUnits="userSpaceOnUse">
<stop stop-color="#000F1C"/>
<stop offset="1" stop-color="#012A45"/>
</linearGradient>
<linearGradient id="paint2_linear_3102_2051" x1="186.97" y1="97.6569" x2="189.365" y2="97.6569" gradientUnits="userSpaceOnUse">
<stop stop-color="#95003D"/>
<stop offset="1" stop-color="#E7006A"/>
</linearGradient>
<linearGradient id="paint3_linear_3102_2051" x1="232.327" y1="127.1" x2="235.554" y2="121.769" gradientUnits="userSpaceOnUse">
<stop stop-color="#000F1C"/>
<stop offset="1" stop-color="#012A45"/>
</linearGradient>
<linearGradient id="paint4_linear_3102_2051" x1="232.655" y1="139.52" x2="236.7" y2="139.52" gradientUnits="userSpaceOnUse">
<stop stop-color="#000F1C"/>
<stop offset="1" stop-color="#012A45"/>
</linearGradient>
<linearGradient id="paint5_linear_3102_2051" x1="229.809" y1="139.688" x2="235.406" y2="139.688" gradientUnits="userSpaceOnUse">
<stop stop-color="#000F1C"/>
<stop offset="1" stop-color="#012A45"/>
</linearGradient>
<linearGradient id="paint6_linear_3102_2051" x1="229.979" y1="128.009" x2="238.007" y2="128.009" gradientUnits="userSpaceOnUse">
<stop stop-color="#000F1C"/>
<stop offset="1" stop-color="#012A45"/>
</linearGradient>
<linearGradient id="paint7_linear_3102_2051" x1="228.44" y1="130.002" x2="232.201" y2="123.78" gradientUnits="userSpaceOnUse">
<stop stop-color="#000F1C"/>
<stop offset="1" stop-color="#012A45"/>
</linearGradient>
<clipPath id="clip0_3102_2051">
<rect width="116" height="152.42" fill="white" transform="translate(122 5.16016)"/>
</clipPath>
</defs>
</svg>
