<svg width="359" height="162" viewBox="0 0 359 162" fill="none" xmlns="http://www.w3.org/2000/svg">
<rect opacity="0.44" y="0.27478" width="359" height="161.214" rx="5" fill="#D2F7D9"/>
<g clip-path="url(#clip0_1753_1599)">
<path opacity="0.21" d="M247.942 105.262L195.435 75.3619L121.124 117.399L121.142 123.775L173.649 153.672L247.96 111.635L247.942 105.262Z" fill="#2E406D"/>
<path opacity="0.21" d="M270.985 83.552L257.225 75.7231C257.234 75.6908 257.243 75.6585 257.249 75.6291C257.249 75.6203 257.252 75.6144 257.255 75.6056C257.267 75.5645 257.276 75.5205 257.285 75.4793C257.288 75.4617 257.291 75.447 257.297 75.4294C257.303 75.3971 257.312 75.3619 257.318 75.3296C257.321 75.312 257.327 75.2914 257.33 75.2738C257.33 75.2591 257.336 75.2444 257.339 75.2297C257.342 75.2121 257.345 75.1945 257.348 75.1769C257.351 75.1593 257.354 75.1387 257.357 75.1211C257.363 75.0858 257.369 75.0535 257.375 75.0183C257.375 75.0007 257.381 74.986 257.384 74.9713C257.399 74.8715 257.411 74.7716 257.423 74.6718C257.423 74.6542 257.426 74.6395 257.429 74.6219C257.432 74.5866 257.435 74.5543 257.438 74.5191C257.438 74.5015 257.438 74.4809 257.441 74.4633C257.441 74.431 257.444 74.3987 257.447 74.3664C257.447 74.3458 257.447 74.3282 257.447 74.3076C257.447 74.2753 257.447 74.243 257.45 74.2107C257.45 74.1931 257.45 74.1755 257.45 74.1579C257.45 74.152 257.45 74.1432 257.45 74.1373C257.45 74.0962 257.45 74.0522 257.45 74.011L257.438 69.6091C257.438 69.6091 257.438 69.6385 257.438 69.6531C257.45 66.8193 255.558 63.9855 251.761 61.8242C244.154 57.4927 231.782 57.4927 224.124 61.8242C220.255 64.0149 218.331 66.8898 218.355 69.7589C218.355 69.7471 218.355 69.7324 218.355 69.7207L218.367 74.1226C218.376 76.9418 220.267 79.758 224.046 81.9105C224.154 81.9722 224.262 82.0309 224.37 82.0896C224.406 82.1072 224.439 82.1278 224.475 82.1454C224.55 82.1865 224.628 82.2276 224.703 82.2658C224.742 82.2864 224.784 82.3069 224.823 82.3275C224.897 82.3657 224.972 82.4038 225.044 82.4391C225.083 82.4596 225.122 82.4773 225.164 82.4978C225.248 82.5389 225.335 82.58 225.422 82.6211C225.452 82.6358 225.479 82.6476 225.509 82.6623C225.623 82.7151 225.74 82.768 225.857 82.8208C225.884 82.8326 225.911 82.8443 225.938 82.8561C226.027 82.8972 226.117 82.9354 226.21 82.9735C226.252 82.9912 226.291 83.0088 226.333 83.0264C226.411 83.0587 226.492 83.091 226.57 83.1233C226.612 83.1409 226.657 83.1585 226.702 83.1762C226.783 83.2085 226.867 83.2408 226.951 83.2731C226.978 83.2848 227.007 83.2936 227.034 83.3054C227.049 83.3112 227.061 83.3171 227.076 83.3201C227.115 83.3347 227.154 83.3494 227.193 83.3641C227.256 83.3876 227.319 83.4111 227.385 83.4346C227.427 83.4493 227.469 83.464 227.511 83.4786C227.574 83.5021 227.637 83.5227 227.7 83.5462C227.742 83.5609 227.784 83.5755 227.826 83.5902C227.892 83.6137 227.955 83.6343 228.021 83.6548C228.059 83.6695 228.101 83.6813 228.14 83.6959C228.212 83.7194 228.284 83.7429 228.356 83.7635C228.389 83.7752 228.425 83.784 228.458 83.7958C228.563 83.8281 228.671 83.8604 228.776 83.8927C228.779 83.8927 228.785 83.8927 228.788 83.8956C228.89 83.925 228.995 83.9573 229.096 83.9867C229.132 83.9955 229.168 84.0072 229.204 84.016C229.261 84.0307 229.315 84.0483 229.372 84.063C229.384 84.066 229.396 84.0689 229.408 84.0718C229.555 84.1129 229.702 84.1511 229.852 84.1893C229.882 84.1981 229.912 84.204 229.945 84.2128C230.071 84.2451 230.193 84.2745 230.319 84.3038C230.358 84.3126 230.397 84.3214 230.436 84.3302C230.586 84.3655 230.739 84.4007 230.889 84.433C230.91 84.4389 230.931 84.4418 230.952 84.4448C231.087 84.4741 231.221 84.5006 231.356 84.5299C231.377 84.5329 231.398 84.5387 231.422 84.5446C231.443 84.5476 231.464 84.5534 231.485 84.5564C231.599 84.5799 231.713 84.6004 231.827 84.621C231.857 84.6268 231.887 84.6327 231.917 84.6386C232.061 84.665 232.202 84.6885 232.345 84.712C232.381 84.7179 232.417 84.7237 232.453 84.7296C232.564 84.7472 232.675 84.7649 232.786 84.7825C232.831 84.7884 232.879 84.7972 232.924 84.803C233.038 84.8207 233.149 84.8353 233.263 84.85C233.29 84.853 233.313 84.8588 233.34 84.8618C233.349 84.8618 233.358 84.8618 233.367 84.8647C233.508 84.8823 233.652 84.9029 233.793 84.9176C233.823 84.9205 233.853 84.9234 233.883 84.9293C233.997 84.944 234.111 84.9557 234.225 84.9675C234.273 84.9734 234.321 84.9763 234.365 84.9822C234.467 84.9939 234.566 85.0027 234.668 85.0115C234.713 85.0145 234.761 85.0203 234.806 85.0233C234.929 85.035 235.052 85.0438 235.175 85.0526C235.193 85.0526 235.211 85.0556 235.229 85.0585C235.232 85.0585 235.235 85.0585 235.238 85.0585C235.382 85.0703 235.525 85.0791 235.669 85.0879C235.711 85.0879 235.75 85.0938 235.792 85.0938C235.897 85.0996 236.002 85.1055 236.11 85.1114C236.158 85.1114 236.209 85.1173 236.257 85.1173C236.362 85.1231 236.464 85.1261 236.568 85.129C236.61 85.129 236.655 85.1319 236.697 85.1349C236.841 85.1407 236.988 85.1437 237.132 85.1466C237.132 85.1466 237.135 85.1466 237.138 85.1466C237.147 85.1466 237.156 85.1466 237.168 85.1466C237.306 85.1466 237.444 85.1525 237.584 85.1525C237.629 85.1525 237.674 85.1525 237.719 85.1525C237.83 85.1525 237.938 85.1525 238.049 85.1525C238.094 85.1525 238.139 85.1525 238.184 85.1525C238.334 85.1525 238.481 85.1496 238.63 85.1466C238.78 85.1437 238.93 85.1378 239.077 85.1319C239.092 85.1319 239.11 85.1319 239.125 85.1319C239.149 85.1319 239.176 85.1319 239.2 85.129C239.329 85.1231 239.455 85.1173 239.584 85.1114C239.619 85.1114 239.658 85.1084 239.694 85.1055C239.853 85.0967 240.009 85.0879 240.168 85.0761C240.201 85.0761 240.231 85.0703 240.264 85.0703C240.396 85.0615 240.525 85.0526 240.654 85.0409C240.695 85.038 240.737 85.035 240.779 85.0292C240.938 85.0145 241.094 85.0027 241.253 84.9851C241.253 84.9851 241.256 84.9851 241.259 84.9851C241.37 84.9734 241.484 84.9616 241.595 84.9499C241.628 84.9469 241.661 84.9411 241.694 84.9381C241.774 84.9293 241.855 84.9205 241.939 84.9088C241.981 84.9029 242.023 84.8999 242.065 84.8941C242.14 84.8853 242.212 84.8764 242.284 84.8647C242.326 84.8588 242.371 84.853 242.413 84.8471C242.488 84.8383 242.563 84.8265 242.638 84.8148C242.677 84.8089 242.719 84.803 242.758 84.7972C242.847 84.7854 242.934 84.7707 243.024 84.7561C243.048 84.7531 243.072 84.7472 243.096 84.7443C243.21 84.7267 243.321 84.7091 243.432 84.6885C243.462 84.6826 243.492 84.6768 243.522 84.6738C243.585 84.6621 243.651 84.6533 243.714 84.6415C243.729 84.6415 243.744 84.6357 243.759 84.6327C243.824 84.621 243.89 84.6092 243.956 84.5975C244.013 84.5857 244.07 84.5769 244.127 84.5652C244.193 84.5534 244.259 84.5387 244.325 84.527C244.382 84.5152 244.436 84.5064 244.493 84.4947C244.559 84.48 244.625 84.4683 244.694 84.4536C244.748 84.4418 244.802 84.4301 244.859 84.4183C244.924 84.4037 244.993 84.389 245.059 84.3743C245.113 84.3626 245.164 84.3508 245.218 84.3391C245.287 84.3244 245.356 84.3068 245.425 84.2891C245.476 84.2774 245.527 84.2656 245.578 84.2539C245.65 84.2363 245.722 84.2187 245.794 84.201C245.842 84.1893 245.89 84.1775 245.934 84.1658C246.012 84.1452 246.09 84.1247 246.171 84.1041C246.21 84.0924 246.249 84.0836 246.291 84.0718C246.408 84.0395 246.525 84.0072 246.642 83.9749L257.797 90.3238V90.3327L262.293 92.8787L271 87.954L270.988 83.552H270.985ZM257.441 69.7089C257.441 69.7089 257.441 69.7383 257.441 69.753C257.441 69.7706 257.441 69.7882 257.441 69.8058C257.441 69.8205 257.441 69.8352 257.441 69.8499C257.441 69.8029 257.441 69.7559 257.444 69.7089H257.441ZM257.435 69.9086C257.435 69.9262 257.435 69.9439 257.435 69.9615C257.435 69.9938 257.432 70.0261 257.429 70.0584C257.429 70.0643 257.429 70.0701 257.429 70.0789C257.432 70.0231 257.435 69.9674 257.438 69.9086H257.435ZM257.423 70.1201C257.423 70.1524 257.417 70.1847 257.414 70.217C257.414 70.2346 257.414 70.2493 257.408 70.2669C257.408 70.2757 257.408 70.2816 257.408 70.2904C257.414 70.2346 257.42 70.1759 257.423 70.1201ZM257.375 70.5488C257.375 70.5488 257.375 70.5605 257.375 70.5664C257.375 70.5811 257.369 70.5987 257.366 70.6134C257.36 70.6486 257.354 70.6809 257.348 70.7162C257.348 70.7162 257.348 70.7191 257.348 70.7221C257.357 70.6633 257.366 70.6046 257.375 70.5459V70.5488ZM257.339 70.7661C257.339 70.7661 257.339 70.772 257.339 70.7749C257.333 70.8072 257.327 70.8395 257.321 70.8718C257.318 70.8894 257.315 70.91 257.309 70.9276C257.309 70.9276 257.309 70.9306 257.309 70.9335C257.321 70.8777 257.33 70.8219 257.342 70.769L257.339 70.7661ZM257.294 70.9893C257.294 70.9893 257.288 71.0128 257.285 71.0245C257.282 71.0421 257.279 71.0598 257.273 71.0744C257.27 71.0921 257.264 71.1097 257.261 71.1273C257.273 71.0803 257.282 71.0333 257.294 70.9864V70.9893ZM225.038 78.0342C225.038 78.0342 225.062 78.0459 225.074 78.0518C225.062 78.0459 225.05 78.0401 225.038 78.0342ZM225.593 68.9689C225.59 68.9924 225.584 69.0188 225.581 69.0423C225.587 69.013 225.59 68.9836 225.596 68.9542C225.596 68.9601 225.596 68.963 225.596 68.9689H225.593ZM246.798 64.7666C246.759 64.7431 246.717 64.7197 246.678 64.6962C246.72 64.7197 246.759 64.7431 246.798 64.7666ZM246.111 64.3937C246.111 64.3937 246.105 64.3937 246.105 64.3908C246.105 64.3908 246.111 64.3908 246.111 64.3937ZM243 63.2543C243 63.2543 242.994 63.2543 242.991 63.2543C242.991 63.2543 242.997 63.2543 243 63.2543ZM242.332 63.0957C242.23 63.0752 242.128 63.0517 242.026 63.0311C242.128 63.0517 242.23 63.0722 242.332 63.0957ZM240.456 62.7874C240.456 62.7874 240.447 62.7874 240.441 62.7874C240.447 62.7874 240.45 62.7874 240.456 62.7874ZM237.402 62.6494C237.345 62.6494 237.291 62.6523 237.234 62.6552C237.291 62.6552 237.345 62.6523 237.402 62.6494ZM236.032 62.7257C235.96 62.7316 235.891 62.7375 235.819 62.7463C235.888 62.7404 235.96 62.7316 236.032 62.7257ZM234.947 62.849C234.869 62.8608 234.791 62.8725 234.71 62.8843C234.788 62.8725 234.866 62.8608 234.947 62.849ZM232.238 63.4305C232.193 63.4422 232.148 63.4569 232.103 63.4716C232.148 63.4569 232.193 63.4452 232.238 63.4305ZM231.983 63.5068C231.89 63.5362 231.794 63.5656 231.701 63.5979C231.794 63.5656 231.887 63.5362 231.983 63.5068ZM231.542 63.6507C231.485 63.6713 231.431 63.6889 231.374 63.7095C231.428 63.6889 231.485 63.6713 231.542 63.6507ZM231.218 63.7653C231.129 63.7976 231.039 63.8328 230.949 63.868C231.039 63.8328 231.129 63.8005 231.218 63.7653ZM229.477 64.5376C229.378 64.5904 229.282 64.6433 229.183 64.6962C229.126 64.7285 229.07 64.7608 229.013 64.796C229.07 64.7637 229.126 64.7285 229.183 64.6962C229.279 64.6404 229.378 64.5875 229.477 64.5376ZM228.743 64.9605C228.716 64.9781 228.689 64.9957 228.662 65.0133C228.638 65.028 228.614 65.0456 228.587 65.0603C228.638 65.028 228.689 64.9928 228.743 64.9605ZM226.468 66.9985C226.468 66.9985 226.456 67.0131 226.45 67.0219C226.456 67.0131 226.462 67.0073 226.468 66.9985ZM226.075 67.6181C226.06 67.6445 226.045 67.6709 226.033 67.6974C226.048 67.668 226.063 67.6386 226.081 67.6093V67.6181H226.075ZM227.493 79.0708C227.526 79.0826 227.556 79.0943 227.589 79.106C227.556 79.0943 227.526 79.0825 227.493 79.0737V79.0708ZM229.189 79.6082C229.258 79.6288 229.324 79.6464 229.393 79.664C229.327 79.6464 229.258 79.6258 229.192 79.6082H229.189ZM230.301 79.896C230.328 79.9019 230.355 79.9077 230.382 79.9136C230.355 79.9077 230.328 79.9019 230.304 79.896H230.301ZM230.934 80.0399C230.919 80.0369 230.904 80.034 230.889 80.0311C230.904 80.034 230.922 80.0369 230.937 80.0399H230.934ZM231.899 80.2308C231.869 80.2249 231.839 80.219 231.809 80.2131C231.839 80.219 231.869 80.2249 231.902 80.2308H231.899ZM233.775 80.5097C233.793 80.5097 233.811 80.5127 233.829 80.5156C233.811 80.5156 233.793 80.5127 233.778 80.5097H233.775ZM235.777 80.6889C235.744 80.6889 235.711 80.6859 235.678 80.683C235.711 80.683 235.744 80.6859 235.777 80.6889ZM236.239 80.7124C236.206 80.7124 236.173 80.7094 236.14 80.7065C236.173 80.7065 236.206 80.7094 236.239 80.7124ZM240.249 80.6624C240.249 80.6624 240.225 80.6624 240.216 80.6624C240.228 80.6624 240.24 80.6624 240.252 80.6624H240.249ZM240.639 80.6331C240.671 80.6331 240.707 80.6272 240.74 80.6243C240.707 80.6243 240.674 80.6301 240.642 80.6331H240.639ZM242.398 80.4422C242.47 80.4334 242.545 80.4216 242.617 80.4128C242.545 80.4246 242.473 80.4334 242.398 80.4422ZM245.203 79.9312C245.167 79.94 245.131 79.9488 245.095 79.9547C245.131 79.9459 245.167 79.9371 245.206 79.9312H245.203ZM246.153 79.6963C246.153 79.6963 246.144 79.6963 246.141 79.6992C246.18 79.6875 246.219 79.6787 246.261 79.6669C246.225 79.6757 246.189 79.6845 246.153 79.6963ZM246.615 74.6219C241.768 77.3646 233.934 77.3646 229.12 74.6219C227.724 73.826 226.738 72.8893 226.153 71.8908C226.165 71.8673 226.18 71.8468 226.192 71.8233C226.204 71.8027 226.213 71.7851 226.225 71.7646C226.258 71.7088 226.294 71.6559 226.33 71.6001C226.33 71.6001 226.333 71.5942 226.336 71.5913C226.375 71.5355 226.414 71.4768 226.453 71.421C226.465 71.4034 226.48 71.3857 226.492 71.3652C226.519 71.327 226.549 71.2888 226.579 71.2506C226.612 71.2066 226.648 71.1625 226.684 71.1214C226.69 71.1126 226.696 71.1068 226.702 71.0979C226.735 71.0568 226.771 71.0157 226.804 70.9746C226.813 70.9658 226.819 70.957 226.828 70.9482C226.867 70.9041 226.909 70.8571 226.948 70.8131C226.954 70.8043 226.963 70.7984 226.969 70.7896C227.373 71.9848 228.392 73.1242 230.029 74.0492C234.374 76.5072 241.421 76.5072 245.767 74.0492C247.421 73.1124 248.443 71.9584 248.839 70.7485C249.162 71.095 249.432 71.4533 249.648 71.8203C249.058 72.8423 248.047 73.8055 246.612 74.616L246.615 74.6219ZM255.453 74.5015C255.414 74.5484 255.373 74.5954 255.331 74.6395C255.382 74.5837 255.432 74.525 255.48 74.4662C255.471 74.478 255.462 74.4868 255.453 74.4985V74.5015ZM255.618 74.3047C255.603 74.3223 255.588 74.3429 255.573 74.3605C255.558 74.3781 255.543 74.3957 255.528 74.4134C255.564 74.3693 255.6 74.3282 255.636 74.2842C255.63 74.29 255.624 74.2988 255.618 74.3047ZM255.69 74.2166C255.69 74.2166 255.684 74.2254 255.681 74.2284C255.723 74.1784 255.762 74.1256 255.801 74.0757C255.78 74.1021 255.759 74.1314 255.735 74.1579C255.72 74.1784 255.705 74.1961 255.687 74.2166H255.69ZM255.912 73.9259C255.891 73.9523 255.87 73.9817 255.849 74.0081C255.846 74.014 255.843 74.0169 255.837 74.0228C255.873 73.9729 255.912 73.9259 255.945 73.876C255.933 73.8936 255.921 73.9083 255.909 73.9259H255.912ZM256.065 73.7145C256.05 73.735 256.035 73.7556 256.02 73.7791C256.011 73.7908 256.002 73.8025 255.993 73.8143C256.026 73.7702 256.056 73.7262 256.086 73.6821C256.077 73.6939 256.071 73.7027 256.062 73.7145H256.065ZM256.167 73.5676C256.155 73.5852 256.143 73.6029 256.131 73.6234C256.164 73.5764 256.194 73.5265 256.227 73.4795C256.209 73.5089 256.188 73.5383 256.167 73.5706V73.5676ZM256.356 73.271C256.347 73.2886 256.335 73.3033 256.326 73.3209C256.305 73.3533 256.284 73.3885 256.263 73.4208C256.263 73.4237 256.257 73.4296 256.254 73.4325C256.29 73.3738 256.329 73.318 256.362 73.2593C256.362 73.2622 256.356 73.2681 256.356 73.271ZM256.446 73.1183C256.446 73.1183 256.446 73.1183 256.446 73.1213C256.428 73.1506 256.41 73.18 256.395 73.2094C256.422 73.1624 256.448 73.1183 256.475 73.0713C256.466 73.086 256.457 73.1036 256.449 73.1183H256.446ZM256.55 72.9333C256.55 72.9333 256.535 72.9597 256.529 72.9715C256.523 72.9862 256.514 72.9979 256.505 73.0126C256.532 72.9656 256.559 72.9157 256.586 72.8687C256.574 72.8922 256.562 72.9128 256.55 72.9363V72.9333ZM256.685 72.6778C256.67 72.7101 256.652 72.7395 256.637 72.7718C256.628 72.7894 256.619 72.807 256.61 72.8247C256.64 72.7689 256.67 72.7101 256.697 72.6543C256.694 72.6631 256.688 72.672 256.685 72.6778ZM256.784 72.4723C256.775 72.4928 256.766 72.5104 256.757 72.531C256.748 72.5545 256.736 72.5751 256.724 72.5985C256.748 72.5486 256.772 72.5016 256.793 72.4517C256.79 72.4576 256.787 72.4664 256.784 72.4723ZM256.85 72.3225C256.841 72.3401 256.835 72.3577 256.826 72.3754C256.826 72.3812 256.823 72.3842 256.82 72.39C256.841 72.3431 256.862 72.2961 256.883 72.2491C256.871 72.2755 256.862 72.299 256.85 72.3225ZM256.973 72.0259C256.955 72.0758 256.934 72.1258 256.913 72.1757C256.91 72.1845 256.907 72.1904 256.904 72.1992C256.928 72.1375 256.955 72.0788 256.979 72.0171C256.979 72.02 256.979 72.023 256.976 72.0288L256.973 72.0259ZM257.048 71.8262C257.042 71.8438 257.036 71.8615 257.03 71.8761C257.018 71.9084 257.006 71.9407 256.994 71.9731C257.015 71.9231 257.033 71.8703 257.051 71.8174C257.051 71.8174 257.051 71.8203 257.051 71.8233L257.048 71.8262ZM257.102 71.6735C257.096 71.6911 257.09 71.7117 257.084 71.7293C257.081 71.7411 257.075 71.7528 257.072 71.7646C257.087 71.7176 257.105 71.6706 257.12 71.6236C257.114 71.6412 257.108 71.6559 257.105 71.6735H257.102ZM257.18 71.418C257.171 71.4533 257.159 71.4885 257.15 71.5237C257.147 71.5355 257.141 71.5502 257.138 71.5619C257.156 71.5061 257.174 71.4474 257.189 71.3916L257.18 71.418ZM257.243 71.189C257.243 71.189 257.243 71.1978 257.24 71.2037C257.24 71.2125 257.237 71.2183 257.234 71.2272C257.222 71.2712 257.21 71.3153 257.198 71.3593C257.213 71.3035 257.228 71.2448 257.243 71.189Z" fill="#2E406D"/>
<path opacity="0.21" d="M181.269 77.72L203.313 65.2365L200.789 63.7917L178.745 76.2752L181.269 77.72Z" fill="#2E406D"/>
<path d="M248.227 99.3832L248.245 105.756L173.937 147.793L173.916 141.418L248.227 99.3832Z" fill="#F0F6FF"/>
<path d="M173.916 141.418L173.937 147.793L121.427 117.895L121.409 111.52L173.916 141.418Z" fill="#BDD7FF"/>
<path d="M195.721 69.4857L248.228 99.3832L173.916 141.418L121.409 111.52L195.721 69.4857Z" fill="#D1E4FF"/>
<path d="M193.787 76.2458L224.622 93.789L166.819 126.688L135.984 109.144L193.787 76.2458Z" fill="#B0CEFF"/>
<path d="M205.036 108.639L213.347 113.367L197.768 122.236L189.457 117.508L205.036 108.639Z" fill="#B0CEFF"/>
<path d="M121.41 111.52L115.784 108.319L115.625 52.7971L121.248 56.0009L121.41 111.52Z" fill="#BDD7FF"/>
<path d="M121.248 56.0009L115.625 52.7971L189.933 10.7626L195.559 13.9635L121.248 56.0009Z" fill="#D1E4FF"/>
<path d="M195.559 13.9635L195.721 69.4857L121.41 111.52L121.248 56.0009L195.559 13.9635Z" fill="#F0F6FF"/>
<path d="M123.247 57.1286L193.575 17.3465L193.722 68.3581L123.394 108.14L123.247 57.1286Z" fill="#4CD866"/>
<path d="M204.658 57.0669L180.231 70.9012L180.213 34.135L204.64 20.3036L204.658 57.0669Z" fill="white"/>
<path opacity="0.3" d="M201.376 46.7741L183.501 56.8966V53.4578L201.373 43.3325L201.376 46.7741Z" fill="#7796FF"/>
<path opacity="0.3" d="M201.376 48.818L183.504 58.9404L183.501 57.8128L201.376 47.6874V48.818Z" fill="#7796FF"/>
<path opacity="0.3" d="M201.379 50.7004L183.504 60.8228V59.6922L201.376 49.5698L201.379 50.7004Z" fill="#7796FF"/>
<path opacity="0.3" d="M195.897 55.6867L183.504 62.7051V61.5746L195.897 54.5561V55.6867Z" fill="#7796FF"/>
<path d="M180.231 70.9012L177.435 69.3008L177.417 32.5346L180.213 34.1351L180.231 70.9012Z" fill="#BDD7FF"/>
<path d="M180.213 34.135L204.64 20.3036L201.844 18.7003L177.417 32.5346L180.213 34.135Z" fill="#D1E4FF"/>
<path d="M140.255 92.077L115.829 105.911L115.811 69.1451L140.237 55.3108L140.255 92.077Z" fill="white"/>
<path opacity="0.3" d="M136.974 81.7842L119.099 91.9067V88.465L136.974 78.3425V81.7842Z" fill="#7796FF"/>
<path opacity="0.3" d="M136.974 83.8281L119.102 93.9505V92.82L136.974 82.6975V83.8281Z" fill="#7796FF"/>
<path opacity="0.3" d="M136.977 85.7075L119.102 95.8329V94.7023L136.977 84.5799V85.7075Z" fill="#7796FF"/>
<path opacity="0.3" d="M131.495 90.6939L119.102 97.7123V96.5847L131.495 89.5662V90.6939Z" fill="#7796FF"/>
<path d="M115.829 105.911L113.033 104.311L113.015 67.5447L115.811 69.1451L115.829 105.911Z" fill="#BDD7FF"/>
<path d="M115.811 69.1451L140.238 55.3108L137.441 53.7104L113.015 67.5447L115.811 69.1451Z" fill="#D1E4FF"/>
<path opacity="0.3" d="M191.027 64.7872L183.909 68.7222V32.0442L191.027 28.0122V64.7872Z" fill="#7796FF"/>
<path opacity="0.3" d="M143.815 90.1095L136.697 94.0416V47.2117L143.815 43.1797V90.1095Z" fill="#7796FF"/>
<path d="M183.939 71.0216L145.848 92.5938L145.818 35.2627L183.909 13.6904L183.939 71.0216Z" fill="white"/>
<path opacity="0.3" d="M178.82 54.9701L150.946 70.7543L150.943 65.3892L178.817 49.605L178.82 54.9701Z" fill="#7796FF"/>
<path opacity="0.3" d="M178.82 58.1564L150.949 73.9406L150.946 72.1815L178.82 56.3944V58.1564Z" fill="#7796FF"/>
<path opacity="0.3" d="M178.823 61.09L150.949 76.8772V75.1152L178.823 59.331V61.09Z" fill="#7796FF"/>
<path opacity="0.3" d="M170.278 68.8661L150.952 79.8108L150.949 78.0489L170.275 67.1042L170.278 68.8661Z" fill="#7796FF"/>
<path d="M145.848 92.5938L141.487 90.0977L141.457 32.7665L145.818 35.2626L145.848 92.5938Z" fill="#BDD7FF"/>
<path d="M145.818 35.2627L183.909 13.6904L179.548 11.1914L141.457 32.7666L145.818 35.2627Z" fill="#D1E4FF"/>
<path opacity="0.3" d="M121.248 62.8814L115.625 59.5748V66.0676L121.248 62.8814Z" fill="#7796FF"/>
<path d="M112.585 107.717L90.5414 120.204L90.5234 87.0231L112.567 74.5397L112.585 107.717Z" fill="white"/>
<path opacity="0.3" d="M109.622 98.4289L93.4912 107.565V104.461L109.622 95.3249V98.4289Z" fill="#7796FF"/>
<path opacity="0.3" d="M109.625 100.273L93.4942 109.409L93.4912 108.39L109.622 99.254L109.625 100.273Z" fill="#7796FF"/>
<path opacity="0.3" d="M109.625 101.973L93.4941 111.106V110.087L109.625 100.954V101.973Z" fill="#7796FF"/>
<path opacity="0.3" d="M104.68 106.472L93.4941 112.806V111.787L104.68 105.453V106.472Z" fill="#7796FF"/>
<path d="M90.5416 120.204L88.018 118.759L88 85.5783L90.5236 87.0231L90.5416 120.204Z" fill="#BDD7FF"/>
<path d="M90.5236 87.0231L112.568 74.5397L110.044 73.0948L88 85.5783L90.5236 87.0231Z" fill="#D1E4FF"/>
<path opacity="0.21" d="M93.047 125.454L115.091 112.971L112.567 111.526L90.5234 124.01L93.047 125.454Z" fill="#2E406D"/>
<path opacity="0.21" d="M205.611 63.8622L227.656 51.3787L225.132 49.9339L203.088 62.4174L205.611 63.8622Z" fill="#2E406D"/>
<path d="M230.595 42.2488L208.551 54.7323L208.533 21.5517L230.577 9.06824L230.595 42.2488Z" fill="white"/>
<path opacity="0.3" d="M227.632 32.9574L211.501 42.0932V38.9892L227.632 29.8535V32.9574Z" fill="#7796FF"/>
<path opacity="0.3" d="M227.635 34.8017L211.504 43.9374V42.9184L227.635 33.7827V34.8017Z" fill="#7796FF"/>
<path opacity="0.3" d="M227.635 36.5019L211.504 45.6377V44.6187L227.635 35.4829V36.5019Z" fill="#7796FF"/>
<path opacity="0.3" d="M222.689 41.0008L211.504 47.335V46.316L222.689 39.9818V41.0008Z" fill="#7796FF"/>
<path d="M208.551 54.7323L206.028 53.2875L206.01 20.1069L208.533 21.5517L208.551 54.7323Z" fill="#BDD7FF"/>
<path d="M250.272 65.6535C250.266 63.868 249.07 62.0855 246.678 60.7229C246.604 60.6818 246.529 60.6378 246.454 60.5996C246.43 60.5849 246.403 60.5732 246.379 60.5585C246.328 60.5321 246.277 60.5056 246.226 60.4792C246.196 60.4645 246.163 60.4469 246.133 60.4322C246.085 60.4087 246.04 60.3852 245.992 60.3617C245.959 60.3441 245.926 60.3294 245.89 60.3148C245.845 60.2942 245.8 60.2707 245.755 60.2502C245.719 60.2325 245.683 60.2179 245.65 60.2032C245.605 60.1826 245.56 60.1621 245.516 60.1415C245.48 60.1239 245.441 60.1092 245.405 60.0945C245.36 60.074 245.315 60.0563 245.27 60.0358C245.231 60.0211 245.195 60.0035 245.156 59.9888C245.111 59.9712 245.066 59.9536 245.021 59.933C244.982 59.9183 244.943 59.9036 244.904 59.889C244.871 59.8743 244.835 59.8625 244.802 59.8478C244.793 59.8449 244.784 59.842 244.778 59.839C244.67 59.7979 244.562 59.7597 244.455 59.7216C244.434 59.7128 244.41 59.7069 244.389 59.6981C244.299 59.6658 244.209 59.6364 244.116 59.607C244.086 59.5982 244.053 59.5865 244.023 59.5777C243.912 59.5424 243.801 59.5072 243.69 59.4749C243.69 59.4749 243.69 59.4749 243.687 59.4749C243.573 59.4397 243.459 59.4074 243.346 59.378C243.331 59.3751 243.319 59.3692 243.304 59.3662C243.283 59.3604 243.259 59.3545 243.235 59.3486C243.175 59.331 243.112 59.3163 243.049 59.2987C243.01 59.2899 242.971 59.2781 242.932 59.2693C242.869 59.2546 242.806 59.237 242.74 59.2223C242.704 59.2135 242.665 59.2047 242.629 59.1959C242.557 59.1783 242.485 59.1636 242.41 59.146C242.381 59.1401 242.354 59.1343 242.324 59.1254C242.222 59.1049 242.12 59.0814 242.018 59.0608C242.018 59.0608 242.015 59.0608 242.012 59.0608C241.985 59.055 241.958 59.052 241.931 59.0462C241.862 59.0315 241.793 59.0197 241.724 59.008C241.685 59.0021 241.646 58.9933 241.61 58.9874C241.55 58.9757 241.49 58.9669 241.43 58.9551C241.388 58.9492 241.347 58.9404 241.305 58.9346C241.248 58.9257 241.191 58.9169 241.131 58.9081C241.089 58.9023 241.044 58.8964 241.002 58.8905C240.945 58.8817 240.888 58.8729 240.834 58.867C240.819 58.867 240.804 58.8641 240.792 58.8611C240.759 58.8582 240.726 58.8523 240.696 58.8494C240.645 58.8435 240.594 58.8377 240.543 58.8288C240.495 58.823 240.447 58.8171 240.399 58.8112C240.348 58.8053 240.298 58.7995 240.247 58.7936C240.199 58.7877 240.151 58.7848 240.103 58.7789C240.052 58.773 240.001 58.7701 239.95 58.7642C239.902 58.7584 239.854 58.7554 239.806 58.7525C239.755 58.7466 239.704 58.7437 239.653 58.7407C239.635 58.7407 239.614 58.7378 239.596 58.7349C239.566 58.7349 239.539 58.7319 239.509 58.729C239.458 58.7261 239.407 58.7202 239.353 58.7173C239.305 58.7143 239.257 58.7114 239.21 58.7084C239.159 58.7055 239.108 58.7026 239.054 58.6996C239.006 58.6996 238.958 58.6938 238.91 58.6938C238.859 58.6938 238.808 58.6879 238.754 58.6879C238.706 58.6879 238.658 58.6849 238.61 58.682C238.559 58.682 238.508 58.6791 238.454 58.6791C238.43 58.6791 238.406 58.6791 238.382 58.6791C238.358 58.6791 238.334 58.6791 238.31 58.6791C238.256 58.6791 238.199 58.6791 238.146 58.6791C238.098 58.6791 238.053 58.6791 238.005 58.6791C237.951 58.6791 237.894 58.6791 237.84 58.6791C237.792 58.6791 237.747 58.6791 237.699 58.6791C237.642 58.6791 237.588 58.6791 237.531 58.6791C237.486 58.6791 237.438 58.6791 237.393 58.6791C237.336 58.6791 237.282 58.682 237.225 58.685C237.192 58.685 237.162 58.685 237.13 58.685C237.118 58.685 237.103 58.685 237.091 58.685C237.019 58.685 236.944 58.6908 236.872 58.6938C236.839 58.6938 236.803 58.6967 236.77 58.6996C236.662 58.7055 236.557 58.7114 236.449 58.7202C236.44 58.7202 236.431 58.7202 236.425 58.7202C236.326 58.7261 236.23 58.7349 236.131 58.7437C236.095 58.7466 236.06 58.7496 236.027 58.7525C235.955 58.7584 235.886 58.7642 235.814 58.773C235.799 58.773 235.787 58.773 235.772 58.776C235.751 58.776 235.727 58.7819 235.706 58.7819C235.619 58.7907 235.532 58.7995 235.445 58.8112C235.409 58.8142 235.376 58.82 235.34 58.823C235.232 58.8377 235.121 58.8494 235.014 58.8641C235.008 58.8641 234.999 58.8641 234.993 58.8641C234.876 58.8788 234.762 58.8964 234.648 58.914C234.615 58.9199 234.582 58.9257 234.549 58.9287C234.465 58.9434 234.378 58.9581 234.294 58.9727C234.273 58.9757 234.252 58.9786 234.231 58.9845C234.213 58.9874 234.198 58.9904 234.18 58.9933C234.132 59.0021 234.084 59.0109 234.039 59.0197C233.992 59.0285 233.944 59.0373 233.896 59.0462C233.848 59.055 233.803 59.0638 233.755 59.0755C233.707 59.0843 233.659 59.0961 233.614 59.1049C233.566 59.1137 233.521 59.1254 233.473 59.1343C233.425 59.1431 233.38 59.1548 233.332 59.1666C233.287 59.1783 233.239 59.1871 233.194 59.1989C233.146 59.2106 233.101 59.2194 233.053 59.2312C233.008 59.2429 232.96 59.2546 232.916 59.2664C232.871 59.2781 232.823 59.2899 232.778 59.3016C232.733 59.3134 232.688 59.3251 232.64 59.3369C232.595 59.3486 232.547 59.3604 232.502 59.375C232.457 59.3868 232.412 59.4015 232.367 59.4132C232.322 59.425 232.277 59.4397 232.232 59.4514C232.187 59.4631 232.142 59.4778 232.097 59.4925C232.07 59.5013 232.043 59.5101 232.016 59.516C232.004 59.5189 231.989 59.5248 231.977 59.5278C231.864 59.563 231.753 59.5982 231.639 59.6364C231.633 59.6364 231.627 59.6393 231.621 59.6423C231.516 59.6775 231.411 59.7157 231.306 59.7509C231.276 59.7627 231.246 59.7715 231.216 59.7832C231.123 59.8185 231.03 59.8537 230.937 59.889C230.919 59.8948 230.901 59.9036 230.883 59.9095C230.776 59.9506 230.671 59.9947 230.566 60.0387C230.539 60.0505 230.512 60.0622 230.485 60.074C230.401 60.1092 230.317 60.1474 230.233 60.1826C230.209 60.1944 230.182 60.2061 230.158 60.2179C230.056 60.2648 229.954 60.3118 229.852 60.3617C229.834 60.3706 229.816 60.3794 229.795 60.3911C229.712 60.4322 229.628 60.4733 229.547 60.5174C229.52 60.5321 229.493 60.5468 229.466 60.5585C229.367 60.6114 229.271 60.6642 229.172 60.7171C229.097 60.7582 229.025 60.8022 228.953 60.8433C228.929 60.858 228.905 60.8727 228.881 60.8874C228.839 60.9138 228.794 60.9403 228.752 60.9637C228.749 60.9637 228.743 60.9696 228.74 60.9726C228.711 60.9931 228.681 61.0107 228.648 61.0313C228.609 61.0548 228.57 61.0812 228.531 61.1047C228.501 61.1253 228.471 61.1458 228.441 61.1664C228.405 61.1899 228.366 61.2163 228.33 61.2398C228.3 61.2603 228.27 61.2809 228.24 61.3044C228.204 61.3279 228.171 61.3543 228.135 61.3778C228.105 61.3984 228.078 61.4219 228.048 61.4424C228.015 61.4659 227.982 61.4923 227.949 61.5188C227.919 61.5393 227.892 61.5628 227.865 61.5834C227.832 61.6098 227.802 61.6333 227.769 61.6597C227.742 61.6832 227.715 61.7038 227.688 61.7273C227.659 61.7537 227.629 61.7772 227.599 61.8036C227.572 61.8271 227.545 61.8506 227.521 61.8712C227.491 61.8976 227.464 61.9211 227.434 61.9475C227.407 61.971 227.383 61.9945 227.359 62.018C227.341 62.0327 227.323 62.0503 227.305 62.065C227.29 62.0797 227.278 62.0914 227.263 62.1061C227.251 62.1149 227.242 62.1266 227.23 62.1355C227.185 62.1795 227.14 62.2235 227.095 62.2676C227.089 62.2735 227.083 62.2823 227.077 62.2882C227.038 62.3293 226.999 62.3674 226.96 62.4086C226.951 62.4174 226.942 62.4262 226.933 62.4379C226.891 62.482 226.852 62.529 226.813 62.573C226.804 62.5818 226.798 62.5906 226.789 62.5994C226.753 62.6405 226.72 62.6817 226.687 62.7198C226.681 62.7286 226.675 62.7345 226.666 62.7433C226.636 62.7815 226.607 62.8197 226.577 62.8579C226.574 62.8637 226.568 62.8696 226.565 62.8755C226.535 62.9136 226.508 62.9518 226.478 62.99C226.466 63.0076 226.451 63.0252 226.439 63.0458C226.397 63.1016 226.358 63.1603 226.322 63.2161C226.322 63.2161 226.319 63.222 226.316 63.2249C226.28 63.2778 226.244 63.3336 226.211 63.3894C226.199 63.4099 226.187 63.4275 226.178 63.4481C226.154 63.4863 226.133 63.5245 226.109 63.5626C226.106 63.5685 226.103 63.5744 226.097 63.5803C226.085 63.5979 226.076 63.6184 226.067 63.6361C226.052 63.6654 226.034 63.6948 226.019 63.7271C226.007 63.7535 225.992 63.7799 225.98 63.8064C225.965 63.8357 225.95 63.8651 225.938 63.8974C225.926 63.9238 225.914 63.9503 225.902 63.9767C225.89 64.0061 225.875 64.0354 225.863 64.0677C225.851 64.0942 225.842 64.1206 225.83 64.147C225.818 64.1764 225.806 64.2057 225.794 64.2381C225.791 64.2498 225.785 64.2586 225.782 64.2704C225.776 64.288 225.77 64.3027 225.764 64.3203C225.755 64.3496 225.743 64.3761 225.734 64.4054C225.725 64.4319 225.716 64.4612 225.707 64.4877C225.698 64.517 225.689 64.5464 225.68 64.5728C225.671 64.5993 225.665 64.6286 225.656 64.655C225.647 64.6844 225.641 64.7138 225.635 64.7402C225.629 64.7666 225.623 64.796 225.617 64.8224C225.611 64.8518 225.605 64.8812 225.599 64.9076C225.599 64.9193 225.593 64.9311 225.59 64.9458C225.59 64.9605 225.584 64.9781 225.582 64.9928C225.576 65.0221 225.573 65.0515 225.567 65.0809C225.564 65.1073 225.558 65.1367 225.555 65.1631C225.552 65.1924 225.546 65.2218 225.543 65.2512C225.54 65.2776 225.537 65.307 225.534 65.3334C225.534 65.3628 225.528 65.3921 225.528 65.4215C225.528 65.4479 225.525 65.4773 225.522 65.5037C225.522 65.5331 225.522 65.5625 225.519 65.5918C225.519 65.6065 225.519 65.6212 225.519 65.6359C225.519 65.6623 225.519 65.6887 225.519 65.7152L225.531 70.1171C225.531 70.076 225.531 70.0349 225.531 69.9938C225.531 69.9644 225.531 69.935 225.534 69.9057C225.534 69.8793 225.537 69.8499 225.54 69.8235C225.54 69.7941 225.546 69.7647 225.546 69.7354C225.546 69.7089 225.552 69.6796 225.555 69.6531C225.558 69.6238 225.561 69.5944 225.567 69.565C225.57 69.5386 225.576 69.5092 225.579 69.4828C225.584 69.4534 225.587 69.4241 225.593 69.3947C225.599 69.3683 225.602 69.3389 225.608 69.3125C225.614 69.2831 225.62 69.2538 225.626 69.2273C225.632 69.2009 225.638 69.1715 225.644 69.1451C225.65 69.1157 225.659 69.0864 225.665 69.0599C225.671 69.0335 225.68 69.0041 225.689 68.9777C225.698 68.9484 225.707 68.919 225.716 68.8926C225.725 68.8661 225.734 68.8368 225.743 68.8103C225.752 68.781 225.761 68.7545 225.773 68.7252C225.782 68.6987 225.791 68.6694 225.803 68.6429C225.815 68.6136 225.827 68.5842 225.839 68.5519C225.851 68.5255 225.86 68.4991 225.872 68.4726C225.884 68.4433 225.899 68.4139 225.911 68.3845C225.923 68.3581 225.935 68.3317 225.947 68.3052C225.962 68.2759 225.977 68.2465 225.989 68.2171C226.001 68.1907 226.016 68.1643 226.028 68.1378C226.043 68.1085 226.058 68.0791 226.076 68.0498C226.091 68.0233 226.103 67.9998 226.118 67.9734C226.139 67.9352 226.163 67.897 226.184 67.8589C226.196 67.8383 226.205 67.8207 226.217 67.8001C226.25 67.7443 226.286 67.6915 226.322 67.6357C226.322 67.6357 226.325 67.6298 226.328 67.6269C226.367 67.5711 226.406 67.5124 226.445 67.4566C226.457 67.4389 226.472 67.4213 226.484 67.4008C226.511 67.3626 226.541 67.3244 226.571 67.2862C226.604 67.2422 226.639 67.1981 226.675 67.157C226.681 67.1482 226.687 67.1423 226.696 67.1335C226.729 67.0924 226.765 67.0513 226.798 67.0102C226.807 67.0014 226.813 66.9926 226.822 66.9838C226.861 66.9397 226.903 66.8927 226.942 66.8487C226.951 66.8399 226.96 66.8281 226.969 66.8193C227.008 66.7782 227.044 66.74 227.083 66.6989C227.089 66.693 227.095 66.6842 227.104 66.6784C227.149 66.6343 227.194 66.5903 227.239 66.5462C227.251 66.5345 227.26 66.5257 227.272 66.5169C227.302 66.4875 227.335 66.4581 227.368 66.4288C227.392 66.4053 227.419 66.3818 227.443 66.3583C227.473 66.3318 227.5 66.3084 227.53 66.2819C227.557 66.2584 227.584 66.2349 227.608 66.2144C227.638 66.188 227.668 66.1645 227.697 66.138C227.724 66.1145 227.751 66.094 227.778 66.0705C227.808 66.0441 227.841 66.0206 227.874 65.9941C227.901 65.9736 227.931 65.9501 227.958 65.9295C227.991 65.9031 228.024 65.8796 228.057 65.8532C228.087 65.8326 228.114 65.8091 228.144 65.7886C228.177 65.7651 228.213 65.7387 228.249 65.7152C228.279 65.6946 228.309 65.674 228.339 65.6506C228.375 65.6271 228.411 65.6006 228.45 65.5771C228.48 65.5566 228.51 65.536 228.54 65.5155C228.579 65.489 228.618 65.4655 228.657 65.4421C228.687 65.4215 228.717 65.4039 228.749 65.3833C228.794 65.354 228.842 65.3246 228.89 65.2982C228.914 65.2835 228.938 65.2688 228.962 65.2541C229.034 65.2101 229.106 65.169 229.181 65.1278C229.277 65.072 229.376 65.0192 229.475 64.9693C229.502 64.9546 229.529 64.9399 229.556 64.9282C229.637 64.8841 229.721 64.843 229.804 64.8019C229.822 64.7931 229.84 64.7843 229.861 64.7725C229.96 64.7226 230.062 64.6756 230.167 64.6286C230.191 64.6169 230.218 64.6051 230.242 64.5934C230.326 64.5552 230.41 64.52 230.494 64.4847C230.521 64.473 230.548 64.4612 230.575 64.4495C230.68 64.4054 230.785 64.3614 230.892 64.3203C230.91 64.3144 230.928 64.3056 230.946 64.2997C231.039 64.2645 231.129 64.2292 231.222 64.194C231.252 64.1823 231.282 64.1705 231.312 64.1617C231.417 64.1235 231.522 64.0883 231.627 64.053C231.633 64.053 231.639 64.0501 231.645 64.0472C231.756 64.009 231.87 63.9738 231.98 63.9385C232.019 63.9268 232.061 63.915 232.1 63.9003C232.145 63.8857 232.19 63.8739 232.235 63.8592C232.28 63.8445 232.325 63.8328 232.373 63.8211C232.418 63.8093 232.463 63.7946 232.508 63.7829C232.553 63.7711 232.601 63.7565 232.646 63.7447C232.691 63.733 232.736 63.7212 232.781 63.7095C232.826 63.6977 232.874 63.686 232.919 63.6742C232.963 63.6625 233.011 63.6507 233.056 63.639C233.101 63.6272 233.149 63.6155 233.197 63.6067C233.242 63.5949 233.29 63.5861 233.335 63.5744C233.383 63.5626 233.428 63.5538 233.476 63.5421C233.521 63.5333 233.569 63.5215 233.614 63.5127C233.662 63.5039 233.71 63.4922 233.755 63.4833C233.803 63.4745 233.848 63.4657 233.896 63.454C233.944 63.4452 233.992 63.4364 234.039 63.4276C234.087 63.4187 234.132 63.4099 234.18 63.4011C234.219 63.3953 234.258 63.3864 234.294 63.3806C234.378 63.3659 234.465 63.3512 234.549 63.3365C234.582 63.3306 234.615 63.3248 234.648 63.3218C234.762 63.3042 234.879 63.2866 234.993 63.2719C234.999 63.2719 235.008 63.2719 235.014 63.2719C235.121 63.2572 235.232 63.2425 235.34 63.2308C235.376 63.2279 235.412 63.222 235.445 63.2191C235.532 63.2102 235.619 63.1985 235.703 63.1897C235.739 63.1868 235.775 63.1809 235.811 63.1779C235.88 63.1721 235.952 63.1633 236.024 63.1574C236.06 63.1544 236.095 63.1515 236.131 63.1486C236.23 63.1398 236.329 63.1339 236.425 63.1251C236.434 63.1251 236.44 63.1251 236.449 63.1251C236.554 63.1192 236.662 63.1104 236.77 63.1045C236.803 63.1045 236.836 63.1016 236.872 63.0987C236.944 63.0957 237.019 63.0928 237.091 63.0898C237.136 63.0898 237.18 63.0869 237.225 63.084C237.282 63.084 237.339 63.081 237.393 63.0781C237.438 63.0781 237.486 63.0781 237.531 63.0781C237.588 63.0781 237.642 63.0781 237.699 63.0781C237.747 63.0781 237.792 63.0781 237.84 63.0781C237.894 63.0781 237.951 63.0781 238.005 63.0781C238.053 63.0781 238.098 63.0781 238.146 63.0781C238.199 63.0781 238.256 63.0781 238.31 63.0781C238.358 63.0781 238.406 63.0781 238.454 63.0781C238.505 63.0781 238.556 63.0781 238.61 63.081C238.658 63.081 238.706 63.084 238.754 63.0869C238.805 63.0869 238.856 63.0898 238.91 63.0928C238.958 63.0928 239.006 63.0957 239.054 63.0987C239.105 63.0987 239.156 63.1045 239.21 63.1075C239.257 63.1075 239.305 63.1133 239.353 63.1163C239.404 63.1192 239.455 63.1221 239.506 63.128C239.554 63.131 239.602 63.1339 239.65 63.1398C239.701 63.1427 239.752 63.1486 239.803 63.1515C239.851 63.1544 239.899 63.1603 239.947 63.1633C239.998 63.1691 240.049 63.1721 240.1 63.1779C240.148 63.1838 240.196 63.1868 240.244 63.1926C240.295 63.1985 240.345 63.2044 240.396 63.2102C240.444 63.2161 240.492 63.222 240.537 63.2279C240.588 63.2337 240.639 63.2396 240.69 63.2484C240.738 63.2543 240.783 63.2602 240.831 63.266C240.888 63.2748 240.945 63.2807 240.999 63.2895C241.044 63.2954 241.086 63.3013 241.131 63.3072C241.188 63.316 241.245 63.3248 241.305 63.3336C241.347 63.3395 241.388 63.3453 241.43 63.3541C241.49 63.3629 241.55 63.3747 241.613 63.3864C241.652 63.3923 241.688 63.3982 241.727 63.407C241.796 63.4187 241.862 63.4334 241.931 63.4452C241.961 63.451 241.991 63.4569 242.021 63.4628C242.123 63.4833 242.225 63.5039 242.327 63.5274C242.357 63.5333 242.384 63.5391 242.413 63.548C242.485 63.5626 242.56 63.5803 242.632 63.5979C242.671 63.6067 242.707 63.6155 242.743 63.6243C242.806 63.639 242.869 63.6537 242.935 63.6713C242.974 63.6801 243.013 63.6918 243.052 63.7007C243.115 63.7153 243.175 63.733 243.235 63.7506C243.271 63.7594 243.307 63.7711 243.343 63.7799C243.456 63.8122 243.57 63.8445 243.684 63.8769C243.684 63.8769 243.684 63.8769 243.687 63.8769C243.798 63.9092 243.909 63.9444 244.02 63.9796C244.05 63.9884 244.083 64.0002 244.113 64.009C244.203 64.0384 244.296 64.0707 244.386 64.1C244.407 64.1088 244.431 64.1147 244.452 64.1235C244.559 64.1617 244.667 64.2028 244.775 64.241C244.817 64.2557 244.859 64.2733 244.901 64.2909C244.94 64.3056 244.979 64.3203 245.018 64.3379C245.063 64.3555 245.108 64.3731 245.15 64.3908C245.189 64.4054 245.228 64.4231 245.264 64.4377C245.309 64.4554 245.354 64.4759 245.396 64.4935C245.432 64.5082 245.471 64.5258 245.507 64.5405C245.552 64.5611 245.596 64.5816 245.641 64.6022C245.677 64.6169 245.713 64.6345 245.746 64.6492C245.791 64.6697 245.836 64.6932 245.881 64.7138C245.914 64.7314 245.95 64.7461 245.983 64.7637C246.031 64.7872 246.076 64.8107 246.124 64.8342C246.154 64.8489 246.187 64.8665 246.217 64.8812C246.268 64.9076 246.319 64.934 246.37 64.9605C246.394 64.9751 246.421 64.9869 246.445 65.0016C246.52 65.0427 246.595 65.0838 246.669 65.1249C249.061 66.4875 250.26 68.27 250.263 70.0554L250.251 65.6535H250.272Z" fill="url(#paint0_linear_1753_1599)"/>
<path d="M257.378 71.0421C257.378 71.0245 257.384 71.0098 257.387 70.9952C257.402 70.8953 257.414 70.7955 257.426 70.6956C257.426 70.678 257.426 70.6633 257.432 70.6457C257.435 70.6105 257.438 70.5782 257.441 70.5429C257.441 70.5253 257.441 70.5047 257.444 70.4871C257.444 70.4548 257.447 70.4225 257.45 70.3902C257.45 70.3697 257.45 70.352 257.45 70.3315C257.45 70.2992 257.45 70.2669 257.453 70.2346C257.453 70.217 257.453 70.1993 257.453 70.1817C257.453 70.1759 257.453 70.167 257.453 70.1612C257.453 70.1201 257.453 70.076 257.453 70.0349L257.441 65.6329C257.441 65.6829 257.441 65.7298 257.441 65.7798C257.441 65.7974 257.441 65.815 257.441 65.8326C257.441 65.8649 257.441 65.8972 257.438 65.9295C257.438 65.9501 257.438 65.9677 257.438 65.9883C257.438 66.0206 257.435 66.0529 257.432 66.0852C257.432 66.1028 257.432 66.1233 257.429 66.141C257.429 66.1762 257.423 66.2085 257.42 66.2437C257.42 66.2614 257.42 66.276 257.414 66.2937C257.405 66.3935 257.39 66.4934 257.375 66.5932C257.375 66.6079 257.369 66.6255 257.366 66.6402C257.36 66.6754 257.354 66.7077 257.348 66.743C257.345 66.7606 257.342 66.7811 257.339 66.7988C257.333 66.8311 257.327 66.8634 257.321 66.8957C257.318 66.9133 257.315 66.9338 257.309 66.9515C257.303 66.9838 257.294 67.019 257.288 67.0513C257.285 67.0689 257.282 67.0865 257.276 67.1012C257.267 67.1423 257.255 67.1835 257.246 67.2275C257.246 67.2363 257.243 67.2422 257.24 67.251C257.228 67.3009 257.213 67.3508 257.201 67.4008C257.198 67.4154 257.192 67.4301 257.189 67.4448C257.18 67.4801 257.168 67.5153 257.159 67.5505C257.153 67.5682 257.147 67.5858 257.141 67.6063C257.132 67.6386 257.12 67.6709 257.111 67.7032C257.105 67.7209 257.099 67.7414 257.093 67.759C257.081 67.7913 257.069 67.8236 257.06 67.8559C257.054 67.8736 257.048 67.8912 257.042 67.9059C257.027 67.944 257.015 67.9793 257 68.0175C256.994 68.0292 256.991 68.0439 256.985 68.0556C256.967 68.1055 256.946 68.1555 256.925 68.2054C256.919 68.2171 256.916 68.2289 256.91 68.2406C256.896 68.2788 256.878 68.317 256.863 68.3522C256.854 68.3698 256.848 68.3875 256.839 68.4051C256.824 68.4374 256.809 68.4697 256.797 68.4991C256.788 68.5196 256.779 68.5372 256.77 68.5578C256.755 68.5872 256.74 68.6195 256.725 68.6488C256.716 68.6694 256.707 68.687 256.695 68.7076C256.68 68.7399 256.662 68.7692 256.647 68.8015C256.638 68.8191 256.629 68.8368 256.62 68.8544C256.602 68.8896 256.581 68.9278 256.56 68.963C256.554 68.9748 256.545 68.9895 256.539 69.0012C256.512 69.0511 256.485 69.0981 256.455 69.148C256.455 69.148 256.455 69.148 256.455 69.151C256.425 69.2009 256.395 69.2508 256.365 69.3007C256.356 69.3184 256.344 69.333 256.335 69.3507C256.314 69.383 256.293 69.4182 256.272 69.4505C256.26 69.4711 256.248 69.4887 256.233 69.5092C256.215 69.5386 256.194 69.568 256.173 69.6003C256.158 69.6208 256.146 69.6414 256.131 69.6619C256.113 69.6913 256.092 69.7177 256.071 69.7471C256.056 69.7677 256.041 69.7882 256.026 69.8117C256.005 69.8381 255.987 69.8675 255.966 69.8939C255.951 69.9145 255.936 69.938 255.918 69.9585C255.897 69.985 255.876 70.0143 255.855 70.0408C255.84 70.0613 255.823 70.0848 255.808 70.1054C255.787 70.1347 255.763 70.1612 255.742 70.1905C255.727 70.2111 255.712 70.2287 255.694 70.2493C255.67 70.2786 255.646 70.308 255.622 70.3374C255.607 70.355 255.592 70.3755 255.577 70.3932C255.55 70.4255 255.523 70.4578 255.496 70.4901C255.484 70.5047 255.469 70.5194 255.457 70.5371C255.415 70.584 255.376 70.631 255.334 70.678L255.346 75.08C255.388 75.033 255.43 74.986 255.469 74.939C255.481 74.9243 255.496 74.9096 255.508 74.892C255.535 74.8597 255.562 74.8274 255.589 74.7951C255.604 74.7775 255.619 74.7569 255.634 74.7393C255.658 74.71 255.682 74.6806 255.706 74.6512C255.721 74.6307 255.736 74.613 255.754 74.5925C255.766 74.5778 255.781 74.5602 255.793 74.5455C255.802 74.5338 255.811 74.522 255.82 74.5103C255.835 74.4897 255.853 74.4662 255.867 74.4457C255.888 74.4192 255.909 74.3899 255.93 74.3634C255.945 74.3429 255.963 74.3194 255.978 74.2988C255.999 74.2724 256.017 74.243 256.038 74.2166C256.053 74.1961 256.068 74.1755 256.083 74.152C256.104 74.1226 256.122 74.0962 256.143 74.0668C256.158 74.0463 256.17 74.0257 256.185 74.0052C256.206 73.9758 256.224 73.9464 256.245 73.9141C256.257 73.8936 256.269 73.876 256.284 73.8554C256.305 73.8231 256.326 73.7879 256.347 73.7556C256.356 73.7409 256.368 73.7233 256.377 73.7086C256.407 73.6587 256.437 73.6087 256.467 73.5588C256.494 73.5118 256.521 73.4648 256.548 73.4179C256.548 73.4179 256.548 73.412 256.551 73.412C256.557 73.4002 256.566 73.3855 256.572 73.3738C256.593 73.3386 256.611 73.3004 256.632 73.2651C256.641 73.2475 256.65 73.2299 256.659 73.2123C256.674 73.18 256.692 73.1506 256.707 73.1183C256.716 73.0978 256.725 73.0801 256.737 73.0596C256.752 73.0302 256.767 72.9979 256.782 72.9686C256.791 72.948 256.8 72.9304 256.809 72.9098C256.824 72.8775 256.839 72.8452 256.854 72.8159C256.863 72.7982 256.869 72.7806 256.878 72.763C256.896 72.7248 256.91 72.6866 256.925 72.6514C256.931 72.6397 256.934 72.6279 256.94 72.6162C256.961 72.5662 256.979 72.5163 257 72.4664C257.006 72.4546 257.009 72.44 257.015 72.4282C257.027 72.3959 257.039 72.3666 257.051 72.3342C257.051 72.3284 257.054 72.3225 257.057 72.3137C257.063 72.2961 257.069 72.2785 257.075 72.2638C257.087 72.2315 257.099 72.1992 257.108 72.1669C257.114 72.1492 257.12 72.1287 257.126 72.1111C257.138 72.0788 257.147 72.0465 257.156 72.0142C257.162 71.9965 257.168 71.9789 257.174 71.9613C257.186 71.9261 257.195 71.8908 257.204 71.8556C257.207 71.8409 257.213 71.8262 257.216 71.8115C257.231 71.7616 257.243 71.7117 257.255 71.6618C257.255 71.653 257.258 71.6471 257.261 71.6383C257.273 71.5972 257.282 71.5531 257.291 71.512C257.294 71.4944 257.297 71.4797 257.303 71.4621C257.309 71.4298 257.318 71.3945 257.324 71.3622C257.327 71.3446 257.333 71.3241 257.336 71.3064C257.336 71.2918 257.342 71.2771 257.345 71.2624C257.348 71.2448 257.351 71.2272 257.354 71.2095C257.357 71.1919 257.36 71.1714 257.363 71.1537C257.369 71.1185 257.375 71.0862 257.381 71.051L257.378 71.0421Z" fill="url(#paint1_linear_1753_1599)"/>
<path d="M241.94 80.9356C241.982 80.9297 242.024 80.9238 242.066 80.9209C242.141 80.9121 242.213 80.9033 242.284 80.8915C242.326 80.8857 242.371 80.8798 242.413 80.8739C242.488 80.8651 242.563 80.8533 242.638 80.8416C242.677 80.8357 242.719 80.8299 242.758 80.824C242.848 80.8122 242.935 80.7976 243.025 80.7829C243.049 80.7799 243.073 80.7741 243.097 80.7711C243.211 80.7535 243.321 80.7359 243.432 80.7153C243.462 80.7095 243.492 80.7036 243.522 80.7006C243.585 80.6889 243.651 80.6801 243.714 80.6683C243.729 80.6683 243.744 80.6625 243.759 80.6595C243.825 80.6478 243.891 80.636 243.957 80.6243C244.014 80.6125 244.071 80.6037 244.128 80.592C244.194 80.5802 244.26 80.5656 244.326 80.5538C244.382 80.5421 244.436 80.5333 244.493 80.5215C244.559 80.5068 244.625 80.4951 244.694 80.4804C244.748 80.4687 244.802 80.4569 244.859 80.4452C244.925 80.4305 244.994 80.4158 245.06 80.4011C245.114 80.3894 245.165 80.3776 245.219 80.3659C245.288 80.3512 245.357 80.3336 245.425 80.316C245.476 80.3042 245.527 80.2925 245.578 80.2807C245.65 80.2631 245.722 80.2455 245.794 80.2279C245.842 80.2161 245.89 80.2044 245.935 80.1926C246.013 80.1721 246.091 80.1515 246.172 80.1309C246.211 80.1192 246.25 80.1104 246.292 80.0986C246.409 80.0663 246.525 80.034 246.642 80.0017L246.63 75.5998C246.513 75.6321 246.397 75.6644 246.28 75.6967C246.241 75.7084 246.202 75.7172 246.16 75.729C246.082 75.7495 246.004 75.7701 245.926 75.7907C245.878 75.8024 245.83 75.8142 245.782 75.8259C245.71 75.8435 245.641 75.8611 245.569 75.8788C245.518 75.8905 245.467 75.9022 245.416 75.914C245.348 75.9316 245.282 75.9463 245.213 75.961C245.159 75.9727 245.105 75.9845 245.054 75.9962C244.988 76.0109 244.919 76.0256 244.853 76.0403C244.799 76.052 244.742 76.0638 244.688 76.0755C244.622 76.0902 244.556 76.1049 244.49 76.1166C244.433 76.1284 244.376 76.1401 244.323 76.1489C244.257 76.1607 244.191 76.1754 244.128 76.1871C244.071 76.1988 244.014 76.2077 243.957 76.2194C243.891 76.2311 243.828 76.2429 243.762 76.2546C243.681 76.2693 243.6 76.284 243.522 76.2957C243.492 76.3016 243.462 76.3075 243.432 76.3104C243.321 76.3281 243.208 76.3486 243.094 76.3662C243.07 76.3692 243.046 76.3721 243.022 76.378C242.932 76.3927 242.842 76.4044 242.752 76.4191C242.713 76.425 242.674 76.4308 242.635 76.4367C242.56 76.4485 242.485 76.4573 242.41 76.469C242.368 76.4749 242.323 76.4808 242.281 76.4866C242.207 76.4954 242.135 76.5072 242.06 76.516C242.018 76.5219 241.976 76.5277 241.937 76.5307C241.856 76.5395 241.772 76.5512 241.691 76.56C241.658 76.563 241.625 76.5689 241.592 76.5718C241.478 76.5835 241.364 76.5953 241.25 76.607C241.095 76.6217 240.936 76.6364 240.78 76.6511C240.738 76.654 240.696 76.657 240.651 76.6628C240.522 76.6746 240.39 76.6834 240.261 76.6922C240.228 76.6922 240.195 76.6981 240.165 76.6981C240.01 76.7098 239.851 76.7186 239.695 76.7274C239.659 76.7274 239.62 76.7304 239.584 76.7333C239.455 76.7392 239.329 76.745 239.2 76.7509C239.158 76.7509 239.116 76.7539 239.074 76.7568C238.925 76.7627 238.778 76.7656 238.628 76.7715C238.628 76.7715 238.628 76.7715 238.625 76.7715C238.478 76.7744 238.328 76.7774 238.181 76.7774C238.136 76.7774 238.091 76.7774 238.046 76.7774C237.936 76.7774 237.828 76.7774 237.717 76.7774C237.672 76.7774 237.627 76.7774 237.579 76.7774C237.441 76.7774 237.303 76.7774 237.165 76.7715C237.153 76.7715 237.141 76.7715 237.129 76.7715C236.985 76.7685 236.839 76.7656 236.695 76.7597C236.653 76.7597 236.608 76.7568 236.566 76.7539C236.461 76.7509 236.359 76.7451 236.254 76.7421C236.206 76.7421 236.155 76.7362 236.107 76.7362C236.002 76.7304 235.898 76.7245 235.793 76.7186C235.751 76.7186 235.712 76.7128 235.67 76.7128C235.526 76.7039 235.382 76.6951 235.238 76.6834C235.217 76.6834 235.193 76.6804 235.172 76.6775C235.049 76.6687 234.926 76.657 234.804 76.6481C234.756 76.6452 234.711 76.6393 234.663 76.6364C234.561 76.6276 234.462 76.6158 234.36 76.607C234.312 76.6012 234.264 76.5982 234.219 76.5923C234.105 76.5806 233.991 76.5689 233.88 76.5542C233.85 76.5512 233.82 76.5483 233.791 76.5424C233.65 76.5248 233.506 76.5072 233.365 76.4896C233.329 76.4837 233.296 76.4808 233.26 76.4749C233.146 76.4602 233.035 76.4426 232.921 76.4279C232.876 76.422 232.828 76.4132 232.783 76.4073C232.673 76.3897 232.562 76.3721 232.454 76.3545C232.418 76.3486 232.382 76.3427 232.343 76.3369C232.199 76.3134 232.055 76.2869 231.914 76.2635C231.884 76.2576 231.854 76.2517 231.824 76.2458C231.71 76.2253 231.597 76.2047 231.483 76.1812C231.441 76.1724 231.396 76.1636 231.354 76.1548C231.219 76.1284 231.084 76.099 230.949 76.0726C230.928 76.0667 230.907 76.0638 230.886 76.0608C230.733 76.0285 230.584 75.9933 230.434 75.958C230.395 75.9492 230.356 75.9404 230.317 75.9316C230.191 75.9022 230.065 75.8699 229.942 75.8406C229.912 75.8318 229.882 75.8259 229.852 75.8171C229.702 75.7789 229.556 75.7407 229.409 75.6996C229.34 75.682 229.274 75.6614 229.205 75.6438C229.169 75.635 229.133 75.6233 229.097 75.6145C228.992 75.5851 228.89 75.5557 228.788 75.5234C228.785 75.5234 228.779 75.5234 228.776 75.5205C228.668 75.4882 228.563 75.4559 228.459 75.4236C228.426 75.4118 228.39 75.403 228.357 75.3913C228.285 75.3678 228.213 75.3443 228.141 75.3237C228.102 75.312 228.06 75.2973 228.021 75.2826C227.955 75.2621 227.892 75.2386 227.826 75.218C227.784 75.2033 227.742 75.1887 227.7 75.174C227.637 75.1534 227.574 75.1299 227.511 75.1064C227.47 75.0917 227.428 75.0771 227.386 75.0624C227.323 75.0389 227.257 75.0154 227.194 74.9919C227.155 74.9772 227.116 74.9625 227.077 74.9479C227.035 74.9332 226.993 74.9156 226.951 74.8979C226.867 74.8656 226.786 74.8333 226.702 74.801C226.657 74.7834 226.615 74.7658 226.57 74.7482C226.489 74.7159 226.412 74.6836 226.334 74.6513C226.292 74.6336 226.253 74.616 226.211 74.5984C226.121 74.5602 226.028 74.5191 225.938 74.4809C225.911 74.4692 225.884 74.4574 225.857 74.4457C225.74 74.3928 225.626 74.3429 225.509 74.2871C225.479 74.2724 225.452 74.2607 225.422 74.246C225.336 74.2049 225.252 74.1638 225.165 74.1227C225.126 74.1021 225.087 74.0845 225.045 74.0639C224.97 74.0258 224.895 73.9905 224.823 73.9523C224.784 73.9318 224.742 73.9112 224.703 73.8907C224.625 73.8496 224.55 73.8114 224.475 73.7703C224.439 73.7527 224.406 73.7321 224.37 73.7145C224.263 73.6558 224.155 73.5941 224.047 73.5354C220.267 71.3828 218.376 68.5666 218.367 65.7475L218.379 70.1495C218.388 72.9686 220.279 75.7848 224.059 77.9373C224.167 77.999 224.275 78.0577 224.382 78.1164C224.418 78.1341 224.451 78.1546 224.487 78.1722C224.562 78.2134 224.64 78.2545 224.715 78.2926C224.754 78.3132 224.796 78.3337 224.835 78.3543C224.91 78.3925 224.985 78.4307 225.057 78.4659C225.096 78.4865 225.135 78.5041 225.177 78.5246C225.261 78.5657 225.348 78.6069 225.434 78.648C225.464 78.6626 225.491 78.6744 225.521 78.6891C225.635 78.7419 225.752 78.7948 225.869 78.8477C225.896 78.8594 225.923 78.8711 225.95 78.8829C226.04 78.924 226.13 78.9622 226.223 79.0004C226.265 79.018 226.304 79.0356 226.346 79.0532C226.424 79.0855 226.504 79.1178 226.582 79.1501C226.624 79.1677 226.669 79.1854 226.714 79.203C226.795 79.2353 226.879 79.2676 226.963 79.2999C226.99 79.3116 227.02 79.3204 227.047 79.3322C227.062 79.3381 227.074 79.3439 227.089 79.3469C227.128 79.3616 227.167 79.3762 227.206 79.3909C227.269 79.4144 227.332 79.4379 227.398 79.4614C227.44 79.4761 227.482 79.4908 227.523 79.5055C227.586 79.5289 227.649 79.5495 227.712 79.573C227.754 79.5877 227.796 79.6024 227.838 79.617C227.904 79.6405 227.967 79.6611 228.033 79.6816C228.072 79.6963 228.114 79.7081 228.153 79.7228C228.225 79.7463 228.297 79.7697 228.369 79.7903C228.402 79.802 228.438 79.8109 228.471 79.8226C228.575 79.8549 228.683 79.8872 228.788 79.9195C228.791 79.9195 228.797 79.9195 228.8 79.9224C228.902 79.9518 229.007 79.9841 229.109 80.0135C229.145 80.0223 229.181 80.034 229.217 80.0428C229.274 80.0575 229.328 80.0752 229.385 80.0898C229.397 80.0928 229.409 80.0957 229.421 80.0986C229.568 80.1398 229.714 80.1779 229.864 80.2161C229.894 80.2249 229.924 80.2308 229.957 80.2396C230.08 80.2719 230.206 80.3013 230.332 80.3306C230.371 80.3394 230.41 80.3483 230.449 80.3571C230.599 80.3923 230.751 80.4275 230.901 80.4598C230.922 80.4657 230.943 80.4687 230.964 80.4716C231.099 80.501 231.234 80.5274 231.369 80.5538C231.39 80.5568 231.411 80.5626 231.435 80.5685C231.456 80.5714 231.477 80.5773 231.498 80.5802C231.612 80.6037 231.725 80.6243 231.839 80.6449C231.869 80.6507 231.899 80.6566 231.929 80.6625C232.073 80.6889 232.214 80.7124 232.358 80.7359C232.394 80.7418 232.43 80.7476 232.466 80.7535C232.577 80.7711 232.688 80.7887 232.798 80.8064C232.843 80.8122 232.891 80.821 232.936 80.8269C233.05 80.8445 233.161 80.8592 233.275 80.8739C233.302 80.8768 233.326 80.8827 233.353 80.8857C233.362 80.8857 233.371 80.8857 233.38 80.8886C233.521 80.9062 233.665 80.9268 233.806 80.9414C233.835 80.9444 233.865 80.9473 233.895 80.9532C234.009 80.9679 234.123 80.9796 234.237 80.9914C234.285 80.9972 234.333 81.0002 234.378 81.0061C234.48 81.0178 234.579 81.0266 234.681 81.0354C234.726 81.0384 234.774 81.0442 234.819 81.0472C234.941 81.0589 235.064 81.0677 235.187 81.0765C235.205 81.0765 235.223 81.0795 235.241 81.0824C235.244 81.0824 235.247 81.0824 235.25 81.0824C235.394 81.0941 235.538 81.103 235.682 81.1118C235.724 81.1118 235.763 81.1176 235.805 81.1176C235.91 81.1235 236.014 81.1294 236.122 81.1353C236.17 81.1353 236.221 81.1411 236.269 81.1411C236.374 81.147 236.476 81.1499 236.581 81.1529C236.623 81.1529 236.668 81.1558 236.71 81.1588C236.854 81.1646 237 81.1676 237.144 81.1705C237.144 81.1705 237.147 81.1705 237.15 81.1705C237.159 81.1705 237.168 81.1705 237.18 81.1705C237.318 81.1705 237.456 81.1764 237.597 81.1764C237.642 81.1764 237.687 81.1764 237.732 81.1764C237.843 81.1764 237.951 81.1764 238.061 81.1764C238.106 81.1764 238.151 81.1764 238.196 81.1764C238.346 81.1764 238.493 81.1734 238.643 81.1705C238.793 81.1676 238.943 81.1617 239.089 81.1558C239.104 81.1558 239.122 81.1558 239.137 81.1558C239.161 81.1558 239.188 81.1558 239.212 81.1529C239.341 81.147 239.467 81.1411 239.596 81.1353C239.632 81.1353 239.671 81.1323 239.707 81.1294C239.866 81.1206 240.022 81.1118 240.18 81.1C240.213 81.1 240.243 81.0942 240.276 81.0942C240.405 81.0853 240.537 81.0765 240.666 81.0648C240.708 81.0618 240.75 81.0589 240.792 81.053C240.951 81.0384 241.107 81.0266 241.265 81.009C241.265 81.009 241.268 81.009 241.271 81.009C241.382 80.9972 241.496 80.9855 241.607 80.9737C241.64 80.9708 241.673 80.9649 241.706 80.962C241.787 80.9532 241.868 80.9444 241.952 80.9326L241.94 80.9356Z" fill="url(#paint2_linear_1753_1599)"/>
<path d="M262.278 84.5035L262.293 88.9055L246.642 79.9988L246.627 75.5968L262.278 84.5035Z" fill="#5C74C5"/>
<path d="M270.985 79.5789L271 83.9808L262.293 88.9055L262.278 84.5035L270.985 79.5789Z" fill="#FFB100"/>
<path d="M224.128 57.8451C231.782 53.5136 244.158 53.5136 251.764 57.8451C257.861 61.3162 259.044 66.5139 255.334 70.6722L270.985 79.5789L262.278 84.5035L246.627 75.5968C239.29 77.6877 230.134 77.0005 224.038 73.5295C216.431 69.198 216.47 62.1766 224.128 57.8451ZM246.618 70.6516C251.465 67.9088 251.492 63.4657 246.675 60.723C241.859 57.9802 234.027 57.9802 229.181 60.723C224.334 63.4657 224.307 67.9118 229.124 70.6516C233.94 73.3944 241.772 73.3944 246.618 70.6516Z" fill="url(#paint3_linear_1753_1599)"/>
<path opacity="0.31" d="M237.909 71.929C244.055 71.929 249.037 69.1102 249.037 65.633C249.037 62.1558 244.055 59.3369 237.909 59.3369C231.763 59.3369 226.78 62.1558 226.78 65.633C226.78 69.1102 231.763 71.929 237.909 71.929Z" fill="white"/>
<path d="M237.162 60.6848C237.575 60.4528 238.244 60.4528 238.654 60.6848C239.068 60.9168 239.068 61.2956 238.654 61.5305C238.241 61.7625 237.572 61.7625 237.162 61.5305C236.748 61.2985 236.748 60.9197 237.162 60.6848Z" fill="white"/>
<path d="M270.985 79.5789L266.505 77.0328L257.798 81.9575L262.279 84.5035L270.985 79.5789Z" fill="#FFD800"/>
<path d="M257.798 81.9575V86.3595L262.294 88.9055L262.279 84.5035L257.798 81.9575Z" fill="#FF7606"/>
<path d="M197.869 35.2127C198.639 34.7752 199.266 33.7151 199.266 32.8429C199.266 32.5492 199.197 32.3173 199.074 32.1499L199.709 30.9694C200.018 31.2425 200.204 31.7006 200.204 32.3143C200.204 33.7709 199.161 35.5446 197.872 36.2729C197.444 36.5166 197.042 36.6106 196.697 36.5783L197.333 35.3977C197.498 35.3831 197.68 35.3243 197.872 35.2157L197.869 35.2127Z" fill="#E9EEF2"/>
<path d="M195.537 34.9514C195.537 33.4948 196.58 31.7211 197.869 30.9929C198.615 30.57 199.281 30.5905 199.706 30.9694L199.071 32.1499C198.828 31.821 198.378 31.7622 197.866 32.053C197.096 32.4905 196.469 33.5506 196.469 34.4228C196.469 35.0777 196.823 35.4418 197.326 35.3948L196.691 36.5753C195.999 36.5107 195.534 35.9234 195.534 34.9514H195.537Z" fill="#2CB34A"/>
<path d="M185.904 39.7733L195.136 34.5491V33.8678L185.904 39.0891V39.7733Z" fill="#FF7479"/>
<path d="M190.427 38.2287L195.135 35.5652V35.0836L190.427 37.7441V38.2287Z" fill="#FF7479"/>
<path d="M191.284 38.5458L195.136 36.3669V35.8853L191.284 38.0642V38.5458Z" fill="#FF7479"/>
<path d="M185.287 45.1003L195.136 39.5296V38.8453L185.287 44.4161V45.1003Z" fill="#FF7479"/>
<path d="M190.427 43.2062L195.135 40.5427V40.0611L190.427 42.7246V43.2062Z" fill="#FF7479"/>
<path d="M191.284 43.5233L195.136 41.3443V40.8627L191.284 43.0417V43.5233Z" fill="#FF7479"/>
<path d="M199.266 38.8336C199.266 37.9614 198.64 37.6061 197.869 38.0436C197.453 38.2786 197.081 38.6956 196.826 39.1654L195.948 39.2212C196.368 38.2903 197.072 37.4387 197.872 36.9865C199.161 36.2582 200.204 36.8484 200.204 38.305C200.204 38.5164 200.183 38.7367 200.141 38.9569L199.263 39.0127C199.269 38.951 199.272 38.8923 199.272 38.8336H199.266Z" fill="#FF7479"/>
<path d="M196.826 39.1654C196.607 39.5677 196.472 40.0111 196.472 40.4135C196.472 41.2856 197.099 41.641 197.869 41.2034C198.588 40.7952 199.182 39.8467 199.257 39.0127L200.135 38.9569C199.889 40.2549 198.966 41.638 197.866 42.2606C196.577 42.9889 195.534 42.3986 195.534 40.942C195.534 40.387 195.684 39.7909 195.942 39.2183L196.82 39.1625L196.826 39.1654Z" fill="#E9EEF2"/>
<path d="M176.135 44.3133L178.856 42.7716V29.9504L176.135 31.4892V44.3133Z" fill="#FF7479"/>
<path d="M167.826 49.0118L170.548 47.473V36.0468L167.826 37.5855V49.0118Z" fill="#FDCFD9"/>
<path d="M163.462 51.4815L166.183 49.9427V41.8083L163.462 43.3471V51.4815Z" fill="#2CB34A"/>
<path d="M159.096 53.9512L161.817 52.4095V39.5883L159.096 41.1271V53.9512Z" fill="#FDCFD9"/>
<path d="M154.731 56.4179L157.453 54.8791V40.2578L154.731 41.7966V56.4179Z" fill="#2CB34A"/>
<path d="M150.368 58.8876L153.087 57.3488V47.4437L150.368 48.9824V58.8876Z" fill="#FF7479"/>
<path d="M171.986 46.6596L174.705 45.1208V35.9117L171.986 37.4505V46.6596Z" fill="#2CB34A"/>
<path opacity="0.37" d="M178.856 27.1019L171.987 28.8991L166.921 34.9015L161.233 34.9808L156.093 39.4591L150.368 38.1846" stroke="#FF7479" stroke-width="0.67" stroke-miterlimit="10"/>
<path opacity="0.37" d="M177.144 30.0091L174.705 26.1328L169.471 35.2568L165.219 32.3202L160.456 38.5576L155.325 40.5779L151.171 45.6113" stroke="white" stroke-width="0.67" stroke-miterlimit="10"/>
<path opacity="0.37" d="M177.144 26.3354L173.344 34.4639L169.361 33.7298L164.523 40.5662L162.758 37.5767L158.559 40.3929L156.995 37.7324L149.774 42.6424" stroke="#0600FE" stroke-width="0.67" stroke-miterlimit="10"/>
<path d="M130.614 72.2814L134.474 72.3871C133.746 74.3693 132.289 76.2634 130.614 77.2119C129.358 77.9226 128.225 77.9608 127.428 77.4468L130.614 72.2814Z" fill="#FF7479"/>
<path d="M130.614 67.3508C133.021 65.9882 134.972 67.0924 134.972 69.8146C134.972 70.6398 134.792 71.5208 134.474 72.3871L130.614 72.2814L127.248 71.0539C128.048 69.5033 129.259 68.1173 130.614 67.3508Z" fill="#2CB34A"/>
<path d="M127.248 71.0539L130.614 72.2814L127.428 77.4469C126.699 76.977 126.256 76.0461 126.256 74.7452C126.256 73.5559 126.628 72.255 127.248 71.0539Z" fill="#B3F4BF"/>
<path d="M125.246 72.8158L123.742 72.6984L119.255 75.2356" stroke="#FDCFD9" stroke-width="0.39" stroke-miterlimit="10"/>
<path d="M133.23 65.8708L134.735 64.0501L139.222 61.5129" stroke="#2CB34A" stroke-miterlimit="10"/>
<path d="M127.931 78.5187L126.426 80.3364L121.937 82.8766" stroke="#FF7479" stroke-width="0.39" stroke-miterlimit="10"/>
<path d="M119.099 76.8801L123.456 74.4133V73.5323L119.099 75.9991V76.8801Z" fill="#FDCFD9"/>
<path d="M123.456 81.2585L126.255 79.6757V78.7947L123.456 80.3805V81.2585Z" fill="#FF7479"/>
<path d="M119.992 77.2824L123.457 75.3237V74.8832L119.992 76.8419V77.2824Z" fill="#FDCFD9"/>
<path d="M136.752 64.5053L139.222 63.1075V62.2265L136.752 63.6243V64.5053Z" fill="#2CB34A"/>
<path d="M135.247 66.2672L136.629 65.4861V65.0456L135.247 65.8267V66.2672Z" fill="#2CB34A"/>
<path d="M137.262 65.1279L139.222 64.0178V63.5773L137.262 64.6874V65.1279Z" fill="#2CB34A"/>
<path d="M121.523 81.006L124.985 79.0473V78.6068L121.523 80.5655V81.006Z" fill="#FF7479"/>
<path d="M122.845 67.3039L122.41 67.5476V68.038L122.845 67.7943V67.3039Z" fill="#FF7479"/>
<path d="M118.517 69.9028L122.158 67.8413V67.6915L118.517 69.753V69.9028Z" fill="#FF7479"/>
<path d="M118.517 70.1465L122.158 68.0879V67.9382L118.517 69.9967V70.1465Z" fill="#FF7479"/>
<path d="M119.047 70.0937L122.158 68.3317V68.1819L119.047 69.9439V70.0937Z" fill="#FF7479"/>
<path d="M122.845 68.4404L122.41 68.687V69.1775L122.845 68.9308V68.4404Z" fill="#2CB34A"/>
<path d="M118.517 71.0393L122.158 68.9778V68.828L118.517 70.8895V71.0393Z" fill="#2CB34A"/>
<path d="M118.517 71.283L122.158 69.2244V69.0746L118.517 71.1332V71.283Z" fill="#2CB34A"/>
<path d="M119.047 71.2301L122.158 69.4682V69.3184L119.047 71.0804V71.2301Z" fill="#2CB34A"/>
<path d="M122.845 69.6826L122.41 69.9263V70.4167L122.845 70.173V69.6826Z" fill="#FDCFD9"/>
<path d="M118.517 72.2814L122.158 70.22V70.0702L118.517 72.1317V72.2814Z" fill="#FDCFD9"/>
<path d="M118.517 72.5252L122.158 70.4666V70.3168L118.517 72.3754V72.5252Z" fill="#FDCFD9"/>
<path d="M119.047 72.4723L122.158 70.7104V70.5606L119.047 72.3226V72.4723Z" fill="#FDCFD9"/>
<path d="M92.6963 100.755L91.6562 100.2L96.7244 91.0551L103.861 90.3385L108.132 81.655L109.199 82.1601L104.643 91.428L97.4677 92.1504L92.6963 100.755Z" fill="#FF7479"/>
<path d="M105.8 83.6049L109.624 79.6581L109.085 84.3831L105.8 83.6049Z" fill="#FF7479"/>
<path d="M96.8714 99.0955L95.166 100.062V97.6741L96.8714 96.7109V99.0955Z" fill="#FF7479"/>
<path d="M100.564 97.0046L98.8584 97.9707V93.9359L100.564 92.9697V97.0046Z" fill="#FF7479"/>
<path d="M104.256 94.9167L102.551 95.8828V93.4954L104.256 92.5322V94.9167Z" fill="#FF7479"/>
<path d="M107.952 92.8258L106.243 93.792V89.0112L107.952 88.045V92.8258Z" fill="#FF7479"/>
<path d="M228.569 14.5538L226.552 15.6961V15.2204L228.569 14.081V14.5538Z" fill="#416086"/>
<path d="M227.562 15.887L226.552 16.4567V15.9839L227.562 15.4113V15.887Z" fill="#416086"/>
<path d="M214.362 22.7351L211.988 24.0772V23.6044L214.362 22.2594V22.7351Z" fill="#416086"/>
<path d="M213.175 24.1682L211.988 24.8377V24.3649L213.175 23.6924V24.1682Z" fill="#416086"/>
<path d="M212.582 27.281L210.802 28.2883V27.8155L212.582 26.8082V27.281Z" fill="#416086"/>
<path d="M213.298 27.6363L210.802 29.0488V28.576L213.298 27.1635V27.6363Z" fill="#416086"/>
<path d="M229.498 17.7429L226.941 19.1877V18.7149L229.498 17.2701V17.7429Z" fill="#416086"/>
<path d="M228.569 19.0292L226.941 19.9513V19.4756L228.569 18.5564V19.0292Z" fill="#416086"/>
<path d="M221.229 20.4094C220.905 20.5239 220.572 20.6737 220.231 20.8675C218.855 21.6457 217.602 22.9436 216.661 24.4442L220.372 25.983L221.232 20.4094H221.229Z" fill="#FE5A4E"/>
<path d="M214.908 29.8946C214.908 33.2188 217.291 34.5667 220.228 32.9046C221.733 32.053 223.087 30.5788 224.056 28.8991L216.026 25.569C215.325 26.9844 214.908 28.5026 214.908 29.8946Z" fill="#2CB34A"/>
<path d="M224.64 27.7538C225.212 26.4705 225.551 25.1226 225.551 23.8775C225.551 22.0744 224.849 20.8528 223.737 20.3771L220.653 26.1005L224.64 27.7538Z" fill="#F25A29"/>
<path d="M225.65 17.185L224.472 19.2523L224.361 19.1965L225.536 17.1262L225.65 17.185Z" fill="#848484"/>
<path d="M213.658 27.0901L215.163 27.2252L215.235 27.005L213.73 26.8699L213.658 27.0901Z" fill="#848484"/>
<path d="M215.046 22.8144L216.553 22.9495L216.625 22.7293L215.118 22.5942L215.046 22.8144Z" fill="#848484"/>
<path d="M226.405 20.3183L225.55 21.308L225.479 21.1934L226.333 20.2038L226.405 20.3183Z" fill="#848484"/>
<path d="M221.637 20.2978L220.765 25.6218L223.438 20.2038C223.438 20.2038 222.77 19.9336 221.637 20.2978Z" fill="#416086"/>
<path opacity="0.21" d="M203.504 109.667C209.878 109.667 215.046 106.744 215.046 103.139C215.046 99.5338 209.878 96.6111 203.504 96.6111C197.129 96.6111 191.962 99.5338 191.962 103.139C191.962 106.744 197.129 109.667 203.504 109.667Z" fill="#1E318E"/>
<path opacity="0.21" d="M162.746 127.102C169.121 127.102 174.288 124.179 174.288 120.574C174.288 116.968 169.121 114.046 162.746 114.046C156.372 114.046 151.204 116.968 151.204 120.574C151.204 124.179 156.372 127.102 162.746 127.102Z" fill="#1E318E"/>
<path opacity="0.21" d="M186.559 126.664C192.933 126.664 198.101 123.741 198.101 120.136C198.101 116.531 192.933 113.608 186.559 113.608C180.184 113.608 175.017 116.531 175.017 120.136C175.017 123.741 180.184 126.664 186.559 126.664Z" fill="#1E318E"/>
<path d="M199.245 60.0534L200.636 64.7579L197.669 66.6431L196.848 65.5918L198.538 60.9608L199.149 54.9849L199.245 60.0534Z" fill="url(#paint4_linear_1753_1599)"/>
<path d="M196.848 65.5918C196.848 65.5918 195.152 66.4464 194.909 66.5433C194.666 66.6402 194.402 67.113 194.402 67.113L196.467 68.3463L197.235 67.4712L198.374 66.8487L196.851 65.5889L196.848 65.5918Z" fill="#EFB387"/>
<path d="M195.043 66.696C195.043 66.696 194.531 66.9074 194.444 67.0366C194.357 67.1658 194.03 68.3375 194.03 68.3375C194.03 68.3375 194.561 68.8045 194.995 67.8001L195.475 67.4213L196.161 67.0102L195.043 66.696Z" fill="#EFB387"/>
<path d="M199.309 75.3737L199.575 80.2249L201.329 98.3232H204.449C204.449 98.3232 204.458 98.0912 204.479 97.7035C204.566 95.7507 204.826 89.8158 204.826 88.8761C204.826 88.1097 204.626 87.352 204.494 86.9438L204.488 86.9292C204.446 86.8 204.413 86.7089 204.398 86.6649L204.389 86.6355L204.715 84.4477L205.77 77.4028L201.865 75.8641L199.309 75.3766V75.3737Z" fill="url(#paint5_linear_1753_1599)"/>
<path d="M209.805 101.935C209.805 101.935 209.94 104.226 209.94 104.666C209.94 105.107 208.432 106.34 208.432 106.34H206.655L206.328 104.59L207.125 103.036V101.935H209.802H209.805Z" fill="#04102D"/>
<path d="M204.475 98.0941L204.565 100.003L203.462 100.32L202.536 100.158L201.298 101.36L198.4 101.829L197.978 100.91L201.757 97.8738L204.475 97.7006V98.0941Z" fill="#04102D"/>
<path d="M201.67 76.5923L202.749 78.7273L203.87 81.0589C203.87 81.0589 205.374 88.6294 205.47 89.7013C205.569 90.7732 206.981 102.476 206.981 102.476H209.855C209.855 102.476 210.539 93.2605 210.613 92.497C210.688 91.7334 209.855 88.9642 209.855 88.9642C209.855 88.9642 210.083 86.0952 210.29 83.6314C210.416 82.1366 210.533 80.7887 210.587 80.3218C210.733 79.0796 210.245 76.9301 210.245 76.9301L201.667 76.5953L201.67 76.5923Z" fill="url(#paint6_linear_1753_1599)"/>
<path d="M209.16 56.7703C206.93 55.6191 201.5 53.957 201.5 53.957L199.135 54.9966L199.614 68.734L199.309 75.3736C199.309 75.3736 204.275 78.2251 206.574 78.0753C208.489 77.9255 210.221 76.9506 210.221 76.9506L209.484 70.4607L210.482 59.1372C210.569 58.1593 210.05 57.2284 209.163 56.7703H209.16Z" fill="white"/>
<path d="M212.199 78.0812C211.767 78.272 211.081 78.4071 210.299 78.504C207.844 78.8065 204.382 78.7125 204.382 78.7125C204.082 78.0812 203.75 76.4983 203.447 74.566C202.827 70.6574 202.344 65.2923 202.539 63.3336C202.83 60.4087 208.138 56.2476 208.138 56.2476L209.93 57.1462C210.406 57.384 210.691 57.8744 210.658 58.4001L209.948 69.3066L209.828 71.1332L212.199 78.0782V78.0812Z" fill="url(#paint7_linear_1753_1599)"/>
<path d="M201.299 53.4813L202.648 53.7867C202.648 53.7867 200.562 60.0799 200.388 61.0078C200.217 61.9358 200.13 77.2971 200.13 77.2971C200.13 77.2971 198.245 76.1636 197.957 74.7188L199.306 64.009L199.135 54.9966L201.299 53.4813Z" fill="url(#paint8_linear_1753_1599)"/>
<path d="M202.207 49.097C202.207 49.097 201.739 50.1483 201.718 50.3068C201.7 50.4654 201.718 50.9911 201.718 50.9911L201.392 51.7399L201.64 54.7969L202.809 55.3872L205.785 54.2155L206.637 52.3683V48.9237L202.207 49.097Z" fill="#EFB387"/>
<path d="M202.042 48.6447L202.207 49.097L205.438 50.1189L205.911 50.9353L205.749 52.5856L206.094 52.6238L206.879 54.4445H207.05L207.452 53.0761L209.349 52.292L210.173 49.2526L209.766 48.8973L207.338 46.7682C207.338 46.7682 203.873 46.9268 202.632 47.7814L202.578 47.8166L202.306 48.2395L202.042 48.6477V48.6447Z" fill="#713E23"/>
<path d="M205.435 50.1219L205.908 50.9353L205.746 52.5857L206.091 52.6238L206.876 54.4416H207.047L207.449 53.0731L209.349 52.2861L210.17 49.2526L205.435 50.1219Z" fill="#915236"/>
<path d="M206.534 53.1318L207.298 55.8129L203.432 57.1638L202.455 54.4416L206.534 53.1318Z" fill="#EFB387"/>
<path d="M206.091 52.6238C206.091 52.6238 206.729 51.4198 207.095 51.3846C207.461 51.3493 207.626 51.8633 207.569 52.3683C207.512 52.8734 207.029 53.0291 207.029 53.0291C207.029 53.0291 206.951 53.4079 206.699 53.5577C206.448 53.7045 206.016 53.6076 205.959 53.4461C205.902 53.2846 206.088 52.6238 206.088 52.6238H206.091Z" fill="#EFB387"/>
<path d="M206.72 72.7571L198.364 66.4375C198.13 66.2613 197.749 66.1938 197.516 66.2907L189.729 69.4299C189.492 69.5239 189.492 69.7442 189.723 69.9203L198.079 76.2399C198.313 76.4161 198.694 76.4836 198.927 76.3867L206.714 73.2475C206.951 73.1535 206.954 72.9333 206.72 72.7571Z" fill="url(#paint9_linear_1753_1599)"/>
<path d="M203.885 70.7544L203.277 70.8454C203.277 70.8454 202.027 70.2463 201.91 70.2669C201.79 70.2845 200.1 70.1671 200.1 70.1671C200.1 70.1671 199.884 70.5018 200.304 70.7162C200.723 70.9306 200.912 70.9717 200.912 70.9717C200.912 70.9717 197.99 71.8439 198.065 72.2785C198.167 72.8717 199.794 72.2109 199.794 72.2109C199.794 72.2109 199.818 72.5809 200.256 72.6455C200.256 72.6455 200.328 73.1859 200.834 73.1917C200.834 73.1917 200.933 73.503 201.518 73.4678C202.105 73.4325 203.721 72.7542 203.721 72.7542L204.512 72.5398L203.888 70.7514L203.885 70.7544Z" fill="#EFB387"/>
<path d="M210.548 57.7893L213.593 65.1044C213.962 65.9912 213.632 67.0073 212.808 67.5212L204.296 72.8335L203.043 70.587L208.609 65.8209L208.342 58.2885L210.548 57.7922V57.7893Z" fill="url(#paint10_linear_1753_1599)"/>
<path d="M189.49 69.7618L198.083 76.2634C198.352 76.469 198.514 76.2722 198.445 75.8259L197.36 68.8955C197.291 68.4491 197.016 67.9205 196.746 67.7179L188.153 61.2163C187.883 61.0107 187.721 61.2075 187.79 61.6538L188.875 68.5842C188.944 69.0306 189.22 69.5592 189.49 69.7618Z" fill="url(#paint11_linear_1753_1599)"/>
<path d="M189.982 75.7319L176.341 83.4463L167.461 78.4247L181.101 70.7073L189.982 75.7319Z" fill="url(#paint12_linear_1753_1599)"/>
<path d="M181.101 70.7044L167.461 78.4189V68.3728L181.101 60.6583V70.7044Z" fill="url(#paint13_linear_1753_1599)"/>
<path d="M167.929 68.637L180.637 61.4482V70.4401L167.929 77.6289V68.637Z" fill="url(#paint14_linear_1753_1599)"/>
<path d="M170.862 78.4747L171.417 78.1634L171.968 78.4747L171.417 78.7889L170.862 78.4747Z" fill="#81ACF9"/>
<path d="M171.611 78.8975L172.513 78.3865L173.068 78.7007L172.163 79.2117L171.611 78.8975Z" fill="#81ACF9"/>
<path d="M172.373 79.3292L173.53 78.6744L174.084 78.9857L172.925 79.6405L172.373 79.3292Z" fill="#81ACF9"/>
<path d="M173.146 79.7667L174.486 79.0091L175.038 79.3233L173.701 80.078L173.146 79.7667Z" fill="#81ACF9"/>
<path d="M182.581 74.431L183.918 73.6733L184.472 73.9846L183.133 74.7423L182.581 74.431Z" fill="#81ACF9"/>
<path d="M171.65 78.0313L172.202 77.717L172.753 78.0313L172.202 78.3425L171.65 78.0313Z" fill="#81ACF9"/>
<path d="M172.729 78.2661L173.281 77.9519L173.835 78.2661L173.281 78.5774L172.729 78.2661Z" fill="#81ACF9"/>
<path d="M173.428 77.8697L173.982 77.5584L174.534 77.8697L173.982 78.1839L173.428 77.8697Z" fill="#81ACF9"/>
<path d="M174.129 77.4733L174.68 77.162L175.235 77.4733L174.68 77.7875L174.129 77.4733Z" fill="#81ACF9"/>
<path d="M174.83 77.0768L175.382 76.7656L175.936 77.0768L175.382 77.3911L174.83 77.0768Z" fill="#81ACF9"/>
<path d="M175.529 76.6804L176.084 76.3691L176.635 76.6804L176.084 76.9946L175.529 76.6804Z" fill="#81ACF9"/>
<path d="M176.23 76.2869L176.782 75.9727L177.336 76.2869L176.782 76.5982L176.23 76.2869Z" fill="#81ACF9"/>
<path d="M176.929 75.8905L177.483 75.5762L178.035 75.8905L177.483 76.2017L176.929 75.8905Z" fill="#81ACF9"/>
<path d="M177.63 75.494L178.181 75.1798L178.736 75.494L178.181 75.8053L177.63 75.494Z" fill="#81ACF9"/>
<path d="M178.331 75.0975L178.883 74.7833L179.437 75.0975L178.883 75.4088L178.331 75.0975Z" fill="#81ACF9"/>
<path d="M179.029 74.7011L179.584 74.3898L180.135 74.7011L179.584 75.0153L179.029 74.7011Z" fill="#81ACF9"/>
<path d="M179.73 74.3047L180.282 73.9934L180.836 74.3047L180.282 74.6189L179.73 74.3047Z" fill="#81ACF9"/>
<path d="M180.429 73.9083L180.983 73.597L181.535 73.9083L180.983 74.2225L180.429 73.9083Z" fill="#81ACF9"/>
<path d="M181.131 73.5118L181.682 73.2005L182.237 73.5118L181.682 73.826L181.131 73.5118Z" fill="#81ACF9"/>
<path d="M181.832 73.1183L182.384 72.8041L182.938 73.1183L182.384 73.4296L181.832 73.1183Z" fill="#81ACF9"/>
<path d="M173.713 78.5716L174.252 78.2662L174.804 78.5775L174.264 78.8858L173.713 78.5716Z" fill="#81ACF9"/>
<path d="M174.657 78.9122L175.197 78.6068L175.751 78.921L175.209 79.2264L174.657 78.9122Z" fill="#81ACF9"/>
<path d="M175.457 78.46L176 78.1546L176.551 78.4659L176.012 78.7713L175.457 78.46Z" fill="#81ACF9"/>
<path d="M176.261 78.0048L176.8 77.6994L177.352 78.0136L176.812 78.319L176.261 78.0048Z" fill="#81ACF9"/>
<path d="M177.061 77.5526L177.6 77.2472L178.155 77.5585L177.615 77.8639L177.061 77.5526Z" fill="#81ACF9"/>
<path d="M177.864 77.1003L178.404 76.7949L178.955 77.1062L178.416 77.4116L177.864 77.1003Z" fill="#81ACF9"/>
<path d="M178.664 76.6452L179.204 76.3398L179.755 76.654L179.216 76.9594L178.664 76.6452Z" fill="#81ACF9"/>
<path d="M179.465 76.1929L180.004 75.8875L180.559 76.1988L180.019 76.5042L179.465 76.1929Z" fill="#81ACF9"/>
<path d="M180.268 75.7407L180.807 75.4353L181.359 75.7466L180.819 76.052L180.268 75.7407Z" fill="#81ACF9"/>
<path d="M181.068 75.2855L181.608 74.9801L182.162 75.2943L181.62 75.5997L181.068 75.2855Z" fill="#81ACF9"/>
<path d="M181.868 74.8333L182.411 74.5279L182.962 74.8392L182.423 75.1446L181.868 74.8333Z" fill="#81ACF9"/>
<path d="M183.337 74.8568L184.677 74.1021L185.228 74.4133L183.888 75.171L183.337 74.8568Z" fill="#81ACF9"/>
<path d="M181.823 75.7142L183.163 74.9566L183.714 75.2679L182.378 76.0255L181.823 75.7142Z" fill="#81ACF9"/>
<path d="M173.904 80.1955L174.444 79.8901L174.995 80.2014L174.456 80.5068L173.904 80.1955Z" fill="#81ACF9"/>
<path d="M174.705 79.7403L175.245 79.4349L175.799 79.7492L175.257 80.0546L174.705 79.7403Z" fill="#81ACF9"/>
<path d="M175.505 79.2881L176.044 78.9827L176.599 79.2939L176.059 79.5993L175.505 79.2881Z" fill="#81ACF9"/>
<path d="M176.309 78.8359L176.848 78.5305L177.4 78.8417L176.86 79.1471L176.309 78.8359Z" fill="#81ACF9"/>
<path d="M170.464 78.2485L171.003 77.9431L171.21 78.0606L170.671 78.366L170.464 78.2485Z" fill="#81ACF9"/>
<path d="M171.264 77.7963L171.806 77.4909L172.013 77.6084L171.473 77.9138L171.264 77.7963Z" fill="#81ACF9"/>
<path d="M172.067 77.3411L172.607 77.0357L172.814 77.1532L172.274 77.4586L172.067 77.3411Z" fill="#81ACF9"/>
<path d="M172.867 76.8889L173.407 76.5835L173.613 76.701L173.074 77.0064L172.867 76.8889Z" fill="#81ACF9"/>
<path d="M173.611 76.469L174.151 76.1636L174.358 76.281L173.818 76.5864L173.611 76.469Z" fill="#81ACF9"/>
<path d="M174.411 76.0167L174.951 75.7113L175.16 75.8288L174.618 76.1342L174.411 76.0167Z" fill="#81ACF9"/>
<path d="M175.214 75.5616L175.753 75.2562L175.96 75.3736L175.421 75.679L175.214 75.5616Z" fill="#81ACF9"/>
<path d="M176.015 75.1093L176.554 74.8039L176.761 74.9214L176.221 75.2268L176.015 75.1093Z" fill="#81ACF9"/>
<path d="M176.758 74.6894L177.3 74.381L177.507 74.4985L176.968 74.8039L176.758 74.6894Z" fill="#81ACF9"/>
<path d="M177.562 74.2342L178.101 73.9288L178.308 74.0463L177.768 74.3517L177.562 74.2342Z" fill="#81ACF9"/>
<path d="M178.361 73.782L178.901 73.4766L179.108 73.594L178.568 73.8994L178.361 73.782Z" fill="#81ACF9"/>
<path d="M179.161 73.3268L179.704 73.0214L179.91 73.1389L179.371 73.4443L179.161 73.3268Z" fill="#81ACF9"/>
<path d="M179.908 72.9068L180.448 72.6014L180.654 72.7189L180.115 73.0243L179.908 72.9068Z" fill="#81ACF9"/>
<path d="M180.708 72.4546L181.247 72.1492L181.457 72.2638L180.915 72.5721L180.708 72.4546Z" fill="#81ACF9"/>
<path d="M177.016 78.4336L180.855 76.2634L181.406 76.5747L177.57 78.7478L177.016 78.4336Z" fill="#81ACF9"/>
<path d="M181.116 76.1136L181.656 75.8082L182.207 76.1224L181.668 76.4278L181.116 76.1136Z" fill="#81ACF9"/>
<path d="M174.423 78.1692L174.962 77.8638L175.517 78.1751L174.974 78.4805L174.423 78.1692Z" fill="#81ACF9"/>
<path d="M175.134 77.767L175.676 77.4615L176.228 77.7728L175.688 78.0782L175.134 77.767Z" fill="#81ACF9"/>
<path d="M175.847 77.3646L176.386 77.0592L176.938 77.3705L176.398 77.6759L175.847 77.3646Z" fill="#81ACF9"/>
<path d="M176.557 76.9623L177.096 76.6569L177.651 76.9682L177.108 77.2736L176.557 76.9623Z" fill="#81ACF9"/>
<path d="M177.268 76.56L177.81 76.2546L178.362 76.5659L177.822 76.8713L177.268 76.56Z" fill="#81ACF9"/>
<path d="M177.98 76.1577L178.52 75.8523L179.071 76.1636L178.532 76.469L177.98 76.1577Z" fill="#81ACF9"/>
<path d="M178.691 75.7554L179.231 75.45L179.785 75.7612L179.243 76.0666L178.691 75.7554Z" fill="#81ACF9"/>
<path d="M179.401 75.3531L179.944 75.0477L180.495 75.359L179.956 75.6644L179.401 75.3531Z" fill="#81ACF9"/>
<path d="M180.114 74.9507L180.654 74.6453L181.205 74.9566L180.666 75.262L180.114 74.9507Z" fill="#81ACF9"/>
<path d="M180.825 74.5484L181.365 74.243L181.919 74.5543L181.377 74.8597L180.825 74.5484Z" fill="#81ACF9"/>
<path d="M181.535 74.1461L182.078 73.8407L182.629 74.152L182.09 74.4574L181.535 74.1461Z" fill="#81ACF9"/>
<path d="M182.23 73.7526L183.145 73.2358L183.699 73.5471L182.782 74.0668L182.23 73.7526Z" fill="#81ACF9"/>
<path d="M172.436 77.5848L172.987 77.2736L173.541 77.5848L172.987 77.8991L172.436 77.5848Z" fill="#81ACF9"/>
<path d="M173.222 77.1414L173.776 76.8272L174.328 77.1414L173.776 77.4527L173.222 77.1414Z" fill="#81ACF9"/>
<path d="M174.007 76.6951L174.561 76.3838L175.113 76.6951L174.561 77.0093L174.007 76.6951Z" fill="#81ACF9"/>
<path d="M174.795 76.2517L175.346 75.9374L175.901 76.2517L175.346 76.5629L174.795 76.2517Z" fill="#81ACF9"/>
<path d="M175.58 75.8053L176.132 75.494L176.686 75.8053L176.132 76.1195L175.58 75.8053Z" fill="#81ACF9"/>
<path d="M176.365 75.3619L176.92 75.0506L177.471 75.3619L176.92 75.6761L176.365 75.3619Z" fill="#81ACF9"/>
<path d="M177.153 74.9185L177.705 74.6042L178.256 74.9185L177.705 75.2297L177.153 74.9185Z" fill="#81ACF9"/>
<path d="M177.938 74.4721L178.49 74.1608L179.044 74.4721L178.49 74.7863L177.938 74.4721Z" fill="#81ACF9"/>
<path d="M178.724 74.0286L179.278 73.7144L179.83 74.0286L179.278 74.3399L178.724 74.0286Z" fill="#81ACF9"/>
<path d="M179.509 73.5823L180.063 73.271L180.615 73.5823L180.063 73.8965L179.509 73.5823Z" fill="#81ACF9"/>
<path d="M180.298 73.1389L180.849 72.8246L181.404 73.1389L180.849 73.4501L180.298 73.1389Z" fill="#81ACF9"/>
<path d="M181.083 72.6925L181.634 72.3812L182.189 72.6925L181.634 73.0067L181.083 72.6925Z" fill="#81ACF9"/>
<path d="M190.29 121.513H188.351L186.993 121.167L184.682 121.575L182.83 121.008L182.941 119.796L186.559 119.255L190.221 119.217L190.29 121.513Z" fill="#001829"/>
<path d="M187.803 122.433H185.864L184.506 122.083L182.195 122.494L180.343 121.927L180.454 120.715L184.071 120.174L187.734 120.136L187.803 122.433Z" fill="#001829"/>
<path d="M193.278 93.2575L193.599 96.2969L191.902 104.258L192.607 109.429L190.272 120.395L187.457 119.989L186.049 96.1089L193.278 93.2575Z" fill="url(#paint15_linear_1753_1599)"/>
<path d="M181.059 94.1972L180.741 98.7431L183.726 108.769L184.071 120.174L187.734 120.136L187.889 101.592L187.901 99.9412L190.29 98.0794L191.177 94.0856L181.059 94.1972Z" fill="url(#paint16_linear_1753_1599)"/>
<path d="M183.777 79.0326L186.882 76.4631L191.71 74.7393L195.292 76.0549L196.029 79.9077L193.758 88.1507L193.278 93.2575L186.049 96.1089L181.059 94.1972L183.235 87.8688L183.777 79.0326Z" fill="url(#paint17_linear_1753_1599)"/>
<path d="M185.492 69.1393L185.261 69.985L185.378 70.3727L185.078 71.1039L185.827 74.619L186.328 74.804L186.804 74.8568L187.994 73.0332L188.165 70.9658L186.289 70.0438L185.492 69.1393Z" fill="#EFB387"/>
<path d="M186.789 74.3957L186.729 76.6775C186.729 76.6775 188.237 76.9359 189.076 76.7362C189.915 76.5365 191.636 75.5175 191.636 75.5175L191.444 73.2064L187.497 72.8188L186.789 74.3957Z" fill="#EFB387"/>
<path d="M192.445 69.5034L191.534 73.9083L188.165 75.3355L186.847 73.7556L187.299 72.7307L186.871 72.1933L186.859 72.1816L186.202 72.7718L185.696 72.3783L186.103 70.8572L185.645 70.4901L185.027 69.5827L185.276 68.7281L187.575 67.5417H188.942L192.445 69.5034Z" fill="#915236"/>
<path d="M192.445 69.5034L191.534 73.9083L188.165 75.3355L186.847 73.7556L187.299 72.7307L186.871 72.1933L187.042 71.421L192.445 69.5034Z" fill="#713E23"/>
<path d="M182.162 90.0684C180.268 90.3356 173.149 83.4933 173.149 83.4933L174.603 81.8841L181.062 85.4256L183.78 79.0327L188.546 81.7666C188.546 81.7666 185.54 89.5956 182.162 90.0713V90.0684Z" fill="url(#paint18_linear_1753_1599)"/>
<path d="M173.356 83.2613C173.356 83.2613 171.831 82.4685 171.417 81.8753C171.345 81.7343 170.716 81.2087 170.566 80.9532C170.377 80.6331 170.089 80.2689 170.26 79.94L172.118 80.9913L172.709 80.8298C172.709 80.8298 171.9 80.3893 172.178 79.9371C172.295 79.7462 172.595 79.9371 172.826 80.0546C173.03 80.1574 173.737 80.451 173.737 80.451C173.737 80.451 173.986 80.9003 174.094 81.0736C174.204 81.2468 174.426 82.0808 174.426 82.0808L173.359 83.2613H173.356Z" fill="#EFB387"/>
<path d="M169.205 73.782L169.651 73.5647C169.651 73.5647 170.766 73.7233 170.853 73.6822C170.94 73.6381 172.277 73.321 172.277 73.321C172.277 73.321 172.361 73.0097 171.983 72.9451C171.605 72.8805 171.449 72.8952 171.449 72.8952C171.449 72.8952 173.488 71.515 173.32 71.1978C173.092 70.7632 172.001 71.6677 172.001 71.6677C172.001 71.6677 171.89 71.3887 171.536 71.4445C171.536 71.4445 171.345 71.0451 170.952 71.1626C170.952 71.1626 170.799 70.9453 170.352 71.1156C169.909 71.2859 168.83 72.1992 168.83 72.1992L168.272 72.5545L169.205 73.785V73.782Z" fill="#EFB387"/>
<path d="M169.259 73.7732L158.727 80.9532L156.272 77.5732L168.27 72.4841L169.259 73.7732Z" fill="#0C395A"/>
<path d="M158.568 121.637H160.412L161.697 121.308L163.894 121.696L165.654 121.158L165.546 120.004L162.111 119.493L158.634 119.455L158.568 121.637Z" fill="#001829"/>
<path d="M160.93 122.509H162.773L164.059 122.177L166.256 122.568L168.015 122.03L167.907 120.876L164.472 120.362L160.996 120.327L160.93 122.509Z" fill="#001829"/>
<path d="M155.732 94.811L155.427 97.6947L157.036 105.254L156.368 110.161L158.586 120.574L161.259 120.189L162.593 97.5185L155.732 94.811Z" fill="url(#paint19_linear_1753_1599)"/>
<path d="M167.331 95.7037L167.634 100.018L164.802 109.538L164.472 120.362L160.995 120.327L160.849 102.722L160.834 101.157L158.568 99.3862L157.726 95.595L167.331 95.7037Z" fill="url(#paint20_linear_1753_1599)"/>
<path d="M167.332 95.7008L164.961 96.6082C164.841 96.6552 164.721 96.6963 164.598 96.7374C164.37 96.8079 164.143 96.8695 163.912 96.9106C162.689 97.1573 161.409 97.0487 160.237 96.5847L155.733 94.808L155.277 89.9568L153.122 82.1308L153.823 78.4688L157.222 77.2208L161.811 78.8564L164.754 81.2968L165.138 87.5165L165.273 89.6896L167.317 95.6391L167.338 95.6978L167.332 95.7008Z" fill="#0C395A"/>
<path d="M163.124 71.9114L163.342 72.7131L163.231 73.0802L163.516 73.7762L162.806 77.1151L162.329 77.2883L161.877 77.3412L160.75 75.6086L160.585 73.644L162.368 72.7689L163.124 71.9114Z" fill="#EFB387"/>
<path d="M161.892 76.9036L161.949 79.0679C161.949 79.0679 160.516 79.3116 159.719 79.1237C158.922 78.9357 157.288 77.9667 157.288 77.9667L157.471 75.773L161.217 75.4059L161.889 76.9036H161.892Z" fill="#EFB387"/>
<path d="M156.521 72.2579L157.387 76.4367L160.585 77.7934L161.837 76.2957L161.406 75.3208L161.816 74.8098L161.825 74.7981L162.449 75.359L162.928 74.986L162.545 73.5412L162.976 73.1918L163.564 72.3284L163.33 71.5179L161.145 70.3932H159.847L156.521 72.2579Z" fill="#915236"/>
<path d="M156.521 72.2579L157.387 76.4367L160.585 77.7934L161.837 76.2958L161.406 75.3208L161.816 74.8098L161.652 74.0786L156.521 72.2579Z" fill="#713E23"/>
<path d="M170.811 97.6888L170.487 97.4862L170.445 98.6814L170.772 98.884L170.811 97.6888Z" fill="#7A3816"/>
<path d="M171.296 96.9077L170.972 96.708L167.64 98.4406L167.966 98.6403L171.296 96.9077Z" fill="#9E481D"/>
<path d="M167.966 98.6403L167.906 100.373L168.374 100.129L168.416 98.934L170.81 97.6889L170.772 98.884L171.239 98.6403L171.296 96.9077L167.966 98.6403Z" fill="#783C19"/>
<path d="M167.967 98.6403L167.64 98.4406L167.583 100.173L167.907 100.373L167.967 98.6403Z" fill="#9E481D"/>
<path d="M167.422 95.598L167.311 95.642L164.598 96.7374C164.371 96.8079 164.143 96.8695 163.912 96.9107C163.612 95.9357 161.101 87.305 163.939 83.3113L165.132 87.5224L167.422 95.598Z" fill="url(#paint21_linear_1753_1599)"/>
<path d="M167.035 101.351L166.783 108.343L173.934 104.622L174.162 98.3378L167.694 101.007L167.08 101.327L167.035 101.351Z" fill="#6E3816"/>
<path d="M166.78 108.343L166.229 108.325L166.372 107.488L167.176 107.374L166.78 108.343Z" fill="#6E3816"/>
<path d="M165.162 100.981C165.195 101.18 165.347 101.389 165.629 101.562C166.001 101.791 166.564 101.9 167.017 101.882C167.017 101.882 167.008 102.161 167.002 102.288L166.945 103.876L166.864 106.09L166.807 107.679C166.777 108.504 165.983 108.548 165.38 107.756C165.099 107.388 164.937 106.924 164.949 106.54L165.006 104.951L165.087 102.737L165.144 101.148C165.144 101.089 165.153 101.034 165.162 100.981Z" fill="#783C19"/>
<path d="M165.63 101.559C165.348 101.386 165.195 101.18 165.162 100.978C165.288 100.317 166.01 100.335 166.571 101.069C166.76 101.316 166.888 101.603 166.951 101.879C166.499 101.897 166.001 101.785 165.627 101.556L165.63 101.559Z" fill="#783C19"/>
<path d="M165.162 100.978C165.288 100.317 166.01 100.335 166.57 101.069C166.744 101.295 167.467 103.177 167.467 103.177C168.749 105.107 172.457 103.483 174.093 100.258C174.402 99.4185 174.423 98.423 174.372 97.8974C174.351 97.7006 174.204 97.4451 173.893 97.2542C173.302 96.8901 172.385 96.8226 171.851 97.1015L165.521 100.393C165.24 100.54 165.126 100.752 165.159 100.975L165.162 100.978Z" fill="#9E481D"/>
<path d="M171.893 103.104C171.911 102.625 171.576 102.42 171.144 102.643C170.712 102.866 170.35 103.439 170.332 103.917C170.314 104.396 170.649 104.602 171.081 104.378C171.513 104.155 171.878 103.583 171.893 103.104Z" fill="#E9AC23"/>
<path d="M167.802 96.4848L167.865 97.2307C167.865 97.2307 167.982 98.3966 168.158 98.6462C168.29 98.8341 168.665 99.0867 168.863 98.9633C168.863 98.9633 168.971 99.0103 169.375 98.7783C169.375 98.7783 169.621 98.9545 169.987 98.749C169.987 98.749 170.316 98.7695 170.436 98.5111C170.436 98.5111 170.442 98.1939 170.409 97.9972C170.376 97.8004 170.697 97.9854 170.697 97.9854L170.937 97.9414C170.937 97.9414 171.036 97.7652 170.991 97.4157C170.898 96.7168 170.041 96.3556 170.041 96.3556L169.81 96.106L167.802 96.4819V96.4848Z" fill="#EFB387"/>
<path d="M164.742 81.2909C164.742 81.2909 162.911 81.5405 162.764 83.0176C162.56 85.0732 163.897 89.1815 164.338 90.1594C165.258 92.2004 167.673 96.6111 167.673 96.6111L170.002 96.1148L167.916 88.8937L166.996 85.3845L164.739 81.2938L164.742 81.2909Z" fill="#0C395A"/>
<path d="M199.236 34.2877L185.656 41.9699V50.4742L189.454 48.3276V50.7033L191.558 47.1383L199.236 42.7921V34.2877Z" fill="#4CD866"/>
<path d="M193.545 42.4162L188.291 45.3881C188.066 45.5143 187.784 45.3558 187.784 45.1032C187.784 44.9857 187.847 44.8771 187.952 44.8184L193.206 41.8465C193.431 41.7202 193.713 41.8788 193.713 42.1314C193.713 42.2488 193.65 42.3575 193.545 42.4162Z" fill="white"/>
<path d="M195.658 39.832L188.288 44.002C188.063 44.1282 187.781 43.9696 187.781 43.7171V43.3823C187.781 43.2649 187.844 43.1562 187.949 43.0975L195.319 38.9275C195.544 38.8012 195.826 38.9598 195.826 39.2124V39.5471C195.826 39.6646 195.763 39.7733 195.658 39.832Z" fill="white"/>
<path d="M197.381 40.2461L195.091 41.5411C194.867 41.6674 194.585 41.5088 194.585 41.2562C194.585 41.1388 194.648 41.0301 194.753 40.9714L197.043 39.6764C197.267 39.5501 197.549 39.7087 197.549 39.9612C197.549 40.0787 197.486 40.1873 197.381 40.2461Z" fill="white"/>
<path d="M191.549 45.0062L188.288 46.8504C188.063 46.9767 187.781 46.8181 187.781 46.5656C187.781 46.4481 187.844 46.3395 187.949 46.2807L191.21 44.4365C191.435 44.3103 191.717 44.4688 191.717 44.7214C191.717 44.8389 191.654 44.9475 191.549 45.0062Z" fill="white"/>
</g>
<defs>
<linearGradient id="paint0_linear_1753_1599" x1="225.531" y1="64.3966" x2="250.287" y2="64.3966" gradientUnits="userSpaceOnUse">
<stop stop-color="#5166AD"/>
<stop offset="1" stop-color="#3E4E85"/>
</linearGradient>
<linearGradient id="paint1_linear_1753_1599" x1="255.334" y1="70.352" x2="257.456" y2="70.352" gradientUnits="userSpaceOnUse">
<stop stop-color="#5166AD"/>
<stop offset="1" stop-color="#3E4E85"/>
</linearGradient>
<linearGradient id="paint2_linear_1753_1599" x1="218.361" y1="73.4619" x2="246.642" y2="73.4619" gradientUnits="userSpaceOnUse">
<stop stop-color="#5166AD"/>
<stop offset="1" stop-color="#3E4E85"/>
</linearGradient>
<linearGradient id="paint3_linear_1753_1599" x1="218.361" y1="69.5504" x2="270.985" y2="69.5504" gradientUnits="userSpaceOnUse">
<stop stop-color="#E7FFFF"/>
<stop offset="1" stop-color="#7796FF"/>
</linearGradient>
<linearGradient id="paint4_linear_1753_1599" x1="200.636" y1="60.814" x2="196.848" y2="60.814" gradientUnits="userSpaceOnUse">
<stop stop-color="#000F1C"/>
<stop offset="1" stop-color="#012A45"/>
</linearGradient>
<linearGradient id="paint5_linear_1753_1599" x1="205.767" y1="86.8469" x2="199.309" y2="86.8469" gradientUnits="userSpaceOnUse">
<stop stop-color="#000F1C"/>
<stop offset="1" stop-color="#012A45"/>
</linearGradient>
<linearGradient id="paint6_linear_1753_1599" x1="210.619" y1="89.5339" x2="201.67" y2="89.5339" gradientUnits="userSpaceOnUse">
<stop stop-color="#000F1C"/>
<stop offset="1" stop-color="#012A45"/>
</linearGradient>
<linearGradient id="paint7_linear_1753_1599" x1="212.196" y1="67.4859" x2="202.494" y2="67.4859" gradientUnits="userSpaceOnUse">
<stop stop-color="#000F1C"/>
<stop offset="1" stop-color="#012A45"/>
</linearGradient>
<linearGradient id="paint8_linear_1753_1599" x1="202.648" y1="65.3892" x2="197.957" y2="65.3892" gradientUnits="userSpaceOnUse">
<stop stop-color="#000F1C"/>
<stop offset="1" stop-color="#012A45"/>
</linearGradient>
<linearGradient id="paint9_linear_1753_1599" x1="189.555" y1="71.3387" x2="206.897" y2="71.3387" gradientUnits="userSpaceOnUse">
<stop stop-color="#3767D6"/>
<stop offset="1" stop-color="#51CBF9"/>
</linearGradient>
<linearGradient id="paint10_linear_1753_1599" x1="213.743" y1="65.3099" x2="203.043" y2="65.3099" gradientUnits="userSpaceOnUse">
<stop stop-color="#000F1C"/>
<stop offset="1" stop-color="#012A45"/>
</linearGradient>
<linearGradient id="paint11_linear_1753_1599" x1="187.775" y1="68.7399" x2="198.463" y2="68.7399" gradientUnits="userSpaceOnUse">
<stop stop-color="#117BF8"/>
<stop offset="1" stop-color="#05F7FF"/>
</linearGradient>
<linearGradient id="paint12_linear_1753_1599" x1="240.985" y1="41.132" x2="254.43" y2="33.2097" gradientUnits="userSpaceOnUse">
<stop stop-color="#3767D6"/>
<stop offset="1" stop-color="#0B4BC9"/>
</linearGradient>
<linearGradient id="paint13_linear_1753_1599" x1="103.671" y1="109.479" x2="117.17" y2="101.524" gradientUnits="userSpaceOnUse">
<stop stop-color="#3767D6"/>
<stop offset="1" stop-color="#404BD1"/>
</linearGradient>
<linearGradient id="paint14_linear_1753_1599" x1="104.136" y1="109.216" x2="116.715" y2="101.803" gradientUnits="userSpaceOnUse">
<stop stop-color="#117BF8"/>
<stop offset="1" stop-color="#05F7FF"/>
</linearGradient>
<linearGradient id="paint15_linear_1753_1599" x1="186.049" y1="106.828" x2="193.596" y2="106.828" gradientUnits="userSpaceOnUse">
<stop stop-color="#000F1C"/>
<stop offset="1" stop-color="#012A45"/>
</linearGradient>
<linearGradient id="paint16_linear_1753_1599" x1="180.741" y1="107.13" x2="191.177" y2="107.13" gradientUnits="userSpaceOnUse">
<stop stop-color="#000F1C"/>
<stop offset="1" stop-color="#012A45"/>
</linearGradient>
<linearGradient id="paint17_linear_1753_1599" x1="181.059" y1="85.4227" x2="196.026" y2="85.4227" gradientUnits="userSpaceOnUse">
<stop stop-color="#000F1C"/>
<stop offset="1" stop-color="#012A45"/>
</linearGradient>
<linearGradient id="paint18_linear_1753_1599" x1="177.663" y1="88.1596" x2="183.781" y2="78.0138" gradientUnits="userSpaceOnUse">
<stop stop-color="#000F1C"/>
<stop offset="1" stop-color="#012A45"/>
</linearGradient>
<linearGradient id="paint19_linear_1753_1599" x1="162.596" y1="107.694" x2="155.427" y2="107.694" gradientUnits="userSpaceOnUse">
<stop stop-color="#000F1C"/>
<stop offset="1" stop-color="#012A45"/>
</linearGradient>
<linearGradient id="paint20_linear_1753_1599" x1="167.634" y1="107.979" x2="157.726" y2="107.979" gradientUnits="userSpaceOnUse">
<stop stop-color="#000F1C"/>
<stop offset="1" stop-color="#012A45"/>
</linearGradient>
<linearGradient id="paint21_linear_1753_1599" x1="167.437" y1="89.716" x2="161.967" y2="90.358" gradientUnits="userSpaceOnUse">
<stop stop-color="#000F1C"/>
<stop offset="1" stop-color="#012A45"/>
</linearGradient>
<clipPath id="clip0_1753_1599">
<rect width="183" height="144.604" fill="white" transform="translate(88 9.06824)"/>
</clipPath>
</defs>
</svg>
